<?xml version="1.0" encoding="UTF-8"?>
<svg version="1.1" xmlns="http://www.w3.org/2000/svg" width="512" height="512">
<path d="M0 0 C8.94415181 7.12842174 11.51456198 16.66577985 13.03222656 27.5859375 C13.20691467 28.74176331 13.38160278 29.89758911 13.56158447 31.08843994 C14.13037534 34.87964499 14.67478779 38.67390998 15.21875 42.46875 C15.61134428 45.12115492 16.00524149 47.77333449 16.40081787 50.42529297 C17.22539922 55.97137429 18.03759501 61.51914647 18.84082031 67.06835938 C19.96959406 74.86656357 21.12058608 82.66136659 22.27615404 90.45563889 C23.91251671 101.50213155 25.53835225 112.55021575 27.14160156 123.6015625 C27.29846436 124.67198792 27.45532715 125.74241333 27.61694336 126.84527588 C28.80674992 135.09031109 29.91715328 143.32176115 30.00512695 151.66333008 C30.02437981 153.28100029 30.02437981 153.28100029 30.04402161 154.93135071 C30.05140854 156.06388779 30.05879547 157.19642487 30.06640625 158.36328125 C30.074478 159.56127853 30.08254974 160.75927582 30.09086609 161.99357605 C30.10462577 164.51564114 30.11538376 167.03772422 30.12329102 169.55981445 C30.13482305 172.11878992 30.15529387 174.6777411 30.18481445 177.23657227 C30.22774752 180.96647203 30.24369275 184.69566427 30.25390625 188.42578125 C30.27141434 189.55224564 30.28892242 190.67871002 30.30696106 191.83930969 C30.28027578 201.76251417 27.8485718 210.44960606 23.640625 219.40625 C20.80607627 226.10912405 21.00612846 233.42021068 20.828125 240.59375 C21.570625 240.51125 22.313125 240.42875 23.078125 240.34375 C25.828125 240.59375 25.828125 240.59375 27.96899414 241.9921875 C30.80835501 245.9654284 30.38187022 249.69993189 30.32421875 254.46875 C30.32567398 255.43022949 30.32712921 256.39170898 30.32862854 257.38232422 C30.32697014 259.41311679 30.31541544 261.44392201 30.29467773 263.47460938 C30.26572909 266.58257448 30.27406898 269.68883314 30.28710938 272.796875 C30.28087164 274.77084162 30.27248043 276.74480286 30.26171875 278.71875 C30.26465439 279.64800293 30.26759003 280.57725586 30.27061462 281.53466797 C30.25793045 282.40236816 30.24524628 283.27006836 30.23217773 284.1640625 C30.22677475 284.92477051 30.22137177 285.68547852 30.21580505 286.46923828 C29.70936073 289.24458587 28.74717052 290.53524541 26.828125 292.59375 C24.67136383 293.09432125 24.67136383 293.09432125 22.1217041 293.09495544 C21.15428787 293.10478958 20.18687164 293.11462372 19.19013977 293.12475586 C18.1303038 293.11508789 17.07046783 293.10541992 15.97851562 293.09545898 C14.86123581 293.10086197 13.74395599 293.10626495 12.59281921 293.11183167 C8.88973722 293.12436636 5.1874255 293.10779555 1.484375 293.08984375 C-1.08247926 293.08999863 -3.64933375 293.09148572 -6.21618652 293.09425354 C-11.59980449 293.09563967 -16.98313696 293.08347574 -22.36669922 293.06030273 C-28.59193391 293.03369241 -34.81679593 293.03194555 -41.042068 293.0436911 C-47.02914462 293.05446831 -53.01605031 293.0481819 -59.00312805 293.03413582 C-61.55169786 293.02961031 -64.10027865 293.02929406 -66.64884949 293.03320122 C-70.2068857 293.03610225 -73.76430698 293.01965864 -77.32226562 292.99780273 C-78.38210159 293.00230438 -79.44193756 293.00680603 -80.53388977 293.01144409 C-81.501306 293.00153946 -82.46872223 292.99163483 -83.4654541 292.98143005 C-84.30684181 292.97900016 -85.14822952 292.97657026 -86.01511383 292.97406673 C-88.66495874 292.50680111 -89.55222507 291.70496531 -91.171875 289.59375 C-91.55955505 287.55152893 -91.55955505 287.55152893 -91.57592773 285.18579102 C-91.58861191 284.29799454 -91.60129608 283.41019806 -91.61436462 282.49549866 C-91.60996117 281.06106667 -91.60996117 281.06106667 -91.60546875 279.59765625 C-91.6107106 278.61256577 -91.61595245 277.62747528 -91.62135315 276.61253357 C-91.62777794 274.52872663 -91.62643047 272.44488345 -91.61791992 270.36108398 C-91.60941621 267.1717061 -91.63815546 263.98412243 -91.66992188 260.79492188 C-91.6715341 258.77083387 -91.67095594 256.74674269 -91.66796875 254.72265625 C-91.68481972 253.2912606 -91.68481972 253.2912606 -91.70201111 251.83094788 C-91.63325262 245.30066257 -91.63325262 245.30066257 -89.45336914 241.96069336 C-86.79000818 240.36495682 -85.22557275 240.25445025 -82.171875 240.59375 C-82.18758545 239.42505371 -82.2032959 238.25635742 -82.21948242 237.05224609 C-82.27443662 232.65013728 -82.30845934 228.24805772 -82.33666992 223.84570312 C-82.35160924 221.95274734 -82.37196815 220.05982525 -82.39819336 218.16699219 C-82.59326469 203.70876426 -82.34011832 190.14686503 -75.296875 177.09375 C-74.97074219 176.4440625 -74.64460938 175.794375 -74.30859375 175.125 C-72.06114411 170.78750964 -69.40965125 167.24893991 -66.171875 163.59375 C-69.76981764 159.89567909 -73.52172952 156.51949406 -77.484375 153.21875 C-78.63572842 152.25037053 -79.78677065 151.28162097 -80.9375 150.3125 C-81.49115234 149.84714844 -82.04480469 149.38179687 -82.61523438 148.90234375 C-97.35338992 136.51267723 -97.35338992 136.51267723 -98.46484375 127.1171875 C-98.84070029 119.90480531 -97.30712008 114.53482562 -93.171875 108.59375 C-91.26391695 106.60983109 -89.44324201 105.17842466 -87.171875 103.59375 C-87.64625 102.541875 -88.120625 101.49 -88.609375 100.40625 C-91.81872529 92.85216606 -92.09033209 85.62257026 -89.28125 77.87109375 C-86.1154222 71.37222894 -81.661169 67.57754386 -75.171875 64.59375 C-75.22988281 63.55476563 -75.28789062 62.51578125 -75.34765625 61.4453125 C-75.68793378 52.83184371 -75.67888566 45.71598088 -70.171875 38.59375 C-65.0319936 33.09138148 -60.38409876 28.82544548 -52.62109375 28.3984375 C-50.75904297 28.43324219 -50.75904297 28.43324219 -48.859375 28.46875 C-46.97798828 28.49582031 -46.97798828 28.49582031 -45.05859375 28.5234375 C-44.10597656 28.54664063 -43.15335937 28.56984375 -42.171875 28.59375 C-42.21828125 27.99949219 -42.2646875 27.40523437 -42.3125 26.79296875 C-42.66806978 18.62756276 -40.91717405 10.89858204 -35.984375 4.21875 C-25.89611488 -5.19695945 -11.90670602 -7.709378 0 0 Z M-24.984375 15.34375 C-27.57724103 20.2565488 -27.2747752 25.689297 -26.73461914 31.07983398 C-26.6144191 32.32059189 -26.49421906 33.56134979 -26.37037659 34.83970642 C-26.23277481 36.17310412 -26.0949888 37.50648281 -25.95703125 38.83984375 C-25.82035204 40.21982245 -25.68441289 41.59987463 -25.54917908 42.97999573 C-25.1932105 46.59251203 -24.82726724 50.20394898 -24.45916748 53.81524658 C-24.08453338 57.5083881 -23.71943831 61.20247138 -23.35351562 64.89648438 C-22.63558252 72.12985606 -21.90709867 79.3621131 -21.171875 86.59375 C-20.36290771 86.70912109 -19.55394043 86.82449219 -18.72045898 86.94335938 C-17.65126221 87.10642578 -16.58206543 87.26949219 -15.48046875 87.4375 C-14.42400146 87.59412109 -13.36753418 87.75074219 -12.27905273 87.91210938 C-6.53685817 89.17180979 -2.26537792 91.83635865 1.29896545 96.53102112 C5.7991345 104.56755206 5.5048671 112.51220463 5.38671875 121.43359375 C5.38246083 123.04878863 5.3801392 124.66398965 5.37965393 126.27919006 C5.37352303 129.64385213 5.35097945 133.00783939 5.31518555 136.37231445 C5.26965997 140.68547941 5.25514403 144.99804022 5.25144863 149.3114233 C5.24702507 152.63741505 5.23173432 155.96328015 5.2125721 159.289217 C5.20369792 160.88043747 5.19696403 162.47167137 5.19241142 164.06291008 C5.18338086 166.27907054 5.16100826 168.49468152 5.13452148 170.71069336 C5.11856178 172.60071327 5.11856178 172.60071327 5.10227966 174.52891541 C4.828125 177.59375 4.828125 177.59375 2.828125 180.59375 C0.4453125 180.88671875 0.4453125 180.88671875 -2.296875 180.78125 C-3.20695312 180.75417969 -4.11703125 180.72710937 -5.0546875 180.69921875 C-5.75335938 180.66441406 -6.45203125 180.62960937 -7.171875 180.59375 C-8.28888782 176.99867407 -8.3028619 173.63566704 -8.3137207 169.88500977 C-8.31719513 169.21946075 -8.32066956 168.55391174 -8.32424927 167.86819458 C-8.33158374 166.42718396 -8.33694138 164.9861622 -8.34053993 163.54513741 C-8.34772786 161.26241604 -8.36341053 158.97990683 -8.38188171 156.69725037 C-8.43424987 150.2085964 -8.48233772 143.72006208 -8.49780273 137.23120117 C-8.50789123 133.25819665 -8.5372321 129.28573177 -8.57912254 125.3129406 C-8.59142028 123.80155457 -8.59655603 122.29009232 -8.59432411 120.77865791 C-8.5919675 118.66248168 -8.61415908 116.54785172 -8.6418457 114.43188477 C-8.64771194 113.22927505 -8.65357819 112.02666534 -8.65962219 110.78761292 C-9.27035117 106.97975747 -10.49917293 105.32170243 -13.171875 102.59375 C-16.31058688 101.02439406 -18.71043322 101.24173897 -22.171875 101.59375 C-24.80203661 103.7664922 -26.64524394 105.54048788 -28.171875 108.59375 C-28.288514 110.04650139 -28.35053847 111.50386865 -28.3828125 112.9609375 C-28.9769829 132.99218203 -32.65193011 146.83169381 -45.64453125 162.35302734 C-61.86304461 181.76150734 -67.70854246 196.04301425 -67.359375 221.34375 C-67.2975 227.69625 -67.235625 234.04875 -67.171875 240.59375 C-43.081875 240.59375 -18.991875 240.59375 5.828125 240.59375 C6.158125 234.65375 6.488125 228.71375 6.828125 222.59375 C8.23730372 217.58873591 9.78984182 213.04887368 11.80337524 208.28767395 C14.53447821 201.43560637 15.43144456 195.56822622 15.39453125 188.2265625 C15.40072983 187.15348846 15.40692841 186.08041443 15.41331482 184.974823 C15.4203862 182.70067236 15.41728619 180.42646967 15.40454102 178.15234375 C15.39102165 174.81661869 15.42436616 171.48391067 15.46289062 168.1484375 C15.53516577 149.20818355 13.03389776 130.85830892 10.21637344 112.18170929 C9.68127817 108.61490868 9.15952531 105.04619944 8.63748455 101.47746849 C7.12327305 91.12843664 5.57309126 80.78508062 4.0065918 70.44384766 C3.27195059 65.59355314 2.54433165 60.74223122 1.81829548 55.89064217 C1.24927141 52.09487817 0.6760256 48.2997608 0.10155296 44.50481796 C-0.16900101 42.71336529 -0.43811522 40.92169451 -0.7056942 39.12979507 C-1.07633311 36.65110787 -1.45283224 34.17337793 -1.83081055 31.69580078 C-1.93732437 30.97493286 -2.0438382 30.25406494 -2.15357971 29.51135254 C-3.35744729 20.8516428 -3.35744729 20.8516428 -7.921875 13.71875 C-14.39465325 9.48654884 -19.32971899 9.88408213 -24.984375 15.34375 Z M-58.171875 47.59375 C-60.45537756 50.63842008 -60.46902721 53.75136642 -60.6328125 57.49609375 C-59.35582789 63.30745591 -53.59642447 66.82667106 -49.109375 70.21875 C-47.86709468 71.16744704 -46.62616211 72.11791205 -45.38671875 73.0703125 C-44.84136475 73.48361816 -44.29601074 73.89692383 -43.73413086 74.32275391 C-42.171875 75.59375 -42.171875 75.59375 -40.59594727 77.25146484 C-39.25547101 78.82238384 -39.25547101 78.82238384 -37.171875 78.59375 C-36.87628589 71.4339248 -37.26229547 64.29514101 -37.796875 57.15625 C-37.84183105 56.28000977 -37.88678711 55.40376953 -37.93310547 54.50097656 C-38.32134176 49.94250143 -38.49949681 48.20306375 -42.00390625 45.02734375 C-48.2163137 42.21605703 -53.24069986 42.37250573 -58.171875 47.59375 Z M-73.109375 80.71875 C-75.42445838 83.94583593 -76.171875 85.63135154 -76.171875 89.59375 C-74.00040207 95.61426515 -69.98127716 98.64458571 -65.109375 102.46875 C-64.34802246 103.07936279 -63.58666992 103.68997559 -62.80224609 104.3190918 C-61.28918011 105.53111969 -59.77265576 106.73884483 -58.25244141 107.94189453 C-56.46542834 109.36068477 -54.69463544 110.79532272 -52.93359375 112.24609375 C-48.4307797 116.082127 -48.4307797 116.082127 -43.171875 118.59375 C-42.99011719 116.94826172 -42.99011719 116.94826172 -42.8046875 115.26953125 C-42.63578137 113.81506177 -42.46649019 112.36063696 -42.296875 110.90625 C-42.21824219 110.18501953 -42.13960938 109.46378906 -42.05859375 108.72070312 C-41.5822699 104.70859068 -40.90887358 101.29399488 -39.171875 97.59375 C-44.55694567 92.56120089 -50.07963757 87.68327318 -55.796875 83.03125 C-56.31016357 82.58990723 -56.82345215 82.14856445 -57.35229492 81.69384766 C-62.42941441 77.65812691 -67.6881938 76.79704445 -73.109375 80.71875 Z M-81.171875 118.59375 C-83.51737174 122.11199511 -83.75178903 123.45150694 -83.171875 127.59375 C-81.56275949 129.57832579 -80.10457525 130.96140182 -78.171875 132.59375 C-77.09679687 133.58181641 -77.09679687 133.58181641 -76 134.58984375 C-66.28574502 144.06638177 -66.28574502 144.06638177 -55.171875 151.59375 C-54.04050914 150.03585317 -52.91705179 148.47221143 -51.796875 146.90625 C-51.17039062 146.03613281 -50.54390625 145.16601562 -49.8984375 144.26953125 C-48.27771657 141.75778048 -47.17329412 139.40075813 -46.171875 136.59375 C-52.76558695 130.91733022 -59.4047031 125.29794083 -66.234375 119.90625 C-66.76957764 119.4726416 -67.30478027 119.0390332 -67.85620117 118.59228516 C-72.91068753 114.65682887 -76.05398781 114.95735647 -81.171875 118.59375 Z M-76.171875 255.59375 C-76.171875 263.18375 -76.171875 270.77375 -76.171875 278.59375 C-46.141875 278.59375 -16.111875 278.59375 14.828125 278.59375 C14.828125 271.00375 14.828125 263.41375 14.828125 255.59375 C-15.201875 255.59375 -45.231875 255.59375 -76.171875 255.59375 Z " fill="#7454F2" transform="translate(449.171875,211.40625)"/>
<path d="M0 0 C6.00420004 4.65290676 9.29235225 11.35950228 10.25 18.8125 C10.3861595 21.82209451 10.37539718 24.80296765 10.25 27.8125 C11.1678125 27.76609375 12.085625 27.7196875 13.03125 27.671875 C22.96540395 27.379694 28.64319872 28.34015885 36 35 C43.23775468 42.88368702 43.7122009 50.36660015 43.390625 60.62890625 C43.34421875 61.67949219 43.2978125 62.73007812 43.25 63.8125 C44.28125 64.328125 45.3125 64.84375 46.375 65.375 C52.95665481 69.18543173 56.71338904 74.33825186 58.78125 81.625 C60.22883843 88.38041266 58.59385521 93.54602701 56.25 99.8125 C55.755 101.2975 55.755 101.2975 55.25 102.8125 C56.1575 103.493125 57.065 104.17375 58 104.875 C63.08249238 109.10440265 65.79610273 114.50419642 66.48828125 121.07421875 C66.71294991 128.41733652 65.3195324 133.95630352 60.6953125 139.765625 C55.5592455 145.18825367 49.52718644 149.66139201 43.6171875 154.19921875 C40.42286638 156.65546509 37.33001669 159.21461358 34.25 161.8125 C34.78625 162.59625 35.3225 163.38 35.875 164.1875 C48.16427307 182.75214655 50.57464741 198.08587174 50.375 220 C50.36495051 221.92512555 50.35582814 223.85025618 50.34765625 225.77539062 C50.32579785 230.4545541 50.29137636 235.13347008 50.25 239.8125 C51.920625 239.9671875 51.920625 239.9671875 53.625 240.125 C55.419375 240.4653125 55.419375 240.4653125 57.25 240.8125 C59.3363505 243.94202575 59.5037096 244.67300493 59.5246582 248.23632812 C59.53419022 249.12735229 59.54372223 250.01837646 59.55354309 250.93640137 C59.55263168 251.89582642 59.55172028 252.85525146 59.55078125 253.84375 C59.55506638 254.83121216 59.5593515 255.81867432 59.56376648 256.83605957 C59.56951012 258.92406446 59.57000979 261.01208937 59.56567383 263.10009766 C59.5625122 266.30015036 59.58597867 269.49928027 59.61132812 272.69921875 C59.61360089 274.72656133 59.61430472 276.7539064 59.61328125 278.78125 C59.622491 279.74067505 59.63170074 280.7001001 59.64118958 281.68859863 C59.63496078 282.5796228 59.62873199 283.47064697 59.62231445 284.38867188 C59.62294388 285.17238159 59.6235733 285.95609131 59.6242218 286.7635498 C59.14083004 289.41023055 58.34912423 290.15743013 56.25 291.8125 C54.09323883 292.19281673 54.09323883 292.19281673 51.5435791 292.20018005 C50.09245476 292.215037 50.09245476 292.215037 48.61201477 292.23019409 C47.5521788 292.22569244 46.49234283 292.2211908 45.40039062 292.21655273 C44.28311081 292.22341599 43.16583099 292.23027924 42.01469421 292.23735046 C38.31175118 292.25569168 34.60922882 292.2517707 30.90625 292.24609375 C28.33939474 292.25065173 25.77254071 292.25595614 23.20568848 292.26197815 C17.82212794 292.27092347 12.43872979 292.26870236 7.05517578 292.25854492 C0.82989042 292.24705899 -5.39496438 292.26114552 -11.620193 292.2879414 C-17.60726739 292.31274833 -23.59411978 292.31528043 -29.58125305 292.30882454 C-32.12983415 292.30867077 -34.67842333 292.31476104 -37.22697449 292.32711601 C-40.7851092 292.34193484 -44.34228661 292.3314154 -47.90039062 292.31420898 C-48.96022659 292.32387695 -50.02006256 292.33354492 -51.11201477 292.34350586 C-52.079431 292.33367172 -53.04684723 292.32383759 -54.0435791 292.31370544 C-55.30566067 292.31339152 -55.30566067 292.31339152 -56.59323883 292.31307125 C-58.75 291.8125 -58.75 291.8125 -60.5199213 289.91395664 C-61.92142702 287.51963544 -62.13447975 286.13857135 -62.15405273 283.3828125 C-62.17307899 282.08126221 -62.17307899 282.08126221 -62.19248962 280.75341797 C-62.18955399 279.82416504 -62.18661835 278.89491211 -62.18359375 277.9375 C-62.1888356 276.97602051 -62.19407745 276.01454102 -62.19947815 275.02392578 C-62.20589532 272.99317388 -62.2045653 270.96238479 -62.19604492 268.93164062 C-62.18753026 265.82354664 -62.21630837 262.71728765 -62.24804688 259.609375 C-62.24965887 257.63541722 -62.2490814 255.66145618 -62.24609375 253.6875 C-62.25732773 252.75824707 -62.26856171 251.82899414 -62.28013611 250.87158203 C-62.21078953 244.45730279 -62.21078953 244.45730279 -59.89086914 241.2109375 C-57.3093912 239.52468985 -55.77658595 239.47621267 -52.75 239.8125 C-52.63220123 227.61191346 -55.32530387 217.95344991 -60.00976562 206.75683594 C-61.41350941 203.06969363 -61.88467951 199.76347445 -61.94287109 195.82080078 C-61.95893402 194.82259308 -61.97499695 193.82438538 -61.99154663 192.79592896 C-62.03720719 188.08808517 -62.07734173 183.3803802 -62.10009766 178.67236328 C-62.11629402 176.24322692 -62.14306657 173.81413018 -62.18212891 171.38525391 C-62.51727042 150.36459536 -60.22658967 130.24956731 -57.1463089 109.50261688 C-56.5950165 105.76048293 -56.06109415 102.01593639 -55.5267086 98.27135658 C-54.09640818 88.25119499 -52.6270655 78.23738725 -51.1227932 68.2280674 C-50.34949515 63.08221565 -49.58331529 57.93553487 -48.83398438 52.78613281 C-48.09126407 47.68252635 -47.33178751 42.581679 -46.5602417 37.48235321 C-46.27382983 35.57121873 -45.9931136 33.65922054 -45.71856689 31.74634552 C-42.21605587 7.42313475 -42.21605587 7.42313475 -31.921875 -0.78125 C-21.67602125 -7.41525603 -10.08349996 -6.47443815 0 0 Z M-26.32788086 15.38085938 C-28.47249146 19.04786736 -28.83575108 22.80172596 -29.44140625 26.96875 C-29.58770477 27.91106476 -29.7340033 28.85337952 -29.88473511 29.82424927 C-30.37217495 32.98535514 -30.84247843 36.14876087 -31.3125 39.3125 C-31.65227181 41.54357968 -31.99286739 43.77453403 -32.33422852 46.00537109 C-33.38510334 52.90575789 -34.41347506 59.80942094 -35.43818665 66.71372986 C-35.87125108 69.62862333 -36.30607397 72.54325368 -36.74081707 75.45789719 C-38.23100799 85.44992254 -39.71274009 95.4431857 -41.1875 105.4375 C-41.29839588 106.1889328 -41.40929176 106.9403656 -41.52354813 107.71456909 C-42.16769479 112.08192575 -42.80956418 116.44960826 -43.44839859 120.81774521 C-43.73678799 122.7879867 -44.02655886 124.75802584 -44.31637573 126.72805786 C-46.34930805 140.67528453 -47.06022661 154.1578041 -47.1550293 168.2565918 C-47.17656529 170.65647815 -47.21061511 173.0562869 -47.25756836 175.45581055 C-47.54043951 190.09363759 -46.90643572 201.46130283 -40.75 214.8125 C-38.75 221.8125 -38.75 221.8125 -37.75 239.8125 C-13.66 239.8125 10.43 239.8125 35.25 239.8125 C35.311875 233.46 35.37375 227.1075 35.4375 220.5625 C35.46481201 218.5834668 35.49212402 216.60443359 35.52026367 214.56542969 C35.68526965 194.32507246 30.27231663 181.24449561 17.03125 166.04296875 C10.33534402 158.33386647 4.10934786 150.33931538 0.25 140.8125 C-0.05679688 140.05582031 -0.36359375 139.29914063 -0.6796875 138.51953125 C-3.17201513 131.05441659 -3.17260851 123.40591866 -3.19628906 115.60449219 C-3.30187397 109.71036982 -3.82473263 106.31004935 -7.75 101.8125 C-10.85048928 100.26225536 -13.32894218 100.52257985 -16.75 100.8125 C-19.50329021 102.60812405 -21.27627461 103.86504922 -22.75 106.8125 C-22.86569472 108.97618237 -22.91700652 111.14340153 -22.93945312 113.31005859 C-22.95189308 114.31035347 -22.95189308 114.31035347 -22.96458435 115.33085632 C-22.9819942 116.78061923 -22.99715847 118.23041042 -23.01036072 119.68021774 C-23.03137961 121.9750885 -23.05840469 124.26981814 -23.08703613 126.56460571 C-23.14676317 131.43884955 -23.19888018 136.31315931 -23.25 141.1875 C-23.30925334 146.82850141 -23.37161455 152.46943372 -23.44187927 158.1103096 C-23.46842005 160.37034134 -23.48925763 162.63038011 -23.5098877 164.89047241 C-23.52649633 166.27903574 -23.54336866 167.66759595 -23.56054688 169.05615234 C-23.57933899 170.87244644 -23.57933899 170.87244644 -23.59851074 172.72543335 C-23.72375425 175.27766094 -23.99920918 177.38594744 -24.75 179.8125 C-26.37418745 179.89340971 -27.99951745 179.95164995 -29.625 180 C-30.52992187 180.03480469 -31.43484375 180.06960938 -32.3671875 180.10546875 C-33.54667969 179.96044922 -33.54667969 179.96044922 -34.75 179.8125 C-37.197846 176.140731 -37.01939909 174.31084209 -37.05639648 169.92944336 C-37.06888176 168.88486465 -37.06888176 168.88486465 -37.08161926 167.81918335 C-37.10573851 165.51351332 -37.11449681 163.20812664 -37.12109375 160.90234375 C-37.13006393 159.29390887 -37.13918585 157.68547483 -37.14845276 156.07704163 C-37.16495421 152.7001849 -37.17264403 149.32342738 -37.17553711 145.9465332 C-37.18089927 141.64142782 -37.21848305 137.33727049 -37.26428127 133.0324316 C-37.294196 129.70616866 -37.30126389 126.38012906 -37.30226326 123.05374336 C-37.30644287 121.46825415 -37.31878552 119.88276286 -37.33978081 118.29740715 C-37.44855975 109.36688677 -37.40472891 101.26044785 -31.75 93.8125 C-27.17224492 89.32775196 -22.72852952 87.58831495 -16.44140625 86.65625 C-15.37220947 86.49318359 -14.3030127 86.33011719 -13.20141602 86.16210938 C-11.98796509 85.98905273 -11.98796509 85.98905273 -10.75 85.8125 C-9.94052884 77.85056719 -9.14017912 69.88779147 -8.35127926 61.92379665 C-7.98463163 58.22534603 -7.61491565 54.5272572 -7.23803711 50.82983398 C-6.87406655 47.25790382 -6.51835261 43.6852368 -6.1682148 40.11192513 C-6.03357858 38.75257351 -5.89602987 37.39350695 -5.75544548 36.03475761 C-5.55820989 34.12349246 -5.37252811 32.2110459 -5.18725586 30.29858398 C-5.07844589 29.21270493 -4.96963593 28.12682587 -4.85752869 27.00804138 C-4.69455241 22.16470648 -4.91399753 18.15607539 -7.5 14 C-13.97291848 7.70688481 -20.26014289 9.34973626 -26.32788086 15.38085938 Z M7.25 46.8125 C6.21357536 49.96468926 6.0443073 53.0750248 5.875 56.375 C5.80812988 57.26799805 5.74125977 58.16099609 5.67236328 59.08105469 C5.23625145 65.31802032 4.99196033 71.56220576 5.25 77.8125 C9.31622445 76.12238226 12.40245547 73.29079582 15.6875 70.4375 C16.81066024 69.47072916 17.93435046 68.50457366 19.05859375 67.5390625 C19.59597168 67.07532227 20.13334961 66.61158203 20.68701172 66.13378906 C22.12795268 64.91567402 23.6112546 63.74814455 25.09765625 62.5859375 C27.3297528 60.99124939 27.3297528 60.99124939 28.25 58.8125 C28.75872093 52.70784886 28.31705978 49.69297174 24.25 44.8125 C21.07993681 42.69912454 19.21572363 42.51558567 15.48046875 42.3515625 C11.86877164 43.09793773 9.98347711 44.32099044 7.25 46.8125 Z M20.25 85.8125 C18.47841213 87.31968684 16.69688725 88.8145827 14.91479492 90.30932617 C12.34892962 92.46428902 9.7997064 94.63845567 7.25 96.8125 C7.45496094 97.32296875 7.65992187 97.8334375 7.87109375 98.359375 C10.25969811 104.80517815 10.91435121 110.9722091 11.25 117.8125 C14.18444779 116.45932587 16.53230703 114.90722693 19.0078125 112.8359375 C19.71156006 112.25126709 20.41530762 111.66659668 21.14038086 111.06420898 C21.87780518 110.44489502 22.61522949 109.82558105 23.375 109.1875 C32.20640904 101.81089739 32.20640904 101.81089739 35.51953125 99.28515625 C36.39996094 98.61355469 37.28039062 97.94195312 38.1875 97.25 C38.93902344 96.69183594 39.69054687 96.13367188 40.46484375 95.55859375 C42.61524946 93.45524287 43.38979661 91.67833551 44.25 88.8125 C44.16849905 84.90045445 43.47912265 83.13188309 41.1875 79.9375 C38.18058992 77.76228845 36.21354 76.88294866 32.46875 77.1484375 C27.55393311 78.61942143 23.99815306 82.46053558 20.25 85.8125 Z M31.87646484 121.39550781 C28.54233607 124.30023363 25.06689305 127.03728164 21.625 129.8125 C20.21553528 130.95758222 18.80663331 132.10335767 17.3984375 133.25 C16.79177246 133.74371094 16.18510742 134.23742187 15.56005859 134.74609375 C15.12773926 135.09800781 14.69541992 135.44992187 14.25 135.8125 C15.96010835 140.04925491 17.58803516 143.64067787 20.4375 147.25 C20.96730469 147.92933594 21.49710937 148.60867188 22.04296875 149.30859375 C22.44128906 149.80488281 22.83960937 150.30117188 23.25 150.8125 C28.75335372 146.88153306 33.89312039 142.61346233 39 138.1875 C39.64976807 137.62522705 40.29953613 137.0629541 40.96899414 136.48364258 C47.41468933 131.34466576 47.41468933 131.34466576 51.25 124.375 C51.52464857 120.79844635 51.52464857 120.79844635 49.75 117.9375 C42.45158564 111.7338478 37.88825053 116.03650133 31.87646484 121.39550781 Z M-46.75 254.8125 C-46.75 262.4025 -46.75 269.9925 -46.75 277.8125 C-16.72 277.8125 13.31 277.8125 44.25 277.8125 C44.25 270.2225 44.25 262.6325 44.25 254.8125 C14.22 254.8125 -15.81 254.8125 -46.75 254.8125 Z " fill="#7454F2" transform="translate(94.75,212.1875)"/>
<path d="M0 0 C1.30177689 -0.02398109 1.30177689 -0.02398109 2.62985229 -0.04844666 C4.03921555 -0.05649071 4.03921555 -0.05649071 5.47705078 -0.06469727 C6.44136017 -0.07372574 7.40566956 -0.08275421 8.39920044 -0.09205627 C10.44188319 -0.10658124 12.48461269 -0.11545107 14.52734375 -0.11914062 C17.6533047 -0.13103102 20.7772884 -0.18018959 23.90283203 -0.23071289 C25.88589529 -0.24017742 27.86897071 -0.24741231 29.85205078 -0.25219727 C30.78757782 -0.27172958 31.72310486 -0.2912619 32.6869812 -0.31138611 C39.18626733 -0.26619862 39.18626733 -0.26619862 42.28515625 2.63745117 C42.78418457 3.51820312 43.28321289 4.39895508 43.79736328 5.30639648 C44.50376953 6.38276367 45.21017578 7.45913086 45.93798828 8.56811523 C46.64461536 9.70787854 47.34771232 10.84983759 48.04736328 11.99389648 C48.41087891 12.57461914 48.77439453 13.1553418 49.14892578 13.75366211 C51.79736328 18.05986218 51.79736328 18.05986218 51.79736328 20.30639648 C52.33683594 20.47365234 52.87630859 20.6409082 53.43212891 20.81323242 C57.56737749 22.1377209 61.56195657 23.58567724 65.51611328 25.38452148 C66.30373047 25.74030273 67.09134766 26.09608398 67.90283203 26.46264648 C69.50514337 27.19453421 71.10155578 27.93947023 72.69189453 28.69702148 C78.49697853 31.28128146 82.60694536 31.64645972 88.79736328 30.30639648 C89.4623584 30.16556641 90.12735352 30.02473633 90.8125 29.87963867 C93.96767513 29.17388629 97.10644622 28.40406671 100.24658203 27.63452148 C104.58959384 27.23318706 106.0719449 28.10853005 109.79736328 30.30639648 C111.81922392 32.0306193 113.69152987 33.73258593 115.56298828 35.60327148 C116.08246033 36.11513 116.60193237 36.62698853 117.137146 37.15435791 C118.2266135 38.23307881 119.31219838 39.31573388 120.39404297 40.40209961 C122.04292349 42.05195407 123.71199301 43.6793032 125.38330078 45.30639648 C126.44449555 46.36238441 127.50443508 47.41963559 128.56298828 48.47827148 C129.05881409 48.95770203 129.55463989 49.43713257 130.06549072 49.93109131 C133.50804819 53.4431407 134.90657965 56.49138728 135.79736328 61.30639648 C135.64135742 63.55053711 135.64135742 63.55053711 135.08251953 65.46264648 C134.89109375 66.17549805 134.69966797 66.88834961 134.50244141 67.62280273 C134.18436523 68.70368164 134.18436523 68.70368164 133.85986328 69.80639648 C130.75525003 80.5523953 133.47669551 87.54424264 137.85986328 97.61889648 C138.79128392 99.78035148 139.71982504 101.94305037 140.64501953 104.10717773 C141.0576001 105.05761963 141.47018066 106.00806152 141.89526367 106.98730469 C142.79736328 109.30639648 142.79736328 109.30639648 142.79736328 111.30639648 C143.82796875 111.67764648 143.82796875 111.67764648 144.87939453 112.05639648 C148.28000118 113.513149 151.35687947 115.3509638 154.48486328 117.30639648 C155.06558594 117.66217773 155.64630859 118.01795898 156.24462891 118.38452148 C158.66292858 119.88302857 160.77860897 121.28764217 162.79736328 123.30639648 C163.07151794 125.19039917 163.07151794 125.19039917 163.10375977 127.5090332 C163.11974716 128.37688446 163.13573456 129.24473572 163.15220642 130.1388855 C163.16025047 131.54824875 163.16025047 131.54824875 163.16845703 132.98608398 C163.1774855 133.95039337 163.18651398 134.91470276 163.19581604 135.90823364 C163.210341 137.95091639 163.21921083 139.9936459 163.22290039 142.03637695 C163.23479079 145.1623379 163.28394936 148.28632161 163.33447266 151.41186523 C163.34393718 153.3949285 163.35117208 155.37800391 163.35595703 157.36108398 C163.37548935 158.29661102 163.39502167 159.23213806 163.41514587 160.1960144 C163.36995839 166.69530054 163.36995839 166.69530054 160.46630859 169.79418945 C159.14518066 170.54273193 159.14518066 170.54273193 157.79736328 171.30639648 C156.72099609 172.01280273 155.64462891 172.71920898 154.53564453 173.44702148 C153.39588122 174.15364856 152.25392218 174.85674552 151.10986328 175.55639648 C150.52914063 175.91991211 149.94841797 176.28342773 149.35009766 176.65795898 C145.04389759 179.30639648 145.04389759 179.30639648 142.79736328 179.30639648 C142.63010742 179.84586914 142.46285156 180.3853418 142.29052734 180.94116211 C140.96603887 185.0764107 139.51808253 189.07098977 137.71923828 193.02514648 C137.36345703 193.81276367 137.00767578 194.60038086 136.64111328 195.41186523 C135.90922556 197.01417657 135.16428953 198.61058898 134.40673828 200.20092773 C131.82180549 206.00752308 131.45974971 210.11467581 132.79736328 216.30639648 C132.93819336 216.97670898 133.07902344 217.64702148 133.22412109 218.33764648 C133.92902988 221.52007893 134.70018639 224.68582047 135.46923828 227.85327148 C135.8685701 232.05576347 135.19381351 232.9114771 132.79736328 236.30639648 C130.89866461 238.41341632 128.99110157 240.44032149 126.99267578 242.44702148 C126.43168182 243.01467224 125.87068787 243.582323 125.29269409 244.16717529 C124.11019873 245.35975499 122.92501415 246.54967357 121.73730469 247.73706055 C119.92456625 249.55418818 118.12843886 251.38672565 116.33251953 253.22045898 C115.17855347 254.38029087 114.02363711 255.53917819 112.86767578 256.69702148 C112.33417511 257.24489319 111.80067444 257.79276489 111.25100708 258.35723877 C108.23581521 261.33608583 106.10532764 263.12697199 101.79736328 263.30639648 C99.78027344 263.03686523 99.78027344 263.03686523 97.83642578 262.49389648 C97.11712891 262.30569336 96.39783203 262.11749023 95.65673828 261.92358398 C94.17441226 261.51413029 92.69263321 261.10269092 91.21142578 260.68920898 C79.12637991 257.53846488 66.48349339 263.16616102 55.65039062 268.49731445 C49.0263604 272.69755953 45.65164792 279.54839859 42.63745117 286.58569336 C41.79736328 288.30639648 41.79736328 288.30639648 39.79736328 290.30639648 C37.9133606 290.58055115 37.9133606 290.58055115 35.59472656 290.61279297 C34.29294968 290.63677406 34.29294968 290.63677406 32.96487427 290.66123962 C31.55551102 290.66928368 31.55551102 290.66928368 30.11767578 290.67749023 C29.15336639 290.68651871 28.18905701 290.69554718 27.19552612 290.70484924 C25.15284338 290.71937421 23.11011387 290.72824404 21.06738281 290.73193359 C17.94142186 290.74382399 14.81743816 290.79298256 11.69189453 290.84350586 C9.70883127 290.85297038 7.72575586 290.86020528 5.74267578 290.86499023 C4.80714874 290.88452255 3.8716217 290.90405487 2.90774536 290.92417908 C-3.57819813 290.87908436 -3.57819813 290.87908436 -6.73608398 287.98291016 C-8.20263672 285.30639648 -8.20263672 285.30639648 -9.61279297 281.92358398 C-13.33957832 273.04172753 -18.21420638 269.15895135 -27.04418945 265.27954102 C-28.25147705 264.79340332 -29.45876465 264.30726563 -30.70263672 263.80639648 C-31.87834229 263.33186035 -33.05404785 262.85732422 -34.26538086 262.3684082 C-41.00002638 259.88160941 -46.18445134 258.59265354 -53.20263672 260.30639648 C-53.86779297 260.44819336 -54.53294922 260.58999023 -55.21826172 260.73608398 C-58.4077398 261.43220023 -61.57724095 262.20804936 -64.74951172 262.97827148 C-68.9520037 263.3776033 -69.80771734 262.70284671 -73.20263672 260.30639648 C-75.30965656 258.40769782 -77.33656172 256.50013478 -79.34326172 254.50170898 C-79.91091248 253.94071503 -80.47856323 253.37972107 -81.06341553 252.80172729 C-82.25599522 251.61923193 -83.4459138 250.43404736 -84.63330078 249.24633789 C-86.45042842 247.43359945 -88.28296589 245.63747207 -90.11669922 243.84155273 C-91.2765311 242.68758667 -92.43541843 241.53267031 -93.59326172 240.37670898 C-94.14113342 239.84320831 -94.68900513 239.30970764 -95.253479 238.76004028 C-98.23232606 235.74484841 -100.02321222 233.61436084 -100.20263672 229.30639648 C-99.93310547 227.28930664 -99.93310547 227.28930664 -99.39013672 225.34545898 C-99.20193359 224.62616211 -99.01373047 223.90686523 -98.81982422 223.16577148 C-98.41037053 221.68344546 -97.99893115 220.20166642 -97.58544922 218.72045898 C-94.43470512 206.63541311 -100.06240125 193.99252659 -105.39355469 183.15942383 C-109.59379976 176.53539361 -116.44463882 173.16068113 -123.48193359 170.14648438 C-125.20263672 169.30639648 -125.20263672 169.30639648 -127.20263672 167.30639648 C-127.47679138 165.4223938 -127.47679138 165.4223938 -127.5090332 163.10375977 C-127.5250206 162.23590851 -127.541008 161.36805725 -127.55747986 160.47390747 C-127.56284256 159.53433197 -127.56820526 158.59475647 -127.57373047 157.62670898 C-127.58275894 156.6623996 -127.59178741 155.69809021 -127.60108948 154.70455933 C-127.61561444 152.66187658 -127.62448427 150.61914707 -127.62817383 148.57641602 C-127.64006422 145.45045507 -127.6892228 142.32647136 -127.73974609 139.20092773 C-127.74921062 137.21786447 -127.75644551 135.23478906 -127.76123047 133.25170898 C-127.78076279 132.31618195 -127.8002951 131.38065491 -127.82041931 130.41677856 C-127.77523182 123.91749243 -127.77523182 123.91749243 -124.87158203 120.81860352 C-123.99083008 120.3195752 -123.11007813 119.82054688 -122.20263672 119.30639648 C-121.12626953 118.59999023 -120.04990234 117.89358398 -118.94091797 117.16577148 C-117.80115466 116.4591444 -116.65919561 115.75604745 -115.51513672 115.05639648 C-114.93441406 114.69288086 -114.35369141 114.32936523 -113.75537109 113.95483398 C-109.44917102 111.30639648 -109.44917102 111.30639648 -107.20263672 111.30639648 C-106.95175293 110.4971875 -106.95175293 110.4971875 -106.69580078 109.67163086 C-105.3713123 105.53638227 -103.92335597 101.5418032 -102.12451172 97.58764648 C-101.76873047 96.8000293 -101.41294922 96.01241211 -101.04638672 95.20092773 C-100.314499 93.5986164 -99.56956297 92.00220399 -98.81201172 90.41186523 C-96.22707893 84.60526988 -95.86502315 80.49811716 -97.20263672 74.30639648 C-97.3434668 73.63608398 -97.48429687 72.96577148 -97.62939453 72.27514648 C-98.33430332 69.09271403 -99.10545983 65.9269725 -99.87451172 62.75952148 C-100.27384354 58.5570295 -99.59908695 57.70131586 -97.20263672 54.30639648 C-95.30393805 52.19937665 -93.39637501 50.17247148 -91.39794922 48.16577148 C-90.83695526 47.59812073 -90.2759613 47.03046997 -89.69796753 46.44561768 C-88.51547216 45.25303798 -87.33028759 44.0631194 -86.14257812 42.87573242 C-84.32983969 41.05860479 -82.5337123 39.22606732 -80.73779297 37.39233398 C-79.58382691 36.2325021 -78.42891054 35.07361477 -77.27294922 33.91577148 C-76.73944855 33.36789978 -76.20594788 32.82002808 -75.65628052 32.2555542 C-72.63903695 29.27468018 -70.51226083 27.48469532 -66.20263672 27.30639648 C-64.07788086 27.57592773 -64.07788086 27.57592773 -61.98779297 28.11889648 C-60.8344043 28.40120117 -60.8344043 28.40120117 -59.65771484 28.68920898 C-58.06632501 29.09972261 -56.47517749 29.51117673 -54.88427734 29.92358398 C-54.1140625 30.11178711 -53.34384766 30.29999023 -52.55029297 30.49389648 C-51.85943604 30.67307617 -51.1685791 30.85225586 -50.45678711 31.03686523 C-45.38802206 31.64294307 -41.03100449 29.99828959 -36.43701172 28.02124023 C-35.38255859 27.57329102 -34.32810547 27.1253418 -33.24169922 26.66381836 C-31.61361328 25.96095703 -31.61361328 25.96095703 -29.95263672 25.24389648 C-27.78209668 24.31239423 -25.61028423 23.38384948 -23.43701172 22.45874023 C-22.48020508 22.04615967 -21.52339844 21.6335791 -20.53759766 21.20849609 C-18.20263672 20.30639648 -18.20263672 20.30639648 -16.20263672 20.30639648 C-15.83138672 19.27579102 -15.83138672 19.27579102 -15.45263672 18.22436523 C-13.9958842 14.82375858 -12.1580694 11.74688029 -10.20263672 8.61889648 C-9.84685547 8.03817383 -9.49107422 7.45745117 -9.12451172 6.85913086 C-4.91659381 0.06836781 -4.91659381 0.06836781 0 0 Z M-0.84863281 21.60180664 C-1.65331136 23.20913246 -2.42699254 24.83359135 -3.13085938 26.48754883 C-7.01107682 34.59818385 -16.33494374 36.73275411 -24.20263672 39.74389648 C-25.77645807 40.37118875 -27.34938601 41.00072739 -28.92138672 41.63256836 C-44.42702469 47.79677076 -44.42702469 47.79677076 -48.21289062 46.7512207 C-48.86177246 46.45747559 -49.5106543 46.16373047 -50.17919922 45.86108398 C-55.20482412 43.94909649 -59.79022094 42.48079032 -65.20263672 43.30639648 C-73.21562924 47.24808075 -80.23531526 54.30909665 -84.20263672 62.30639648 C-84.98714842 67.393006 -83.48941658 71.51256198 -81.55029297 76.15795898 C-79.64004718 81.07495584 -80.56400513 84.40975867 -82.20263672 89.30639648 C-82.57283936 90.44125488 -82.94304199 91.57611328 -83.32446289 92.74536133 C-84.68520474 96.7722894 -86.19744243 100.73099245 -87.76513672 104.68139648 C-88.04054291 105.3844693 -88.3159491 106.08754211 -88.59970093 106.81192017 C-92.1863414 115.75888481 -95.31258907 121.95716338 -104.51513672 125.99389648 C-107.61112461 127.39471302 -110.02022052 128.66262265 -112.20263672 131.30639648 C-115.24285414 140.09876917 -115.23971633 150.51277032 -112.20263672 159.30639648 C-109.53714253 162.46164814 -106.0781627 163.6953733 -102.34814453 165.28027344 C-93.05406825 170.01286938 -90.25872675 179.30986141 -86.57763672 188.49389648 C-86.24472626 189.30383057 -85.9118158 190.11376465 -85.56881714 190.94824219 C-84.61245481 193.30080967 -83.69202379 195.66352268 -82.78857422 198.03686523 C-82.50924545 198.74812057 -82.22991669 199.45937592 -81.94212341 200.19218445 C-79.71303882 206.3963992 -79.87825897 211.34837695 -82.62451172 217.48217773 C-84.23663355 221.28963017 -85.21476771 224.27153766 -84.20263672 228.30639648 C-79.85441778 236.04395088 -73.07467259 243.14620613 -65.20263672 247.30639648 C-59.51539719 248.2584168 -54.41431458 246.35633942 -49.34814453 243.86157227 C-43.72742914 242.407145 -37.9263662 244.87975919 -32.68701172 246.86889648 C-31.99307312 247.13233353 -31.29913452 247.39577057 -30.58416748 247.66719055 C-28.36521187 248.52721553 -26.15751169 249.41091358 -23.95263672 250.30639648 C-23.20618896 250.60830902 -22.45974121 250.91022156 -21.69067383 251.22128296 C-10.38979571 255.89823069 -2.89635637 260.51414709 2.45361328 271.98217773 C3.11876953 273.62766602 3.11876953 273.62766602 3.79736328 275.30639648 C6.50356773 278.01260093 13.79978157 276.88300113 17.42236328 276.99389648 C18.59927734 277.07317383 19.77619141 277.15245117 20.98876953 277.23413086 C27.552146 277.47988185 27.552146 277.47988185 33.01904297 274.31274414 C35.26773595 271.13105687 37.03946628 267.79193775 38.80845642 264.3245697 C41.91618384 258.7373894 44.99772509 256.52413365 50.87939453 254.20874023 C51.65240402 253.88474747 52.42541351 253.5607547 53.22184753 253.22694397 C54.84821408 252.55218588 56.47975153 251.88977009 58.1159668 251.23925781 C60.60597702 250.24544757 63.0732045 249.20631782 65.54150391 248.15991211 C67.13216104 247.50673898 68.72392589 246.8562556 70.31689453 246.20874023 C71.04737503 245.9005687 71.77785553 245.59239716 72.5304718 245.27488708 C77.76004766 243.23532594 81.28964271 243.14994378 86.79736328 244.30639648 C87.84537109 244.77561523 88.89337891 245.24483398 89.97314453 245.72827148 C93.78059697 247.34039331 96.76250446 248.31852747 100.79736328 247.30639648 C108.53491768 242.95817754 115.63717293 236.17843235 119.79736328 228.30639648 C120.74938359 222.61915696 118.84730622 217.51807435 116.35253906 212.4519043 C114.26124167 204.36996871 119.78582575 194.49822733 122.79736328 187.05639648 C123.09894348 186.30097565 123.40052368 185.54555481 123.71124268 184.76724243 C127.52724596 175.40335746 130.45493408 168.6905739 140.17236328 164.49389648 C143.239631 163.13171849 145.63239776 161.91090294 147.79736328 159.30639648 C150.83416563 150.51220158 150.83475633 140.1009302 147.79736328 131.30639648 C145.1318691 128.15114483 141.67288926 126.91741967 137.94287109 125.33251953 C128.64879481 120.59992359 125.85345332 111.30293156 122.17236328 102.11889648 C121.83945282 101.3089624 121.50654236 100.49902832 121.1635437 99.66455078 C120.20718137 97.3119833 119.28675035 94.94927029 118.38330078 92.57592773 C117.96430763 91.50904472 117.96430763 91.50904472 117.53684998 90.42060852 C115.30776539 84.21639376 115.47298553 79.26441602 118.21923828 73.13061523 C119.83037015 69.32550084 120.78479383 66.34083366 119.79736328 62.30639648 C115.54616915 54.47816032 108.79042913 47.32245872 100.79736328 43.30639648 C96.23343038 42.80112248 92.37570518 44.18210657 88.08081055 45.59863281 C76.90270767 48.93105028 67.76588089 43.58496306 57.76879883 38.68676758 C54.70891484 37.26530804 51.60970506 36.15171217 48.43798828 35.00561523 C42.34307141 32.49822215 39.72362225 29.22908179 36.60986328 23.55639648 C36.14773438 22.77651367 35.68560547 21.99663086 35.20947266 21.19311523 C34.36761797 19.77148104 33.53935239 18.34163522 32.73022461 16.90112305 C31.89608596 15.3206806 31.89608596 15.3206806 30.79736328 14.30639648 C26.60129561 13.82830375 22.39126223 13.74804645 18.17236328 13.61889648 C16.40699219 13.49998047 16.40699219 13.49998047 14.60595703 13.37866211 C6.43424172 13.18103345 3.32009544 14.53014814 -0.84863281 21.60180664 Z " fill="#378AE0" transform="translate(238.20263671875,7.693603515625)"/>
<path d="M0 0 C17.22379525 13.81197788 31.54629632 33.93976049 34.36328125 56.44677734 C36.67086635 81.67750564 32.42141584 105.20985932 16.26831055 125.296875 C15.0520045 126.75560711 13.80792889 128.19105208 12.5625 129.625 C11.59376953 130.74455078 11.59376953 130.74455078 10.60546875 131.88671875 C-3.01036177 146.47715609 -23.87547158 156.69138642 -43.81640625 157.75146484 C-70.49020757 158.54101741 -93.29050581 152.48067777 -113.16015625 133.875 C-129.43089557 118.15797694 -139.31065746 97.14089395 -139.73046875 74.42797852 C-139.89655188 47.93564252 -132.00559358 26.91810067 -113.75 7.4375 C-82.99752117 -22.22007633 -34.30611865 -24.78639007 0 0 Z M-103.4375 19.625 C-104.05882812 20.16382812 -104.68015625 20.70265625 -105.3203125 21.2578125 C-116.28854635 31.04560863 -123.72710421 48.26632459 -124.56298828 62.80810547 C-125.40038331 83.81872548 -120.91374371 102.72891149 -106.4375 118.625 C-105.76074219 119.38167969 -105.08398438 120.13835937 -104.38671875 120.91796875 C-91.43691939 134.64981638 -73.95385082 142.40213527 -55.1550293 143.0300293 C-35.90020025 143.27119064 -17.36029345 137.26319449 -3.39086914 123.68212891 C-2.06040371 122.34222102 -0.74831389 120.98413882 0.5625 119.625 C1.22636719 118.99207031 1.89023437 118.35914063 2.57421875 117.70703125 C14.42781883 105.64033274 19.86333107 87.11867669 20.0625 70.625 C19.83183786 51.52329163 12.77862481 33.66403868 -0.796875 20.16796875 C-1.66828125 19.32878906 -2.5396875 18.48960938 -3.4375 17.625 C-4.08203125 16.96113281 -4.7265625 16.29726562 -5.390625 15.61328125 C-18.80748098 2.63393144 -37.16140531 -2.04135529 -55.30712891 -1.84375 C-74.25399395 -1.21426426 -90.13178779 6.31928779 -103.4375 19.625 Z " fill="#3789E0" transform="translate(308.4375,82.375)"/>
<path d="M0 0 C9.22801678 8.30356429 15.26616166 19.76968961 16.25 32.14453125 C16.74731559 46.24031986 12.63180773 58.44512265 3.19140625 69.02734375 C-7.02448223 78.73349975 -19.58013968 82.55857385 -33.34375 82.30859375 C-45.36472644 81.29400279 -56.48034068 76.08223443 -64.8125 67.3125 C-74.05041499 55.87613889 -77.232 43.42979995 -76 29 C-73.31518906 15.56069071 -67.11686181 5.09371522 -56 -3 C-52.43823086 -5.03105055 -48.85323733 -6.60839077 -45 -8 C-44.01966797 -8.36738281 -44.01966797 -8.36738281 -43.01953125 -8.7421875 C-28.47055182 -13.2712941 -11.86606508 -9.09799501 0 0 Z M-55 17 C-60.34273331 25.49226821 -62.57733726 33.8467253 -60.38671875 43.78125 C-57.83698084 51.77866584 -53.58348576 58.1232777 -46.3984375 62.6328125 C-37.46697326 67.24345038 -29.19278938 68.61018355 -19.4375 65.5 C-10.45643402 61.8669238 -4.87712429 56.02372936 -0.875 47.296875 C2.30079613 38.96041015 1.70925162 30.8988318 -1.6171875 22.67578125 C-6.53238393 13.16473731 -14.06725523 8.31091492 -24 5 C-36.75392148 3.81584595 -46.52638402 7.20603755 -55 17 Z " fill="#378AE0" transform="translate(286,117)"/>
</svg>
