<?xml version="1.0" encoding="UTF-8"?>
<svg version="1.1" xmlns="http://www.w3.org/2000/svg" width="512" height="512">
<path d="M0 0 C24.76140847 21.60442398 38.26826419 51.29604386 41.35546875 83.78125 C41.36924561 84.88138428 41.38302246 85.98151855 41.3972168 87.11499023 C41.63172325 98.05453593 44.90436064 105.90785781 49.66796875 115.59375 C50.35456435 117.02947711 51.03882054 118.46632539 51.72070312 119.90429688 C52.70886667 121.98755603 53.69804672 124.07016014 54.6960144 126.14874268 C60.69519015 138.67641606 64.80244894 149.71261555 60.26171875 163.4609375 C57.2117573 171.26989053 51.26802226 176.58365482 43.8046875 180.1171875 C42.22289853 180.80946508 40.63552523 181.4891155 39.04296875 182.15625 C38.23279297 182.51074219 37.42261719 182.86523438 36.58789062 183.23046875 C30.67382058 185.78125 30.67382058 185.78125 28.35546875 185.78125 C28.36594238 186.53631836 28.37641602 187.29138672 28.38720703 188.06933594 C28.42929293 191.55660549 28.45495987 195.0438213 28.48046875 198.53125 C28.49722656 199.71847656 28.51398438 200.90570313 28.53125 202.12890625 C28.65734767 225.20477941 28.65734767 225.20477941 20.5625 233.65234375 C14.1034062 239.66167473 8.30750603 242.27503542 -0.546875 242.07421875 C-1.18854614 242.07119751 -1.83021729 242.06817627 -2.49133301 242.06506348 C-4.85506614 242.04953928 -7.21856736 242.00765712 -9.58203125 241.96875 C-14.88265625 241.906875 -20.18328125 241.845 -25.64453125 241.78125 C-25.64453125 254.65125 -25.64453125 267.52125 -25.64453125 280.78125 C-45.11453125 280.78125 -64.58453125 280.78125 -84.64453125 280.78125 C-84.64453125 278.47125 -84.64453125 276.16125 -84.64453125 273.78125 C-89.26453125 273.78125 -93.88453125 273.78125 -98.64453125 273.78125 C-98.64453125 276.09125 -98.64453125 278.40125 -98.64453125 280.78125 C-118.11453125 280.78125 -137.58453125 280.78125 -157.64453125 280.78125 C-158.01953125 263.21875 -158.01953125 263.21875 -158.12255859 257.77905273 C-158.64613748 234.24221466 -162.27247234 214.62870573 -179.76953125 197.65625 C-198.04217823 179.88552428 -211.07807235 158.49522407 -217.64453125 133.78125 C-217.98226562 132.55921875 -218.32 131.3371875 -218.66796875 130.078125 C-223.11644647 110.243628 -222.84865272 85.40162732 -217.64453125 65.78125 C-217.47824219 65.10465332 -217.31195313 64.42805664 -217.140625 63.73095703 C-211.87187723 42.41692092 -201.81187306 24.64982166 -186.64453125 8.78125 C-185.93296875 7.98332031 -185.22140625 7.18539062 -184.48828125 6.36328125 C-168.32670394 -11.04362308 -146.23896887 -20.43654704 -123.64453125 -26.21875 C-122.96213379 -26.39954102 -122.27973633 -26.58033203 -121.57666016 -26.76660156 C-80.36563613 -37.18064079 -32.38602475 -27.17173126 0 0 Z " fill="#F9F0DF" transform="translate(220.64453125,231.21875)"/>
<path d="M0 0 C2.37823785 0.00315159 4.75521619 -0.02036597 7.13330078 -0.0456543 C21.19790331 -0.10463547 34.67439894 1.8392097 48.14501953 6.00317383 C48.97332275 6.25736084 49.80162598 6.51154785 50.6550293 6.7734375 C69.00911178 12.6297062 84.23519165 21.97220702 98.14501953 35.31567383 C98.97775391 36.08524414 99.81048828 36.85481445 100.66845703 37.64770508 C121.27152945 57.26816943 133.92865073 87.5873155 135.32202148 115.9140625 C135.86562931 149.7975065 135.86562931 149.7975065 131.14501953 166.31567383 C130.81759766 167.56864258 130.49017578 168.82161133 130.15283203 170.11254883 C123.09086226 194.1335555 108.1052136 213.37903912 90.66455078 230.79223633 C69.37903551 252.70056358 72.91448021 281.07616819 72.14501953 310.31567383 C28.58501953 310.31567383 -14.97498047 310.31567383 -59.85498047 310.31567383 C-59.85498047 297.44567383 -59.85498047 284.57567383 -59.85498047 271.31567383 C-70.26556995 271.51242047 -70.26556995 271.51242047 -80.67480469 271.76611328 C-90.17406067 271.85632188 -97.75240402 271.0608121 -104.98095703 264.33862305 C-114.81107747 254.03951842 -114.00983601 241.61631058 -113.91748047 228.25317383 C-113.91296875 227.00600586 -113.90845703 225.75883789 -113.90380859 224.47387695 C-113.8921121 221.42109162 -113.87572133 218.36840885 -113.85498047 215.31567383 C-114.42200684 215.13609131 -114.9890332 214.95650879 -115.57324219 214.77148438 C-127.23959536 210.99363396 -138.68177833 206.67393837 -144.89794922 195.42895508 C-149.03718031 186.47033755 -148.43988108 177.57624937 -145.85498047 168.31567383 C-144.79167203 165.45611122 -143.53607947 162.71218982 -142.22998047 159.95629883 C-141.70863525 158.82789581 -141.70863525 158.82789581 -141.17675781 157.67669678 C-140.07778727 155.30239978 -138.96684907 152.93395394 -137.85498047 150.56567383 C-136.74581426 148.18193098 -135.63913695 145.7970482 -134.53320312 143.4118042 C-133.84783264 141.93593019 -133.16012828 140.46113701 -132.46972656 138.98760986 C-128.85874466 131.46407037 -128.85874466 131.46407037 -127.39794922 123.31567383 C-127.34026367 122.35653076 -127.28257812 121.3973877 -127.22314453 120.40917969 C-127.16352539 119.38832275 -127.10390625 118.36746582 -127.04248047 117.31567383 C-125.41737321 94.73045423 -119.03796242 74.93552086 -107.85498047 55.31567383 C-102.10498047 57.19067383 -102.10498047 57.19067383 -99.85498047 58.31567383 C-99.60748047 57.59379883 -99.35998047 56.87192383 -99.10498047 56.12817383 C-97.85498047 53.31567383 -97.85498047 53.31567383 -95.66748047 50.69067383 C-95.06935547 49.90692383 -94.47123047 49.12317383 -93.85498047 48.31567383 C-94.6064807 45.03793879 -94.6064807 45.03793879 -97.85498047 43.31567383 C-90.81216107 26.95695575 -67.97293032 15.85833855 -52.61181641 9.39526367 C-35.52230056 2.70292936 -18.2731803 -0.0503959 0 0 Z " fill="#F4D7AC" transform="translate(376.85498046875,-0.315673828125)"/>
<path d="M0 0 C24.76140847 21.60442398 38.26826419 51.29604386 41.35546875 83.78125 C41.36924561 84.88138428 41.38302246 85.98151855 41.3972168 87.11499023 C41.63172325 98.05453593 44.90436064 105.90785781 49.66796875 115.59375 C50.35456435 117.02947711 51.03882054 118.46632539 51.72070312 119.90429688 C52.70886667 121.98755603 53.69804672 124.07016014 54.6960144 126.14874268 C60.69519015 138.67641606 64.80244894 149.71261555 60.26171875 163.4609375 C57.2117573 171.26989053 51.26802226 176.58365482 43.8046875 180.1171875 C42.22289853 180.80946508 40.63552523 181.4891155 39.04296875 182.15625 C38.23279297 182.51074219 37.42261719 182.86523438 36.58789062 183.23046875 C30.67382058 185.78125 30.67382058 185.78125 28.35546875 185.78125 C28.36594238 186.53631836 28.37641602 187.29138672 28.38720703 188.06933594 C28.42929293 191.55660549 28.45495987 195.0438213 28.48046875 198.53125 C28.49722656 199.71847656 28.51398438 200.90570313 28.53125 202.12890625 C28.65734767 225.20477941 28.65734767 225.20477941 20.5625 233.65234375 C14.1034062 239.66167473 8.30750603 242.27503542 -0.546875 242.07421875 C-1.18854614 242.07119751 -1.83021729 242.06817627 -2.49133301 242.06506348 C-4.85506614 242.04953928 -7.21856736 242.00765712 -9.58203125 241.96875 C-14.88265625 241.906875 -20.18328125 241.845 -25.64453125 241.78125 C-25.64453125 254.65125 -25.64453125 267.52125 -25.64453125 280.78125 C-45.11453125 280.78125 -64.58453125 280.78125 -84.64453125 280.78125 C-84.64453125 275.83125 -84.64453125 270.88125 -84.64453125 265.78125 C-70.12453125 265.78125 -55.60453125 265.78125 -40.64453125 265.78125 C-40.64453125 252.91125 -40.64453125 240.04125 -40.64453125 226.78125 C-37.52628906 226.74386719 -34.40804687 226.70648438 -31.1953125 226.66796875 C-28.17025803 226.6217376 -25.14532651 226.57050965 -22.12036133 226.51879883 C-20.02050264 226.48557578 -17.92055522 226.4575357 -15.82055664 226.43481445 C-12.79925781 226.40122064 -9.77877024 226.34890166 -6.7578125 226.29296875 C-5.35285271 226.28338387 -5.35285271 226.28338387 -3.91950989 226.27360535 C2.72926736 226.12673961 2.72926736 226.12673961 8.35546875 222.78125 C12.1500951 218.33749453 11.91363471 213.46336792 12.0859375 207.88671875 C12.14615837 206.46568596 12.14615837 206.46568596 12.20759583 205.01594543 C12.33239884 202.00056964 12.43793682 198.9848728 12.54296875 195.96875 C12.62438009 193.91987098 12.70704806 191.87104148 12.79101562 189.82226562 C12.99373374 184.80905093 13.17918172 179.79546089 13.35546875 174.78125 C14.11690186 174.47421143 14.87833496 174.16717285 15.6628418 173.85083008 C19.12833507 172.44482995 22.58557203 171.01953721 26.04296875 169.59375 C27.84024414 168.86961914 27.84024414 168.86961914 29.67382812 168.13085938 C30.83076172 167.65068359 31.98769531 167.17050781 33.1796875 166.67578125 C34.7742981 166.02379761 34.7742981 166.02379761 36.40112305 165.35864258 C40.75193563 163.03564447 43.77784955 160.5141076 45.35546875 155.78125 C47.16594469 146.03301562 42.19749244 137.71633717 38.10546875 129.21875 C37.41489503 127.75148356 36.72607926 126.2833884 36.0390625 124.81445312 C32.57501736 117.4058825 32.57501736 117.4058825 28.99829102 110.05151367 C26.55265647 104.98473627 25.81488349 100.82203555 25.79296875 95.21875 C25.52105851 86.47669941 24.265962 78.30498911 22.35546875 69.78125 C22.10152344 68.57210937 21.84757813 67.36296875 21.5859375 66.1171875 C18.06264229 51.09089651 11.27279231 36.6435244 1.35546875 24.78125 C0.68128906 23.9459375 0.00710937 23.110625 -0.6875 22.25 C-18.59358126 1.11495327 -46.07059551 -10.79349351 -73.38720703 -13.06933594 C-107.165962 -15.30517825 -141.90575088 -9.28888288 -168.1328125 13.48828125 C-168.96167969 14.24496094 -169.79054687 15.00164062 -170.64453125 15.78125 C-171.90330078 16.90080078 -171.90330078 16.90080078 -173.1875 18.04296875 C-193.68726402 37.27142958 -203.84597469 65.590593 -204.96875 93.234375 C-205.49646724 115.02288854 -202.06744423 133.153756 -192.64453125 152.78125 C-192.13792969 153.84085938 -191.63132813 154.90046875 -191.109375 155.9921875 C-184.14885485 169.5254551 -173.68519322 180.52566468 -163.16015625 191.33203125 C-146.66527576 208.70853466 -142.43383065 228.53166419 -142.58203125 251.84375 C-142.60265625 256.443125 -142.62328125 261.0425 -142.64453125 265.78125 C-128.45453125 265.78125 -114.26453125 265.78125 -99.64453125 265.78125 C-99.14953125 273.20625 -99.14953125 273.20625 -98.64453125 280.78125 C-118.11453125 280.78125 -137.58453125 280.78125 -157.64453125 280.78125 C-158.01953125 263.21875 -158.01953125 263.21875 -158.12255859 257.77905273 C-158.64613748 234.24221466 -162.27247234 214.62870573 -179.76953125 197.65625 C-198.04217823 179.88552428 -211.07807235 158.49522407 -217.64453125 133.78125 C-217.98226562 132.55921875 -218.32 131.3371875 -218.66796875 130.078125 C-223.11644647 110.243628 -222.84865272 85.40162732 -217.64453125 65.78125 C-217.47824219 65.10465332 -217.31195313 64.42805664 -217.140625 63.73095703 C-211.87187723 42.41692092 -201.81187306 24.64982166 -186.64453125 8.78125 C-185.93296875 7.98332031 -185.22140625 7.18539062 -184.48828125 6.36328125 C-168.32670394 -11.04362308 -146.23896887 -20.43654704 -123.64453125 -26.21875 C-122.96213379 -26.39954102 -122.27973633 -26.58033203 -121.57666016 -26.76660156 C-80.36563613 -37.18064079 -32.38602475 -27.17173126 0 0 Z " fill="#010101" transform="translate(220.64453125,231.21875)"/>
<path d="M0 0 C2.37823785 0.00315159 4.75521619 -0.02036597 7.13330078 -0.0456543 C21.19790331 -0.10463547 34.67439894 1.8392097 48.14501953 6.00317383 C48.97332275 6.25736084 49.80162598 6.51154785 50.6550293 6.7734375 C69.00911178 12.6297062 84.23519165 21.97220702 98.14501953 35.31567383 C98.97775391 36.08524414 99.81048828 36.85481445 100.66845703 37.64770508 C121.27152945 57.26816943 133.92865073 87.5873155 135.32202148 115.9140625 C135.86562931 149.7975065 135.86562931 149.7975065 131.14501953 166.31567383 C130.81759766 167.56864258 130.49017578 168.82161133 130.15283203 170.11254883 C123.09086226 194.1335555 108.1052136 213.37903912 90.66455078 230.79223633 C69.37903551 252.70056358 72.91448021 281.07616819 72.14501953 310.31567383 C28.58501953 310.31567383 -14.97498047 310.31567383 -59.85498047 310.31567383 C-59.85498047 297.44567383 -59.85498047 284.57567383 -59.85498047 271.31567383 C-70.26556995 271.51242047 -70.26556995 271.51242047 -80.67480469 271.76611328 C-90.17406067 271.85632188 -97.75240402 271.0608121 -104.98095703 264.33862305 C-114.81107747 254.03951842 -114.00983601 241.61631058 -113.91748047 228.25317383 C-113.91296875 227.00600586 -113.90845703 225.75883789 -113.90380859 224.47387695 C-113.8921121 221.42109162 -113.87572133 218.36840885 -113.85498047 215.31567383 C-114.42200684 215.13609131 -114.9890332 214.95650879 -115.57324219 214.77148438 C-127.23959536 210.99363396 -138.68177833 206.67393837 -144.89794922 195.42895508 C-149.03718031 186.47033755 -148.43988108 177.57624937 -145.85498047 168.31567383 C-144.79167203 165.45611122 -143.53607947 162.71218982 -142.22998047 159.95629883 C-141.70863525 158.82789581 -141.70863525 158.82789581 -141.17675781 157.67669678 C-140.07778727 155.30239978 -138.96684907 152.93395394 -137.85498047 150.56567383 C-136.74581426 148.18193098 -135.63913695 145.7970482 -134.53320312 143.4118042 C-133.84783264 141.93593019 -133.16012828 140.46113701 -132.46972656 138.98760986 C-128.85874466 131.46407037 -128.85874466 131.46407037 -127.39794922 123.31567383 C-127.34026367 122.35653076 -127.28257812 121.3973877 -127.22314453 120.40917969 C-127.16352539 119.38832275 -127.10390625 118.36746582 -127.04248047 117.31567383 C-125.41737321 94.73045423 -119.03796242 74.93552086 -107.85498047 55.31567383 C-104.91748047 56.12817383 -104.91748047 56.12817383 -101.85498047 57.31567383 C-101.52498047 58.30567383 -101.19498047 59.29567383 -100.85498047 60.31567383 C-100.02998047 60.64567383 -99.20498047 60.97567383 -98.35498047 61.31567383 C-97.52998047 61.64567383 -96.70498047 61.97567383 -95.85498047 62.31567383 C-94.85498047 65.31567383 -94.85498047 65.31567383 -95.50415039 67.1940918 C-95.860979 67.89163574 -96.21780762 68.58917969 -96.58544922 69.30786133 C-97.16915283 70.47828979 -97.16915283 70.47828979 -97.76464844 71.67236328 C-98.18633301 72.50340576 -98.60801758 73.33444824 -99.04248047 74.19067383 C-106.40372143 89.31928343 -110.91405748 105.42710641 -110.84179688 122.41503906 C-110.95647676 134.08928056 -115.80991346 143.19614015 -120.85498047 153.50317383 C-121.71129306 155.29186162 -122.56547637 157.0815704 -123.41748047 158.87231445 C-124.61179228 161.38157311 -125.80897484 163.88890802 -127.02294922 166.38871765 C-127.55855469 167.49181023 -127.55855469 167.49181023 -128.10498047 168.6171875 C-128.41951172 169.26112961 -128.73404297 169.90507172 -129.05810547 170.56852722 C-130.55264806 173.84530843 -131.03929132 176.56453732 -131.10498047 180.12817383 C-131.13076172 180.95961914 -131.15654297 181.79106445 -131.18310547 182.64770508 C-130.75174688 186.15506124 -129.77902024 188.34543743 -127.85498047 191.31567383 C-125.02044497 193.3335676 -125.02044497 193.3335676 -121.60498047 194.81567383 C-120.50669922 195.34161133 -119.40841797 195.86754883 -118.27685547 196.40942383 C-111.88853447 199.2429009 -105.35292511 201.74686611 -98.85498047 204.31567383 C-98.8153418 205.58685059 -98.77570313 206.85802734 -98.73486328 208.16772461 C-98.58234376 212.89849059 -98.40497696 217.62805861 -98.22021484 222.35766602 C-98.14380245 224.4020212 -98.07406737 226.44663761 -98.01123047 228.49145508 C-97.91955863 231.43641301 -97.80364589 234.37958578 -97.68310547 237.32348633 C-97.66000305 238.23309113 -97.63690063 239.14269592 -97.61309814 240.0798645 C-97.35858856 245.59051943 -96.56612297 248.97073539 -92.85498047 253.31567383 C-89.72923754 255.39950245 -88.95045492 255.57457342 -85.38354492 255.63452148 C-84.48283768 255.65439117 -83.58213043 255.67426086 -82.65412903 255.69473267 C-81.68529282 255.70628387 -80.7164566 255.71783508 -79.71826172 255.72973633 C-78.72368454 255.74910248 -77.72910736 255.76846863 -76.70439148 255.78842163 C-73.52550857 255.84823542 -70.34658949 255.89461022 -67.16748047 255.94067383 C-65.01316774 255.97885193 -62.8588703 256.01790356 -60.70458984 256.05786133 C-55.42146596 256.15558385 -50.13850638 256.23513874 -44.85498047 256.31567383 C-44.85498047 269.18567383 -44.85498047 282.05567383 -44.85498047 295.31567383 C-11.19498047 295.31567383 22.46501953 295.31567383 57.14501953 295.31567383 C57.14501953 285.74567383 57.14501953 276.17567383 57.14501953 266.31567383 C60.49131993 244.56472124 68.59478592 230.25230425 83.65185547 214.76586914 C98.88907272 199.0184553 110.44869815 180.66999938 116.14501953 159.31567383 C116.44279297 158.21223633 116.74056641 157.10879883 117.04736328 155.97192383 C122.9886503 129.9069227 119.80387548 100.38074829 108.14501953 76.31567383 C107.68353516 75.35016602 107.22205078 74.3846582 106.74658203 73.38989258 C95.30029837 51.03485792 76.36843304 34.48487309 53.14501953 25.31567383 C52.18184814 24.92919678 52.18184814 24.92919678 51.19921875 24.53491211 C19.39714546 12.03288709 -18.42787385 12.87673257 -49.81640625 26.14477539 C-61.62215513 31.3707217 -71.32726611 38.60412845 -80.66357422 47.43286133 C-82.85498047 49.31567383 -82.85498047 49.31567383 -86.85498047 51.31567383 C-90.48498047 48.67567383 -94.11498047 46.03567383 -97.85498047 43.31567383 C-88.89965367 25.40502024 -65.01999749 13.67163611 -47.07470703 7.33374023 C-31.49052813 2.25146577 -16.36123932 -0.04512293 0 0 Z " fill="#010100" transform="translate(376.85498046875,-0.315673828125)"/>
<path d="M0 0 C10.63688833 7.16590372 16.88872636 16.15721024 20.2265625 28.5 C20.40960938 29.12132812 20.59265625 29.74265625 20.78125 30.3828125 C23.42307092 42.94304882 19.58729156 54.68687254 12.8671875 65.2421875 C9.77221796 69.5014551 6.46656871 73.5609581 1.54296875 75.625 C-0.91195979 77.21446904 -0.91195979 77.21446904 -1.18579102 79.35571289 C-1.31362367 81.76615901 -1.31041492 84.14903006 -1.2734375 86.5625 C-1.43126628 94.06148094 -1.68803064 100.53121261 -6.7734375 106.5 C-13.15002445 111.91450541 -18.60672874 113.883136 -26.921875 113.7734375 C-33.76769592 113.11698892 -38.11645939 109.70152423 -42.44921875 104.57421875 C-46.57132151 98.11747373 -47.18392737 93.08126086 -46.9609375 85.5625 C-46.94740234 84.68787109 -46.93386719 83.81324219 -46.91992188 82.91210938 C-46.88487859 80.77446914 -46.83108291 78.63715016 -46.7734375 76.5 C-47.87558594 76.12101562 -47.87558594 76.12101562 -49 75.734375 C-57.87339626 71.78508878 -62.39136198 63.23840419 -66.4609375 54.9296875 C-70.78177768 43.63892061 -70.10349331 30.40119533 -65.3203125 19.4375 C-58.81661062 7.08703583 -48.5911141 -1.22744113 -35.421875 -5.6171875 C-23.00870961 -8.62080139 -10.85882785 -6.44622996 0 0 Z " fill="#040303" transform="translate(153.7734375,283.5)"/>
<path d="M0 0 C11.24734904 7.37250014 18.60671131 17.57215494 22.25 30.4921875 C23.51506136 44.9828903 21.12372482 56.87965872 12.25 68.4921875 C8.5940716 72.81707301 5.64232162 75.56898747 0.25 77.4921875 C0.30800781 78.74773437 0.36601562 80.00328125 0.42578125 81.296875 C0.75991815 91.56082272 1.01862033 100.01041356 -6.171875 108.08984375 C-11.87016943 113.3439163 -18.32249478 115.2046464 -25.90234375 114.96484375 C-31.80561562 113.98501399 -36.6633141 111.03938339 -40.44921875 106.41796875 C-43.2140411 102.13209801 -44.89483801 98.4557059 -44.75 93.2890625 C-44.34079217 84.15898341 -44.34079217 84.15898341 -47.5703125 76 C-49.85362115 74.329457 -49.85362115 74.329457 -52.33203125 72.9453125 C-60.33033323 68.13857852 -64.42338426 58.28025313 -67 49.6796875 C-69.59297361 37.90618569 -67.42933877 25.96410082 -61.25 15.68359375 C-47.34492621 -4.63084999 -22.17814528 -12.16017625 0 0 Z " fill="#030302" transform="translate(404.75,80.5078125)"/>
<path d="M0 0 C0 0.66 0 1.32 0 2 C-1.43359375 3.41015625 -1.43359375 3.41015625 -3.4375 5.0625 C-27.09678513 25.35376739 -38.62041205 51.17759284 -43.75 81.5 C-43.86593506 82.17369629 -43.98187012 82.84739258 -44.10131836 83.54150391 C-44.69134267 87.43395673 -45.02296962 91.21333263 -45.00439453 95.1496582 C-45.06153758 108.18951274 -48.55999167 117.63903528 -54.375 129.1875 C-55.55646019 131.61366096 -56.72863977 134.04415019 -57.90005493 136.47517395 C-58.62325394 137.96729867 -59.35394553 139.45582698 -60.09384155 140.93974304 C-62.37651951 145.53925076 -64.26507066 150.16582212 -66 155 C-63.03 155.99 -60.06 156.98 -57 158 C-49.08 161.3 -41.16 164.6 -33 168 C-33 188.13 -33 208.26 -33 229 C-15.18 229 2.64 229 21 229 C21 242.2 21 255.4 21 269 C16.05 269 11.1 269 6 269 C6 256.13 6 243.26 6 230 C2.82117188 230.05800781 -0.35765625 230.11601562 -3.6328125 230.17578125 C-6.72067776 230.21480475 -9.80851528 230.2451478 -12.89648438 230.2746582 C-15.03821156 230.29976163 -17.17985341 230.33385168 -19.32128906 230.37719727 C-22.4045113 230.4380315 -25.48659843 230.46625181 -28.5703125 230.48828125 C-30.00034103 230.52699089 -30.00034103 230.52699089 -31.45925903 230.56648254 C-35.93929603 230.56836144 -39.0134854 230.48365059 -42.56835938 227.58178711 C-47.02595987 222.84894321 -47.37189917 219.13435279 -47.625 212.75 C-47.66294678 211.93748779 -47.70089355 211.12497559 -47.73999023 210.2878418 C-48.18467557 199.53170006 -48.08981513 188.76261633 -48 178 C-49.08571289 177.81207886 -49.08571289 177.81207886 -50.19335938 177.62036133 C-54.86542557 176.58767864 -59.11630056 174.57182748 -63.5 172.6875 C-64.90572266 172.1006543 -64.90572266 172.1006543 -66.33984375 171.50195312 C-77.2476607 166.83712077 -77.2476607 166.83712077 -80.3125 161.875 C-83.12470249 150.11488052 -78.07025227 141.20692315 -73.1875 130.75 C-72.44036335 129.11275111 -71.69490606 127.47473478 -70.95117188 125.8359375 C-69.58063159 122.82825529 -68.20359427 119.82391137 -66.80932617 116.82714844 C-66.50485062 116.17269745 -66.20037506 115.51824646 -65.88667297 114.84396362 C-65.07217179 113.1500916 -64.19110627 111.48865205 -63.30419922 109.83154297 C-61.95549818 106.90338223 -61.53706126 104.78447818 -61.33984375 101.5859375 C-61.26991211 100.58385254 -61.19998047 99.58176758 -61.12792969 98.54931641 C-61.06508789 97.50179199 -61.00224609 96.45426758 -60.9375 95.375 C-60.77775357 93.20290123 -60.61503312 91.03101898 -60.44921875 88.859375 C-60.3723584 87.83263672 -60.29549805 86.80589844 -60.21630859 85.74804688 C-58.98074928 70.05114434 -53.78448284 55.44953891 -46.22265625 41.72265625 C-44.62679033 38.99111178 -44.62679033 38.99111178 -46 36 C-48.00016466 34.79117904 -48.00016466 34.79117904 -50 34 C-48.40956621 28.91061189 -45.2553049 25.12543357 -42 21 C-41.2575 21.33 -40.515 21.66 -39.75 22 C-36.86116688 23.22782871 -36.86116688 23.22782871 -33 23 C-31.25503014 21.58993622 -31.25503014 21.58993622 -29.625 19.625 C-23.43058282 13.10638903 -9.42245755 0 0 0 Z " fill="#E9AA7B" transform="translate(326,26)"/>
<path d="M0 0 C0.99 0.495 0.99 0.495 2 1 C1.35933594 1.50789062 0.71867187 2.01578125 0.05859375 2.5390625 C-2.63547859 4.68307834 -5.31986037 6.83859707 -8 9 C-8.65226562 9.52335938 -9.30453125 10.04671875 -9.9765625 10.5859375 C-14.49873429 14.32344021 -18.28082223 18.47100127 -22 23 C-22.763125 23.90234375 -23.52625 24.8046875 -24.3125 25.734375 C-35.64327632 39.68539334 -43.38744646 55.6564825 -48 73 C-48.17644043 73.65548828 -48.35288086 74.31097656 -48.53466797 74.98632812 C-53.08562028 92.86539153 -53.39838475 114.34173211 -48 132 C-47.80664062 132.81984375 -47.61328125 133.6396875 -47.4140625 134.484375 C-43.11458289 151.57061863 -32.44196577 166.99146476 -19.9519043 179.05322266 C-0.16561662 198.31615536 10.41528576 221.64647243 11.07958984 249.31494141 C11.09758336 252.62720768 11.08791835 255.93779324 11.0625 259.25 C11.05798828 260.38824219 11.05347656 261.52648437 11.04882812 262.69921875 C11.03720228 265.46616928 11.01927413 268.23309218 11 271 C6.05 271 1.1 271 -4 271 C-4.04898438 269.05738281 -4.09796875 267.11476563 -4.1484375 265.11328125 C-4.20417138 263.1834955 -4.25996839 261.2537111 -4.31738281 259.32397461 C-4.37345245 257.36652645 -4.42121922 255.40884599 -4.46875 253.45117188 C-5.26522795 227.36651901 -13.46835083 209.00306367 -31.50683594 190.45019531 C-53.90283354 167.30429952 -67.47695051 138.4432486 -67.3125 105.875 C-67.30686035 104.69429932 -67.3012207 103.51359863 -67.29541016 102.29711914 C-66.86926924 71.34283372 -55.90987684 43.20624293 -33.71484375 21.29711914 C-25.83745097 13.81334922 -16.94323632 8.28334563 -7.3125 3.375 C-6.26884277 2.84181152 -6.26884277 2.84181152 -5.20410156 2.29785156 C-3.50080551 1.46439572 -1.75296361 0.72317679 0 0 Z " fill="#F8DCB8" transform="translate(82,226)"/>
<path d="M0 0 C5.28 0 10.56 0 16 0 C16 35.31 16 70.62 16 107 C-3.8 107.33 -23.6 107.66 -44 108 C-42.35 109.65 -40.7 111.3 -39 113 C-38.85140521 116.06699647 -40.04805368 117.05486659 -42.06640625 119.359375 C-42.89011719 120.14828125 -43.71382813 120.9371875 -44.5625 121.75 C-45.38878906 122.54921875 -46.21507812 123.3484375 -47.06640625 124.171875 C-47.70449219 124.77515625 -48.34257812 125.3784375 -49 126 C-55.36590304 120.75541414 -61.13570612 114.97902678 -66.9375 109.125 C-67.91708237 108.14039081 -68.89689837 107.156014 -69.87695312 106.171875 C-72.25360252 103.78351797 -74.62787356 101.39284788 -77 99 C-71.90743817 92.88220295 -66.45736165 87.17174444 -60.875 81.5 C-59.98167969 80.56929688 -59.08835937 79.63859375 -58.16796875 78.6796875 C-57.30558594 77.80570312 -56.44320313 76.93171875 -55.5546875 76.03125 C-54.77593262 75.23267578 -53.99717773 74.43410156 -53.19482422 73.61132812 C-51 72 -51 72 -48.85131836 72.14135742 C-46.33130331 73.31014193 -44.66324863 74.86564714 -42.6875 76.8125 C-41.61048828 77.84310547 -41.61048828 77.84310547 -40.51171875 78.89453125 C-39 81 -39 81 -38.95703125 82.94921875 C-40 85 -40 85 -45 90 C-30.15 90.33 -15.3 90.66 0 91 C0 60.97 0 30.94 0 0 Z " fill="#000000" transform="translate(375,339)"/>
<path d="M0 0 C3.36392451 1.41863308 5.59122847 3.93237742 8.09399414 6.50878906 C8.64323547 7.06227524 9.19247681 7.61576141 9.75836182 8.1860199 C11.50762378 9.9520484 13.24615558 11.72822974 14.98461914 13.50488281 C16.17012415 14.70543723 17.35631438 15.90531541 18.54321289 17.10449219 C21.44835207 20.04267376 24.34391251 22.99000356 27.23461914 25.94238281 C22.14205731 32.06017986 16.69198079 37.77063837 11.10961914 43.44238281 C10.21629883 44.37308594 9.32297852 45.30378906 8.40258789 46.26269531 C7.10901367 47.57367188 7.10901367 47.57367188 5.78930664 48.91113281 C5.01055176 49.70970703 4.23179687 50.50828125 3.42944336 51.33105469 C1.23461914 52.94238281 1.23461914 52.94238281 -0.9140625 52.80102539 C-3.43407755 51.63224088 -5.10213223 50.07673567 -7.07788086 48.12988281 C-7.79588867 47.4428125 -8.51389648 46.75574219 -9.25366211 46.04785156 C-10.76538086 43.94238281 -10.76538086 43.94238281 -10.80834961 41.99316406 C-9.76538086 39.94238281 -9.76538086 39.94238281 -4.76538086 34.94238281 C-19.61538086 34.61238281 -34.46538086 34.28238281 -49.76538086 33.94238281 C-49.76538086 63.97238281 -49.76538086 94.00238281 -49.76538086 124.94238281 C-55.04538086 124.94238281 -60.32538086 124.94238281 -65.76538086 124.94238281 C-65.76538086 89.96238281 -65.76538086 54.98238281 -65.76538086 18.94238281 C-45.63538086 18.61238281 -25.50538086 18.28238281 -4.76538086 17.94238281 C-6.74538086 15.96238281 -8.72538086 13.98238281 -10.76538086 11.94238281 C-9.71786335 7.75231277 -8.88773184 6.60829374 -5.95288086 3.62988281 C-5.26581055 2.911875 -4.57874023 2.19386719 -3.87084961 1.45410156 C-1.76538086 -0.05761719 -1.76538086 -0.05761719 0 0 Z " fill="#000000" transform="translate(187.765380859375,48.0576171875)"/>
<path d="M0 0 C6.7357477 5.21765305 11.02775905 12.47873067 12.3203125 20.91015625 C12.64831397 30.18166448 10.43854693 37.62277763 4.6875 44.91015625 C-1.55118868 51.56655411 -9.84241385 54.66497519 -18.8125 54.97265625 C-27.74305954 54.89641977 -34.96136612 50.82379013 -41.1875 44.59765625 C-47.28216185 36.41485121 -49.21429598 28.77577136 -48.1875 18.59765625 C-45.87676849 9.34160106 -41.08404296 3.20073144 -33.0625 -1.77734375 C-22.34272278 -8.02219839 -10.2405012 -6.56489274 0 0 Z " fill="#FBED8C" transform="translate(400.1875,95.40234375)"/>
<path d="M0 0 C5.50151601 4.33984131 9.29761605 10.38418497 10.75 17.25 C11.71068017 27.41843008 10.01486298 35.4807584 3.625 43.5625 C-2.56353274 50.16538374 -10.8475014 53.29263111 -19.75 53.6875 C-27.82485827 53.59876529 -34.27747758 50.59980269 -40.41796875 45.421875 C-46.5501528 38.98896551 -49.40042404 31.70211289 -49.875 22.875 C-49.58875432 14.78378873 -46.67936454 8.08081792 -41.28125 2.05078125 C-28.67660112 -9.51156012 -13.69216988 -9.36697977 0 0 Z " fill="#FBED8C" transform="translate(149.25,298.75)"/>
<path d="M0 0 C1.07765625 0.00902344 2.1553125 0.01804687 3.265625 0.02734375 C4.08546875 0.03894531 4.9053125 0.05054687 5.75 0.0625 C5.75 0.3925 5.75 0.7225 5.75 1.0625 C3.955625 1.0934375 3.955625 1.0934375 2.125 1.125 C-1.36454574 1.58042572 -3.08097543 2.37890479 -5.4375 5 C-13.07950369 15.10581909 -15.18116622 24.55826789 -14.25 37.0625 C-12.5270732 45.15818012 -8.51201302 50.84140087 -3.25 57.0625 C-2.59 58.0525 -1.93 59.0425 -1.25 60.0625 C-9.87776242 59.78418508 -16.20942789 57.17129941 -22.33203125 50.9453125 C-28.51225542 43.42495551 -30.88053921 36.84315611 -30.59765625 27.08984375 C-29.69374277 19.218687 -26.24804116 12.27266287 -20.25 7.0625 C-13.38522362 2.26150133 -8.39485409 -0.09124841 0 0 Z " fill="#F7DA26" transform="translate(382.25,89.9375)"/>
<path d="M0 0 C0.97582031 0.00902344 1.95164063 0.01804687 2.95703125 0.02734375 C4.06111328 0.04474609 4.06111328 0.04474609 5.1875 0.0625 C5.1875 0.3925 5.1875 0.7225 5.1875 1.0625 C4.011875 1.0625 2.83625 1.0625 1.625 1.0625 C-3.17030949 1.69792087 -5.30632002 3.83088186 -8.203125 7.578125 C-14.78216766 17.73412289 -16.49530214 27.75191437 -14.3359375 39.69921875 C-12.09479226 47.43522009 -6.92042323 53.97228385 -1.8125 60.0625 C-10.92102335 59.76867667 -17.89178469 56.50467094 -24.1875 49.8125 C-29.62026006 42.74373834 -31.63408401 35.24427479 -31.3203125 26.375 C-29.99312216 17.71763533 -25.60778576 10.75402371 -18.76171875 5.39453125 C-12.62714849 1.20237001 -7.34632249 -0.08850991 0 0 Z " fill="#F9DC26" transform="translate(130.8125,291.9375)"/>
<path d="M0 0 C7.59 0 15.18 0 23 0 C23 5.28 23 10.56 23 16 C15.41 16 7.82 16 0 16 C0 10.72 0 5.44 0 0 Z " fill="#141312" transform="translate(193,314)"/>
<path d="M0 0 C7.59 0 15.18 0 23 0 C23 5.28 23 10.56 23 16 C15.41 16 7.82 16 0 16 C0 10.72 0 5.44 0 0 Z " fill="#14110E" transform="translate(296,112)"/>
<path d="M0 0 C3.49353838 1.74676919 5.13945763 2.91405215 7.75 5.625 C8.67039063 6.57246094 8.67039063 6.57246094 9.609375 7.5390625 C10.06828125 8.02117187 10.5271875 8.50328125 11 9 C9.67879172 11.93230193 8.25361803 13.98664899 5.9609375 16.234375 C5.38085938 16.80800781 4.80078125 17.38164062 4.203125 17.97265625 C3.59984375 18.55917969 2.9965625 19.14570313 2.375 19.75 C1.76398438 20.35199219 1.15296875 20.95398438 0.5234375 21.57421875 C-0.97988624 23.05405305 -2.48934856 24.52764676 -4 26 C-8.22114006 22.50944187 -11.51760049 19.35299939 -15 15 C-10.05 10.05 -5.1 5.1 0 0 Z " fill="#050404" transform="translate(192,275)"/>
<path d="M0 0 C2.93230193 1.32120828 4.98664899 2.74638197 7.234375 5.0390625 C7.80800781 5.61914062 8.38164062 6.19921875 8.97265625 6.796875 C9.55917969 7.40015625 10.14570313 8.0034375 10.75 8.625 C11.35199219 9.23601562 11.95398438 9.84703125 12.57421875 10.4765625 C14.05405305 11.97988624 15.52764676 13.48934856 17 15 C13.50944187 19.22114006 10.35299939 22.51760049 6 26 C1.05 21.05 -3.9 16.1 -9 11 C-7.25323081 7.50646162 -6.08594785 5.86054237 -3.375 3.25 C-2.74335938 2.63640625 -2.11171875 2.0228125 -1.4609375 1.390625 C-0.73777344 0.70226562 -0.73777344 0.70226562 0 0 Z " fill="#050403" transform="translate(318,73)"/>
<path d="M0 0 C3.31152074 0.42071375 4.94260972 1.58088802 7.234375 3.94140625 C7.80800781 4.52470703 8.38164062 5.10800781 8.97265625 5.70898438 C9.55917969 6.32064453 10.14570313 6.93230469 10.75 7.5625 C11.35199219 8.17802734 11.95398438 8.79355469 12.57421875 9.42773438 C14.05634381 10.94514813 15.5290967 12.47170596 17 14 C15.49053489 17.18086518 13.92058175 19.29869906 11.375 21.75 C10.74335938 22.36359375 10.11171875 22.9771875 9.4609375 23.609375 C8.97882813 24.06828125 8.49671875 24.5271875 8 25 C5.06769807 23.67879172 3.01335101 22.25361803 0.765625 19.9609375 C0.19199219 19.38085938 -0.38164062 18.80078125 -0.97265625 18.203125 C-1.55917969 17.59984375 -2.14570313 16.9965625 -2.75 16.375 C-3.35199219 15.76398438 -3.95398438 15.15296875 -4.57421875 14.5234375 C-6.05405305 13.02011376 -7.52764676 11.51065144 -9 10 C-8.56856689 9.49186768 -8.13713379 8.98373535 -7.69262695 8.46020508 C-7.19593506 7.8752124 -6.69924316 7.29021973 -6.1875 6.6875 C-5.1359228 5.44897574 -4.07340274 4.21965713 -3 3 C-2.28263672 2.11248047 -2.28263672 2.11248047 -1.55078125 1.20703125 C-1.03902344 0.80871094 -0.52726563 0.41039062 0 0 Z " fill="#050505" transform="translate(186,344)"/>
<path d="M0 0 C3.21524305 1.40844718 5.32183868 3.10344786 7.75 5.625 C8.67039062 6.57246094 8.67039062 6.57246094 9.609375 7.5390625 C10.06828125 8.02117187 10.5271875 8.50328125 11 9 C9.32357676 13.25314786 6.2824091 16.12101814 3.125 19.3125 C2.59519531 19.87517578 2.06539062 20.43785156 1.51953125 21.01757812 C-0.0546875 22.61328125 -0.0546875 22.61328125 -3 25 C-6.88419308 24.55413645 -8.59949495 22.7205303 -11.25 19.9375 C-11.95640625 19.20402344 -12.6628125 18.47054688 -13.390625 17.71484375 C-13.92171875 17.14894531 -14.4528125 16.58304687 -15 16 C-10.30233025 10.33870569 -5.25276628 5.14771096 0 0 Z " fill="#050505" transform="translate(71,344)"/>
<path d="M0 0 C3.5302678 0.44144024 5.30139302 1.84368534 7.8125 4.3125 C8.75029297 5.20388672 8.75029297 5.20388672 9.70703125 6.11328125 C11 8 11 8 10.76464844 9.91577148 C9.8862512 12.31004902 8.8813026 13.46475476 7.05859375 15.234375 C6.47529297 15.80800781 5.89199219 16.38164062 5.29101562 16.97265625 C4.67935547 17.55917969 4.06769531 18.14570313 3.4375 18.75 C2.82197266 19.35199219 2.20644531 19.95398438 1.57226562 20.57421875 C0.05485187 22.05634381 -1.47170596 23.5290967 -3 25 C-6.18086518 23.49053489 -8.29869906 21.92058175 -10.75 19.375 C-11.36359375 18.74335938 -11.9771875 18.11171875 -12.609375 17.4609375 C-13.06828125 16.97882813 -13.5271875 16.49671875 -14 16 C-12.32357676 11.74685214 -9.2824091 8.87898186 -6.125 5.6875 C-5.59519531 5.12482422 -5.06539063 4.56214844 -4.51953125 3.98242188 C-2.9453125 2.38671875 -2.9453125 2.38671875 0 0 Z " fill="#050403" transform="translate(323,142)"/>
<path d="M0 0 C4.32504836 1.65863505 7.09418825 4.871041 10.25 8.125 C10.80429688 8.68832031 11.35859375 9.25164062 11.9296875 9.83203125 C13.29104485 11.21686028 14.64614859 12.60783204 16 14 C14.59155282 17.21524305 12.89655214 19.32183868 10.375 21.75 C9.74335937 22.36359375 9.11171875 22.9771875 8.4609375 23.609375 C7.97882813 24.06828125 7.49671875 24.5271875 7 25 C2.67495164 23.34136495 -0.09418825 20.128959 -3.25 16.875 C-3.80429687 16.31167969 -4.35859375 15.74835938 -4.9296875 15.16796875 C-6.29104485 13.78313972 -7.64614859 12.39216796 -9 11 C-7.59155282 7.78475695 -5.89655214 5.67816132 -3.375 3.25 C-2.74335937 2.63640625 -2.11171875 2.0228125 -1.4609375 1.390625 C-0.73777344 0.70226562 -0.73777344 0.70226562 0 0 Z " fill="#020201" transform="translate(66,275)"/>
<path d="M0 0 C4.32504836 1.65863505 7.09418825 4.871041 10.25 8.125 C10.80429687 8.68832031 11.35859375 9.25164062 11.9296875 9.83203125 C13.29104485 11.21686028 14.64614859 12.60783204 16 14 C14.59155282 17.21524305 12.89655214 19.32183868 10.375 21.75 C9.74335938 22.36359375 9.11171875 22.9771875 8.4609375 23.609375 C7.97882813 24.06828125 7.49671875 24.5271875 7 25 C2.67495164 23.34136495 -0.09418825 20.128959 -3.25 16.875 C-3.80429687 16.31167969 -4.35859375 15.74835938 -4.9296875 15.16796875 C-6.29104485 13.78313972 -7.64614859 12.39216796 -9 11 C-7.59155282 7.78475695 -5.89655214 5.67816132 -3.375 3.25 C-2.74335938 2.63640625 -2.11171875 2.0228125 -1.4609375 1.390625 C-0.73777344 0.70226562 -0.73777344 0.70226562 0 0 Z " fill="#010101" transform="translate(439,142)"/>
<path d="M0 0 C3.21524305 1.40844718 5.32183868 3.10344786 7.75 5.625 C8.67039062 6.57246094 8.67039062 6.57246094 9.609375 7.5390625 C10.06828125 8.02117187 10.5271875 8.50328125 11 9 C9.34136495 13.32504836 6.128959 16.09418825 2.875 19.25 C2.31167969 19.80429688 1.74835938 20.35859375 1.16796875 20.9296875 C-0.21686028 22.29104485 -1.60783204 23.64614859 -3 25 C-6.21524305 23.59155282 -8.32183868 21.89655214 -10.75 19.375 C-11.36359375 18.74335937 -11.9771875 18.11171875 -12.609375 17.4609375 C-13.06828125 16.97882813 -13.5271875 16.49671875 -14 16 C-12.34136495 11.67495164 -9.128959 8.90581175 -5.875 5.75 C-5.31167969 5.19570312 -4.74835938 4.64140625 -4.16796875 4.0703125 C-2.78313972 2.70895515 -1.39216796 1.35385141 0 0 Z " fill="#020101" transform="translate(444,73)"/>
<path d="M0 0 C7.26 0 14.52 0 22 0 C22 4.62 22 9.24 22 14 C14.74 14 7.48 14 0 14 C0 9.38 0 4.76 0 0 Z " fill="#000000" transform="translate(44,315)"/>
<path d="M0 0 C7.26 0 14.52 0 22 0 C22 4.62 22 9.24 22 14 C14.74 14 7.48 14 0 14 C0 9.38 0 4.76 0 0 Z " fill="#000000" transform="translate(446,113)"/>
<path d="M0 0 C5.28 0 10.56 0 16 0 C16 4.95 16 9.9 16 15 C10.72 15 5.44 15 0 15 C0 10.05 0 5.1 0 0 Z " fill="#FEFCF8" transform="translate(389,33)"/>
<path d="M0 0 C5.28 0 10.56 0 16 0 C16 4.95 16 9.9 16 15 C10.72 15 5.44 15 0 15 C0 10.05 0 5.1 0 0 Z " fill="#FEFCF8" transform="translate(359,33)"/>
<path d="M0 0 C4.95 0.33 9.9 0.66 15 1 C15.48556876 11.19694397 15.48556876 11.19694397 13.375 14.6875 C10.22091596 16.43054644 8.55483933 16.65292967 5 16 C2.125 14.1875 2.125 14.1875 0 11 C-0.41846508 7.22851721 -0.22984488 3.81542502 0 0 Z " fill="#A5BDD9" transform="translate(122,366)"/>
<path d="M0 0 C0.7752545 9.83711825 0.7752545 9.83711825 -2.125 14.1875 C-5.51266526 16.32320201 -7.07353555 16.75187617 -11 16 C-13.375 14.6875 -13.375 14.6875 -15 12 C-15.32924499 8.30926983 -15.22932778 4.69472534 -15 1 C-13.06263299 0.83179449 -11.12510094 0.66548905 -9.1875 0.5 C-7.56908203 0.36078125 -7.56908203 0.36078125 -5.91796875 0.21875 C-3 0 -3 0 0 0 Z " fill="#A5BDD9" transform="translate(390,164)"/>
<path d="M0 0 C0.66 0 1.32 0 2 0 C0.50902342 3.7952131 -1.75700849 5.61042731 -5 8 C-3.63055898 5.05043472 -2.12169591 2.47531189 0 0 Z " fill="#F0C077" transform="translate(284,47)"/>
</svg>
