<?xml version="1.0" encoding="UTF-8"?>
<svg version="1.1" xmlns="http://www.w3.org/2000/svg" width="512" height="512">
<path d="M0 0 C1.00578598 -0.00029205 2.01157196 -0.00058411 3.0478363 -0.00088501 C6.34838709 0.00050029 9.64870774 0.01602379 12.94921875 0.03173828 C15.24706906 0.03547125 17.54492096 0.03831688 19.84277344 0.04031372 C25.87286826 0.04792777 31.90286581 0.06755713 37.93292236 0.08972168 C44.09328903 0.11022815 50.2536715 0.11932569 56.4140625 0.12939453 C68.48832384 0.15080512 80.56251319 0.18491413 92.63671875 0.22705078 C92.69206787 1.22559082 92.74741699 2.22413086 92.80444336 3.25292969 C93.01173204 6.97675415 93.22336701 10.70032132 93.4362793 14.42382812 C93.52762493 16.03183465 93.61781017 17.63990754 93.70678711 19.24804688 C93.83528522 21.56675574 93.96802933 23.88518958 94.1015625 26.20361328 C94.14014877 26.91635406 94.17873505 27.62909485 94.2184906 28.36343384 C94.45433056 32.37761599 94.89860997 36.27424845 95.63671875 40.22705078 C94.46431641 40.23513763 93.29191406 40.24322449 92.08398438 40.2515564 C81.01983981 40.32913674 69.95581642 40.416906 58.89183044 40.51457787 C53.20411607 40.564463 47.51641956 40.61079375 41.82861328 40.64892578 C36.3366569 40.68587684 30.84485293 40.73226348 25.35302734 40.78511429 C23.26076946 40.80360608 21.16847897 40.81873316 19.07617188 40.83039474 C16.13916512 40.84734653 13.20250346 40.87640303 10.265625 40.90820312 C9.40606705 40.91036331 8.54650909 40.9125235 7.66090393 40.91474915 C-0.16098442 41.02250553 -7.17398866 42.02241837 -13.36328125 47.22705078 C-18.46975456 53.93235599 -18.51193301 61.09952259 -18.52149963 69.14877319 C-18.52643761 70.03594705 -18.53137559 70.92312091 -18.5364632 71.83717883 C-18.55179507 74.80356009 -18.56018713 77.76991978 -18.56860352 80.73632812 C-18.57818543 82.86526681 -18.58819569 84.99420361 -18.59860229 87.12313843 C-18.62562348 92.89944631 -18.64664815 98.67576234 -18.66660428 104.45209837 C-18.688481 110.48994142 -18.71586145 116.52775943 -18.74266052 122.56558228 C-18.79256459 133.997643 -18.83751192 145.42971764 -18.88068289 156.86180556 C-18.93007478 169.87743308 -18.98498568 182.89303549 -19.04036248 195.90863872 C-19.15414744 222.68141947 -19.26079832 249.45422459 -19.36328125 276.22705078 C-7.48328125 276.22705078 4.39671875 276.22705078 16.63671875 276.22705078 C16.55421875 272.04017578 16.47171875 267.85330078 16.38671875 263.53955078 C16.32252693 253.72462211 16.35998041 245.22019214 20.63671875 236.22705078 C21.06082031 235.28474609 21.48492187 234.34244141 21.921875 233.37158203 C29.40666417 218.25606074 42.08165107 208.15891248 57.63671875 202.22705078 C63.30104447 200.59999538 68.41612608 199.90396623 74.29296875 199.81298828 C75.47457581 199.78393906 75.47457581 199.78393906 76.68005371 199.75430298 C79.16550287 199.69511533 81.6509999 199.64836852 84.13671875 199.60205078 C85.83465423 199.56381483 87.53257148 199.52475994 89.23046875 199.48486328 C93.36573515 199.38946498 97.50109213 199.30521336 101.63671875 199.22705078 C100.91299072 198.97455566 100.1892627 198.72206055 99.44360352 198.46191406 C81.83000924 192.2083758 69.89937566 182.680219 61.45703125 165.87939453 C55.238207 152.64737067 54.20070173 136.11774312 58.26171875 122.03955078 C64.44510469 105.49306856 75.16530472 92.58937699 91.19921875 84.91455078 C105.28514115 78.49587204 123.23156687 77.51990093 137.82421875 82.97314453 C154.51148348 90.41288339 165.79294165 101.27947418 173.375 117.91845703 C179.44558964 133.83730974 178.22717114 151.72075 171.3515625 167.10205078 C163.74312422 182.36131419 151.20793159 192.01524164 135.63671875 198.22705078 C134.30736914 198.57593256 132.97462335 198.91256682 131.63671875 199.22705078 C133.17042114 199.24106934 133.17042114 199.24106934 134.73510742 199.25537109 C138.59164269 199.29576654 142.44742093 199.36165162 146.3034668 199.43457031 C147.96059313 199.4624967 149.61784566 199.48384946 151.27514648 199.49804688 C169.89260388 199.66693823 185.50392262 203.715088 199.35546875 216.88720703 C216.44931775 234.42011037 216.63671875 251.37882627 216.63671875 276.22705078 C254.91671875 276.22705078 293.19671875 276.22705078 332.63671875 276.22705078 C332.63671875 224.74705078 332.63671875 173.26705078 332.63671875 120.22705078 C352.43671875 119.23705078 352.43671875 119.23705078 372.63671875 118.22705078 C372.63671875 170.36705078 372.63671875 222.50705078 372.63671875 276.22705078 C385.83671875 276.22705078 399.03671875 276.22705078 412.63671875 276.22705078 C412.79715399 292.42655322 412.79715399 292.42655322 412.83203125 299.40869141 C412.85580983 304.14626307 412.88373257 308.88352133 412.93847656 313.62084961 C412.98240043 317.44641838 413.00595222 321.27165041 413.01622772 325.09745216 C413.0235367 326.54649967 413.03780555 327.99553177 413.05963898 329.44443321 C413.3152483 347.13394174 408.27197586 362.01618141 395.9765625 374.94580078 C385.11030962 385.53994383 371.60824211 392.46694529 356.22305775 392.48431969 C355.51873504 392.48782576 354.81441234 392.49133184 354.08874652 392.49494416 C351.74079086 392.50420991 349.39308588 392.49934743 347.04512024 392.49447632 C345.33981141 392.49821502 343.63450429 392.50281742 341.92919987 392.50820696 C337.25210137 392.52042529 332.57507446 392.52017787 327.89796364 392.51781821 C322.85008083 392.51740975 317.80222089 392.52845205 312.75434875 392.53793335 C302.86767816 392.55453814 292.98103142 392.56004267 283.09434805 392.56115811 C275.05641217 392.56210887 267.01848416 392.56622057 258.98055077 392.57255936 C236.18392882 392.59017068 213.3873257 392.59939845 190.59069691 392.59789841 C189.36201937 392.5978185 188.13334183 392.59773858 186.86743164 392.59765625 C185.63725117 392.59757449 184.40707071 392.59749273 183.13961204 392.59740849 C163.20610292 392.59659571 143.27266938 392.61573151 123.33918212 392.64393298 C102.864166 392.67267165 82.38918673 392.68647272 61.91414994 392.68474543 C50.42200064 392.68408185 38.92993057 392.68956017 27.43779945 392.71110153 C17.65244364 392.72932627 7.86720297 392.73365003 -1.91816249 392.72008269 C-6.90814081 392.7135595 -11.89789831 392.71341245 -16.88785553 392.73078918 C-21.46198014 392.74655361 -26.03570946 392.74362192 -30.60982464 392.72622092 C-32.25852908 392.72315843 -33.90726327 392.72675491 -35.5559326 392.73794107 C-53.60329265 392.8522151 -68.78788598 388.20895356 -82.08203125 375.56689453 C-95.61046923 361.69097955 -99.69809209 346.6529687 -99.55859375 327.78955078 C-99.55485772 326.29883007 -99.55201354 324.80810687 -99.55001831 323.31738281 C-99.54242828 319.4178779 -99.52282029 315.51852498 -99.50061035 311.61907959 C-99.47642879 306.92749674 -99.46734886 302.23586272 -99.45570374 297.54423523 C-99.4363926 290.43840179 -99.39803813 283.33290099 -99.36328125 276.22705078 C-86.16328125 276.22705078 -72.96328125 276.22705078 -59.36328125 276.22705078 C-59.3721637 273.41204544 -59.38104614 270.5970401 -59.39019775 267.69673157 C-59.4699057 241.84302358 -59.52956413 215.9893287 -59.56754257 190.13552471 C-59.572545 186.74244918 -59.57772232 183.34937393 -59.58300781 179.95629883 C-59.58458168 178.94310955 -59.58458168 178.94310955 -59.58618733 177.90945181 C-59.60356112 166.99299269 -59.63508198 156.07661841 -59.67189243 145.16020951 C-59.70938634 133.9470452 -59.73123578 122.73390974 -59.73963523 111.52068204 C-59.74483989 105.22737548 -59.75703224 98.9342609 -59.78620148 92.64101601 C-59.81346393 86.71079899 -59.82170431 80.78085204 -59.81571198 74.85057831 C-59.81680737 72.68068408 -59.82469624 70.51078029 -59.84010315 68.34094048 C-59.97410297 48.48574775 -56.92215398 32.46075721 -42.703125 17.50830078 C-30.72356203 5.82872687 -16.68011419 -0.12836458 0 0 Z M99.63671875 129.78955078 C96.72282993 135.03256841 96.68061593 140.40422784 97.63671875 146.22705078 C99.59236549 151.67236075 103.22970608 155.57669781 108.265625 158.37548828 C113.73924058 160.3413008 119.53419692 160.3413008 125.0078125 158.37548828 C130.04373142 155.57669781 133.68107201 151.67236075 135.63671875 146.22705078 C136.59282157 140.40422784 136.55060757 135.03256841 133.63671875 129.78955078 C129.93142871 124.84572368 125.90404504 121.76354312 119.734375 120.75048828 C110.88692158 120.32652456 104.97835698 122.66240673 99.63671875 129.78955078 Z M62.63671875 246.22705078 C55.23698612 255.58671259 56.63671875 263.87360158 56.63671875 276.22705078 C96.23671875 276.22705078 135.83671875 276.22705078 176.63671875 276.22705078 C177.43423938 259.90152345 177.43423938 259.90152345 170.63671875 246.22705078 C163.74572086 240.77903963 157.38828708 240.07629651 148.73876953 240.08178711 C147.58630234 240.07674919 147.58630234 240.07674919 146.41055298 240.0716095 C143.88436238 240.06215283 141.35823842 240.0601591 138.83203125 240.05908203 C137.06615167 240.05586594 135.30027234 240.05250161 133.53439331 240.04899597 C129.83753848 240.04301804 126.14070698 240.04115471 122.44384766 240.04174805 C117.72084009 240.04184963 112.99798299 240.02819535 108.27501106 240.01097584 C104.62888917 239.99982513 100.98280331 239.99782978 97.33666611 239.99835777 C95.59605262 239.99718237 93.85543805 239.99278542 92.11484146 239.98502541 C89.6742745 239.97516263 87.23402985 239.97812807 84.79345703 239.98413086 C84.08358643 239.97851135 83.37371582 239.97289185 82.64233398 239.96710205 C75.16768321 240.01351842 68.46732068 241.30343137 62.63671875 246.22705078 Z M-59.36328125 316.22705078 C-60.16080188 332.55257812 -60.16080188 332.55257812 -53.36328125 346.22705078 C-46.76693899 351.4421077 -40.8619461 352.35072612 -32.5253315 352.35568523 C-31.85896272 352.35743827 -31.19259394 352.35919131 -30.50603217 352.36099747 C-28.27525091 352.36564586 -26.04453516 352.36319497 -23.81375122 352.36076355 C-22.19735215 352.3626321 -20.58095353 352.36493298 -18.96455562 352.36762887 C-14.52413453 352.37374772 -10.08373227 352.37361318 -5.64330792 352.3724345 C-0.85384661 352.37223051 3.93560864 352.37774899 8.72506714 352.38249207 C18.10767219 352.39079945 27.49027095 352.39354694 36.87287937 352.39410444 C44.49852739 352.39457953 52.12417334 352.39663388 59.74982071 352.39980507 C81.3661587 352.40861158 102.98249172 352.4132244 124.59883152 352.4124746 C126.34694361 352.41241466 126.34694361 352.41241466 128.13037109 352.41235352 C129.29720059 352.41231263 130.46403009 352.41227175 131.66621806 352.41222963 C150.58149705 352.41182308 169.49675614 352.42139505 188.41202937 352.43549188 C207.83039246 352.44984957 227.24874584 352.45676241 246.66711438 352.45589811 C257.57057417 352.45556594 268.4740131 352.45832145 279.37746811 352.46907616 C288.6597697 352.47817312 297.94204096 352.48036299 307.22434507 352.47356673 C311.96047227 352.47029758 316.69654127 352.47025914 321.43266296 352.47891998 C325.76903557 352.48676831 330.10530365 352.48537063 334.44167365 352.47663585 C336.00959443 352.47509719 337.57752295 352.47693077 339.1454346 352.48249593 C353.85606747 352.76226583 353.85606747 352.76226583 366.63671875 346.22705078 C374.03645138 336.86738897 372.63671875 328.58049998 372.63671875 316.22705078 C230.07671875 316.22705078 87.51671875 316.22705078 -59.36328125 316.22705078 Z " fill="#0BB6E0" transform="translate(99.36328125,119.77294921875)"/>
<path d="M0 0 C1.11130436 -0.00679667 1.11130436 -0.00679667 2.24505931 -0.01373065 C4.70508934 -0.0262988 7.16489583 -0.02475922 9.62495422 -0.02310181 C11.39812502 -0.02909189 13.17129321 -0.03589853 14.94445801 -0.04345703 C19.74637093 -0.06107744 24.54821251 -0.0658108 29.35015464 -0.0670886 C32.35543093 -0.06851324 35.36068926 -0.0727888 38.36596107 -0.07808304 C48.86538971 -0.09657167 59.36476766 -0.10475529 69.86421204 -0.10317993 C79.62650064 -0.10197952 89.3885678 -0.12306524 99.15080041 -0.15466726 C107.55195513 -0.18088683 115.9530378 -0.19154482 124.35423309 -0.19026911 C129.36303203 -0.18976106 134.37163415 -0.19535691 139.38039207 -0.21662521 C144.0960186 -0.23610302 148.8112625 -0.23606731 153.52690315 -0.22159195 C155.24850402 -0.21951439 156.97012944 -0.22414124 158.69168854 -0.23631287 C177.00277138 -0.35729272 192.35275836 4.01177767 205.93476868 16.92758179 C217.50734274 28.79739662 223.52312007 42.79115732 223.50654602 59.33261108 C223.51326324 60.30776169 223.51998047 61.28291229 223.52690125 62.28761292 C223.5458094 65.49317605 223.54980208 68.69852894 223.55195618 71.90414429 C223.55838997 74.14843326 223.56511876 76.39272141 223.5721283 78.63700867 C223.58408378 83.33666934 223.58781098 88.0362566 223.58662415 92.7359314 C223.58642126 98.7297401 223.61369979 104.72307304 223.64816856 110.71676922 C223.67051361 115.35218933 223.67445933 119.98749642 223.67340469 124.62296486 C223.67575011 126.8311508 223.68451326 129.03934037 223.70006943 131.24747276 C223.82918506 151.470845 221.06354343 167.73017821 206.55586243 182.98617554 C197.606138 191.71178333 185.07895376 200.09402138 172.10457802 200.30113029 C169.83092531 200.16527057 167.56772033 199.97001429 165.29927063 199.76522827 C130.99045512 197.64908781 106.55654015 209.32469714 76.9052887 225.4413147 C71.56727455 228.32026772 66.18618933 231.11476055 60.80356634 233.90914547 C50.63697267 239.1882953 40.5069331 244.53111765 30.4294281 249.97854614 C29.21447411 250.63268242 29.21447411 250.63268242 27.97497559 251.30003357 C27.26871127 251.68220063 26.56244696 252.06436769 25.83478069 252.45811558 C24.21601868 253.26742554 24.21601868 253.26742554 23.21601868 253.26742554 C23.21601868 235.77742554 23.21601868 218.28742554 23.21601868 200.26742554 C13.59896155 200.42435617 13.59896155 200.42435617 3.98286438 200.6277771 C-12.91676784 200.76545231 -27.20595145 195.30088433 -39.50273132 183.60726929 C-51.07530538 171.73745446 -57.09108272 157.74369376 -57.07450867 141.20223999 C-57.08122589 140.22708939 -57.08794312 139.25193878 -57.09486389 138.24723816 C-57.11377205 135.04167502 -57.11776473 131.83632214 -57.11991882 128.63070679 C-57.12635261 126.38641781 -57.1330814 124.14212966 -57.14009094 121.89784241 C-57.15204642 117.19818174 -57.15577363 112.49859447 -57.15458679 107.79891968 C-57.15438391 101.80511097 -57.18166244 95.81177803 -57.21613121 89.81808186 C-57.23847625 85.18266174 -57.24242197 80.54735465 -57.24136734 75.91188622 C-57.24371276 73.70370027 -57.25247591 71.49551071 -57.26803207 69.28737831 C-57.39714771 49.06400608 -54.63150608 32.80467287 -40.12382507 17.54867554 C-29.10556903 6.80633575 -15.56307874 0.03958094 0 0 Z M-10.78398132 46.26742554 C-16.23199247 53.15842342 -16.93473559 59.5158572 -16.929245 68.16537476 C-16.93260361 68.93368622 -16.93596222 69.70199768 -16.93942261 70.49359131 C-16.94887927 73.01978191 -16.95087301 75.54590586 -16.95195007 78.07211304 C-16.95516616 79.83799262 -16.9585305 81.60387194 -16.96203613 83.36975098 C-16.96801407 87.06660581 -16.96987739 90.76343731 -16.96928406 94.46029663 C-16.96918247 99.18330419 -16.98283675 103.9061613 -17.00005627 108.62913322 C-17.01120698 112.27525512 -17.01320233 115.92134098 -17.01267433 119.56747818 C-17.01384973 121.30809167 -17.01824669 123.04870624 -17.0260067 124.78930283 C-17.03586948 127.22986979 -17.03290404 129.67011444 -17.02690125 132.11068726 C-17.03252075 132.82055786 -17.03814026 133.53042847 -17.04393005 134.2618103 C-16.99751369 141.73646108 -15.70760073 148.4368236 -10.78398132 154.26742554 C-4.40593036 159.30990173 1.32691477 160.39799327 9.40498352 160.38095093 C11.20617142 160.38083763 11.20617142 160.38083763 13.04374695 160.38072205 C14.96593552 160.37298012 14.96593552 160.37298012 16.92695618 160.36508179 C18.26359504 160.36321448 19.60023459 160.36179206 20.93687439 160.36079407 C24.43851137 160.35699349 27.94010623 160.34718445 31.44172668 160.33609009 C35.0214327 160.32582286 38.60114579 160.32123015 42.18086243 160.31625366 C49.19261825 160.3060917 56.20425875 160.28651381 63.21601868 160.26742554 C63.21601868 169.17742554 63.21601868 178.08742554 63.21601868 187.26742554 C65.64976868 186.13305054 68.08351868 184.99867554 70.59101868 183.82992554 C71.49094543 183.42201782 72.39087219 183.01411011 73.31806946 182.59384155 C78.22327896 180.32872645 82.91773541 177.8960682 87.51704407 175.0692749 C110.07256943 161.26812198 129.7355581 158.94187376 156.01213074 160.21263123 C163.98799252 160.54126945 170.89482645 159.6053212 177.21601868 154.26742554 C182.66402983 147.37642765 183.36677294 141.01899387 183.36128235 132.36947632 C183.36464096 131.60116486 183.36799957 130.83285339 183.37145996 130.04125977 C183.38091663 127.51506916 183.38291036 124.98894521 183.38398743 122.46273804 C183.38720351 120.69685845 183.39056785 118.93097913 183.39407349 117.1651001 C183.40005142 113.46824527 183.40191474 109.77141377 183.40132141 106.07455444 C183.40121983 101.35154688 183.41487411 96.62868978 183.43209362 91.90571785 C183.44324433 88.25959595 183.44523968 84.61351009 183.44471169 80.96737289 C183.44588709 79.2267594 183.45028404 77.48614484 183.45804405 75.74554825 C183.46790683 73.30498128 183.46494139 70.86473663 183.4589386 68.42416382 C183.46455811 67.71429321 183.47017761 67.00442261 183.47596741 66.27304077 C183.42955104 58.79838999 182.13963809 52.09802747 177.21601868 46.26742554 C170.6521716 41.07805926 164.77125604 40.14565868 156.47410583 40.13371277 C155.82125543 40.13144721 155.16840503 40.12918166 154.49577129 40.12684745 C152.3219357 40.1205492 150.14816313 40.12133411 147.97431946 40.12216187 C146.41007914 40.11916778 144.84583956 40.11576468 143.28160095 40.11198425 C139.04188093 40.10316585 134.8021811 40.10080706 130.56245279 40.10016847 C127.91134717 40.09945679 125.26024666 40.09732025 122.6091423 40.09467125 C113.35391159 40.08542531 104.09869526 40.08133546 94.84346008 40.0821228 C86.22634311 40.08272355 77.60928875 40.07217045 68.99218762 40.05637914 C61.58478124 40.04329003 54.1773953 40.03793948 46.76997745 40.03857821 C42.34990096 40.03883278 37.92988015 40.03600449 33.50981522 40.02540016 C29.35162549 40.01569599 25.19354442 40.01565587 21.0353508 40.02291679 C19.51322521 40.02395972 17.99109277 40.02161714 16.46897888 40.01555634 C1.88310183 39.75817672 1.88310183 39.75817672 -10.78398132 46.26742554 Z " fill="#21E2AD" transform="translate(288.7839813232422,-0.267425537109375)"/>
<path d="M0 0 C4.68796317 2.8950501 8.77605467 6.42344712 10.234375 11.89453125 C11.16656452 18.74158704 11.3930195 24.99387098 7.671875 31.01953125 C3.66347868 35.99068326 0.31000422 38.47580101 -6.0078125 39.3359375 C-13.1275177 39.69575056 -18.34453314 39.19135672 -23.98828125 34.640625 C-29.08369757 29.63479842 -30.03494232 26.05750776 -30.390625 19.01953125 C-30.17838344 12.13997715 -28.58962241 7.80486419 -23.765625 2.89453125 C-17.29271618 -2.6344117 -7.84970384 -3.13766411 0 0 Z " fill="#21E4AB" transform="translate(421.765625,81.10546875)"/>
<path d="M0 0 C4.68796317 2.8950501 8.77605467 6.42344712 10.234375 11.89453125 C11.16656452 18.74158704 11.3930195 24.99387098 7.671875 31.01953125 C3.66347868 35.99068326 0.31000422 38.47580101 -6.0078125 39.3359375 C-13.1275177 39.69575056 -18.34453314 39.19135672 -23.98828125 34.640625 C-29.08369757 29.63479842 -30.03494232 26.05750776 -30.390625 19.01953125 C-30.17838344 12.13997715 -28.58962241 7.80486419 -23.765625 2.89453125 C-17.29271618 -2.6344117 -7.84970384 -3.13766411 0 0 Z " fill="#21E4AB" transform="translate(341.765625,81.10546875)"/>
</svg>
