<?xml version="1.0" encoding="UTF-8"?>
<svg version="1.1" xmlns="http://www.w3.org/2000/svg" width="512" height="512">
<path d="M0 0 C1.6307638 -0.00390583 3.26152662 -0.00824422 4.89228821 -0.01298523 C8.28654294 -0.02037833 11.68069354 -0.02020782 15.07495117 -0.01489258 C18.50835278 -0.01026481 21.94139992 -0.01717481 25.37475586 -0.03540039 C50.59163786 -0.16805558 74.26518368 0.80489115 98.55078125 8.30078125 C99.21319824 8.50509766 99.87561523 8.70941406 100.55810547 8.91992188 C119.37531799 14.92998215 137.28027768 24.82805984 152.55078125 37.30078125 C153.14681152 37.78015137 153.7428418 38.25952148 154.35693359 38.75341797 C185.57307759 64.00776973 206.72495875 99.89597024 212.21484375 139.87890625 C212.91428703 147.00346804 213.24581038 154.1500169 213.55078125 161.30078125 C214.28941406 161.54570312 215.02804687 161.790625 215.7890625 162.04296875 C228.96361213 166.89763126 236.53112439 174.73204803 242.30859375 187.19921875 C244.2421858 192.0271184 244.68557688 195.87046901 244.7277832 201.09790039 C244.7343544 201.77331879 244.7409256 202.44873718 244.74769592 203.1446228 C244.7673673 205.37506234 244.7790813 207.60543454 244.7890625 209.8359375 C244.79313803 210.60185148 244.79721355 211.36776546 244.80141258 212.15688896 C244.82225293 216.21551109 244.83656014 220.27409967 244.84594727 224.33276367 C244.8569725 228.49969674 244.89133258 232.66609004 244.93111897 236.83283329 C244.95742771 240.0578858 244.96565192 243.28281284 244.96922874 246.50796318 C244.97406257 248.04237934 244.98558373 249.57679112 245.00426674 251.11110115 C245.16570419 265.2545203 242.4508687 276.92370739 232.48046875 287.49609375 C227.71804799 291.9930137 221.47940661 297.30078125 214.55078125 297.30078125 C214.42123047 298.71617187 214.42123047 298.71617187 214.2890625 300.16015625 C212.90802882 312.77950987 209.27389851 323.05623497 201.55078125 333.30078125 C201.10089844 333.9040625 200.65101563 334.50734375 200.1875 335.12890625 C192.65074019 344.55516359 182.19747949 350.92019181 171.55078125 356.30078125 C170.89078125 356.30078125 170.23078125 356.30078125 169.55078125 356.30078125 C169.38578125 357.45578125 169.22078125 358.61078125 169.05078125 359.80078125 C163.95814553 382.3286212 145.36111022 402.75883355 127.55078125 416.30078125 C126.24173828 417.31591797 126.24173828 417.31591797 124.90625 418.3515625 C95.0549457 440.86023265 60.48296852 449.48951057 23.56494141 449.48608398 C20.95197982 449.48825944 18.33944921 449.5064424 15.7265625 449.52539062 C-26.46091009 449.66815998 -64.60578469 436.15716755 -95.07275391 406.62597656 C-96.23596001 405.50609669 -97.42398158 404.41207856 -98.6171875 403.32421875 C-121.80864095 381.61510563 -138.45699593 345.91732702 -139.5234375 314.08544922 C-139.54664878 311.8228325 -139.53720692 309.56334647 -139.51171875 307.30078125 C-139.50720703 306.52605469 -139.50269531 305.75132812 -139.49804688 304.953125 C-139.48641633 303.06897601 -139.46848781 301.1848676 -139.44921875 299.30078125 C-140.3306958 299.32172852 -141.21217285 299.34267578 -142.12036133 299.36425781 C-145.44355065 299.43311414 -148.76596391 299.48290587 -152.08959961 299.52050781 C-153.51810799 299.54041734 -154.94653713 299.56755554 -156.37475586 299.60253906 C-169.27325679 299.91018482 -179.50417288 298.03972581 -189.44921875 289.30078125 C-190.05507812 288.79933594 -190.6609375 288.29789062 -191.28515625 287.78125 C-197.38694893 282.30562382 -201.87977495 274.38403149 -203.44921875 266.30078125 C-203.55674993 264.00623634 -203.60794112 261.70885569 -203.6262207 259.41186523 C-203.6327919 258.72669327 -203.6393631 258.0415213 -203.64613342 257.33558655 C-203.66580673 255.07268141 -203.67751916 252.80984266 -203.6875 250.546875 C-203.69157553 249.76992846 -203.69565105 248.99298191 -203.69985008 248.19249153 C-203.72069112 244.07551467 -203.73499811 239.95857089 -203.74438477 235.84155273 C-203.75541091 231.61408904 -203.7897719 227.38715725 -203.82955647 223.15988064 C-203.85586126 219.8885051 -203.86408907 216.61725329 -203.86766624 213.34578133 C-203.87250098 211.789037 -203.88402481 210.23229703 -203.90270424 208.67565727 C-204.06335021 194.394169 -201.32179426 182.95591893 -191.484375 172.140625 C-187.38287905 168.17263164 -183.45419545 165.67861835 -178.14453125 163.56640625 C-177.07477051 163.13618164 -176.00500977 162.70595703 -174.90283203 162.26269531 C-174.09313965 161.94526367 -173.28344727 161.62783203 -172.44921875 161.30078125 C-172.39761597 160.28431519 -172.39761597 160.28431519 -172.3449707 159.24731445 C-170.43713575 124.16385644 -161.07705101 91.85890542 -138.44921875 64.30078125 C-137.99820801 63.74438965 -137.54719727 63.18799805 -137.08251953 62.61474609 C-113.09677806 33.15443985 -80.6158842 13.53516071 -43.76171875 4.48828125 C-42.5703833 4.19546265 -42.5703833 4.19546265 -41.35498047 3.89672852 C-27.64896227 0.76159105 -13.99514011 -0.01429696 0 0 Z M-38.76171875 26.42578125 C-39.63143311 26.63750977 -40.50114746 26.84923828 -41.3972168 27.06738281 C-77.0554119 36.20935585 -109.88732777 58.9302314 -129.44921875 90.30078125 C-142.33804405 112.23154566 -149.740101 134.70314296 -149.44921875 160.30078125 C-145.48921875 160.30078125 -141.52921875 160.30078125 -137.44921875 160.30078125 C-137.23007813 159.25921875 -137.0109375 158.21765625 -136.78515625 157.14453125 C-131.91943729 134.8084891 -123.08636291 115.92129238 -108.44921875 98.30078125 C-107.7428125 97.429375 -107.03640625 96.55796875 -106.30859375 95.66015625 C-86.09963608 71.858495 -54.42241591 57.46831886 -23.64926147 54.50814819 C-16.46633386 54.04268511 -9.25776046 54.1358771 -2.0625 54.1328125 C-0.2742663 54.12959158 1.51396714 54.12622691 3.30220032 54.12272644 C7.03993337 54.11676322 10.77764339 54.11488359 14.51538086 54.11547852 C19.26448756 54.11557987 24.01344389 54.1019422 28.76251507 54.08470631 C32.4543778 54.07349252 36.14620527 54.07156218 39.83808327 54.07208824 C41.58686655 54.07092164 43.33565115 54.06657576 45.08441734 54.05875587 C58.99935016 54.00236326 72.48080415 54.82384956 85.98828125 58.48828125 C86.78049072 58.7011377 87.5727002 58.91399414 88.38891602 59.13330078 C122.12174555 68.61907897 148.39269764 91.54939852 165.4609375 121.671875 C171.81060109 133.74321348 176.37668994 146.82141513 178.55078125 160.30078125 C182.51078125 160.30078125 186.47078125 160.30078125 190.55078125 160.30078125 C191.66285243 131.38693061 180.81223618 101.63845379 162.55078125 79.30078125 C162.10476563 78.75083496 161.65875 78.20088867 161.19921875 77.63427734 C140.21236428 51.91275484 112.1821261 34.29367604 79.86328125 26.42578125 C79.08186768 26.23467773 78.3004541 26.04357422 77.49536133 25.84667969 C60.08870517 21.93395453 42.59311494 21.9832206 24.85839844 22.04003906 C21.27154837 22.05143299 17.68499497 22.0446584 14.09815502 22.03316689 C-3.7670047 21.98440174 -21.29729987 22.15466035 -38.76171875 26.42578125 Z M170.55078125 299.30078125 C170.55078125 309.53078125 170.55078125 319.76078125 170.55078125 330.30078125 C180.05798729 324.59645763 187.63163897 317.33146449 190.98828125 306.36328125 C191.6712156 303.16403809 191.6712156 303.16403809 191.55078125 299.30078125 C184.62078125 299.30078125 177.69078125 299.30078125 170.55078125 299.30078125 Z " fill="#3A7712" transform="translate(235.44921875,20.69921875)"/>
<path d="M0 0 C3.53045093 1.17681698 4.10920827 2.1739086 6.25 5.125 C18.3220616 20.97114297 35.49235294 30.30869997 55 34 C60.01325762 34.41630733 65.01291953 34.43870042 70.04003906 34.43237305 C71.50977897 34.44141152 72.9795114 34.45174378 74.44923401 34.46325684 C78.4008972 34.49060853 82.35241653 34.50008131 86.30416203 34.50611091 C90.44817258 34.51555202 94.59207806 34.54175961 98.73602295 34.56611633 C106.56607263 34.60962826 114.39610173 34.63826889 122.22623515 34.66143972 C131.14780736 34.6885739 140.06927305 34.73248002 148.99076891 34.77772844 C167.32712287 34.87035523 185.66350502 34.94213604 204 35 C204.01030746 36.10611633 204.02061493 37.21223267 204.03123474 38.35186768 C204.12893883 48.76970733 204.23167015 59.18748685 204.33933926 69.60522842 C204.39453257 74.96124469 204.4479469 80.31726646 204.49731445 85.67333984 C204.54501088 90.84103911 204.59735572 96.00867219 204.65294075 101.17629242 C204.67334036 103.14905909 204.69205738 105.12184389 204.70907402 107.09464264 C204.73317095 109.855154 204.76321841 112.61554066 204.79467773 115.37597656 C204.8004332 116.19381119 204.80618866 117.01164581 204.81211853 117.85426331 C204.86087635 123.01218734 204.86087635 123.01218734 206 128 C208.08034294 129.1375213 208.08034294 129.1375213 210.5625 129.75 C211.80193359 130.11351562 211.80193359 130.11351562 213.06640625 130.484375 C213.70449219 130.65453125 214.34257812 130.8246875 215 131 C215.19834763 135.46549183 215.3431785 139.92863025 215.43945312 144.3972168 C215.47959307 145.91557479 215.5341233 147.43362522 215.60351562 148.95092773 C216.16256606 161.49256657 216.16256606 161.49256657 213.4362793 165.02758789 C211.32657418 166.38701684 209.37868976 167.21262059 207 168 C205.81019531 168.54785156 204.62039063 169.09570312 203.39453125 169.66015625 C202.21246094 170.12292969 201.03039062 170.58570313 199.8125 171.0625 C198.64332031 171.52785156 197.47414063 171.99320313 196.26953125 172.47265625 C185.76035477 176.33086589 175.30064363 178.92044689 164.25 180.6875 C163.59424988 180.7942807 162.93849976 180.9010614 162.26287842 181.01107788 C152.14815168 182.65155734 142.24422798 183.76645283 132 184 C130.54500216 184.12640645 129.09056651 184.25942672 127.63671875 184.3984375 C123.64003695 184.71002958 119.95985802 184.79940796 116 184 C113.68721078 181.72306797 112.64984667 179.63326746 111.33203125 176.6796875 C108.79985868 171.58563946 104.23384038 168.25812643 98.98272705 166.21517944 C92.10060622 163.95581522 85.77259724 163.54713269 78.5625 163.56640625 C76.82141968 163.55854347 76.82141968 163.55854347 75.04516602 163.55052185 C72.60466304 163.54413262 70.16412915 163.54539816 67.72363281 163.55395508 C64.01050577 163.56247589 60.29891349 163.53363968 56.5859375 163.50195312 C54.20312546 163.50034101 51.82031072 163.50091885 49.4375 163.50390625 C48.33929932 163.49267227 47.24109863 163.48143829 46.10961914 163.46986389 C36.34357799 163.55727518 28.00438073 165.95921199 20.828125 172.84375 C14.22856735 180.62784364 12.08555431 188.32794827 12.55078125 198.44921875 C13.65560156 207.18210276 17.24316221 214.26306225 24 220 C29.7777999 223.52990207 35.28349261 226.10370398 42.10717773 226.17700195 C43.14933945 226.18983719 44.19150116 226.20267242 45.26524353 226.21589661 C46.3932991 226.22328354 47.52135468 226.23067047 48.68359375 226.23828125 C49.84947525 226.246353 51.01535675 226.25442474 52.21656799 226.26274109 C54.69050611 226.2765855 57.16446336 226.28730605 59.63842773 226.29516602 C63.39149234 226.31229008 67.14365556 226.35616412 70.89648438 226.40039062 C73.30468105 226.41052565 75.71288519 226.41903921 78.12109375 226.42578125 C79.78584999 226.45204338 79.78584999 226.45204338 81.48423767 226.47883606 C91.91279143 226.45033671 101.23531485 224.29317816 109.18359375 217.26953125 C111.04830207 215.14076851 111.04830207 215.14076851 111.93385315 212.86633301 C114.76367446 206.55895344 114.76367446 206.55895344 118.04246521 205.07658386 C120.58124797 204.63717306 123.01841872 204.46893027 125.59375 204.38671875 C127.00666321 204.28687431 127.00666321 204.28687431 128.44812012 204.18501282 C131.46445153 203.9787083 134.48005762 203.83035144 137.5 203.6875 C141.42841795 203.46069873 145.35493108 203.20968698 149.28125 202.94921875 C150.2498999 202.88789764 151.2185498 202.82657654 152.21655273 202.76339722 C162.32007954 202.04921358 172.1126561 200.1245495 182 198 C183.66609097 197.66380099 185.33241624 197.32871459 187 197 C178.09065198 221.31778566 152.30166596 237.71310599 129.87255859 248.140625 C128.94564209 248.56601562 128.94564209 248.56601562 128 249 C126.94425781 249.4846875 125.88851562 249.969375 124.80078125 250.46875 C109.49799276 256.89552929 92.26035068 259.10241267 75.76171875 259.23828125 C74.80086868 259.246353 73.84001862 259.25442474 72.85005188 259.26274109 C70.82217159 259.27649892 68.79426896 259.28725773 66.76635742 259.29516602 C64.7334086 259.30661153 62.70048802 259.3269433 60.66772461 259.35668945 C23.60887771 259.89692348 -9.05243142 247.90088594 -36.08740234 222.3112793 C-55.02444824 203.81637588 -67.72121935 179.03673216 -72 153 C-72.16351896 152.08201032 -72.32703793 151.16402063 -72.49551201 150.21821308 C-73.82114737 142.36896763 -74.27716455 134.81668413 -74.22705078 126.8659668 C-74.22734283 125.62536499 -74.22763489 124.38476318 -74.22793579 123.10656738 C-74.22679257 119.74990619 -74.21685892 116.3935002 -74.20278788 113.03688407 C-74.19016696 109.51221219 -74.18910116 105.98753584 -74.18673706 102.46284485 C-74.18055531 95.80858552 -74.16418993 89.154393 -74.14403808 82.5001629 C-74.12157532 74.91597648 -74.11065973 67.33178664 -74.10064721 59.74757516 C-74.07982022 44.16501161 -74.04470955 28.58251447 -74 13 C-73.3626593 12.99857498 -72.7253186 12.99714996 -72.06866455 12.99568176 C-65.38372774 12.97586446 -58.69968933 12.92133499 -52.01513672 12.84741211 C-49.52659571 12.82433719 -47.0379585 12.8098613 -44.54931641 12.80444336 C-40.95415005 12.79507719 -37.3604752 12.75391612 -33.765625 12.70703125 C-32.11956268 12.71293022 -32.11956268 12.71293022 -30.44024658 12.71894836 C-19.1216496 12.50923919 -10.27240859 8.76389443 -1.83984375 1.2578125 C-1.23269531 0.84273437 -0.62554687 0.42765625 0 0 Z " fill="#BFFEE2" transform="translate(191,189)"/>
<path d="M0 0 C1.81823828 -0.00389932 3.63647566 -0.00823647 5.45471191 -0.01298523 C9.2536922 -0.02040954 13.05257952 -0.02018551 16.8515625 -0.01489258 C21.6607421 -0.00912739 26.46953284 -0.02597597 31.27864838 -0.04923725 C35.03334689 -0.06415608 38.78795591 -0.0648216 42.54267883 -0.06172752 C44.31245183 -0.06223249 46.08223098 -0.06731031 47.85197449 -0.07753944 C57.28033229 -0.12532661 66.47454266 0.26411276 75.81445312 1.62426758 C76.6130349 1.73899508 77.41161667 1.85372259 78.23439789 1.97192669 C95.76919558 4.78586061 112.7565806 13.86084412 126.15625 25.30078125 C126.95417969 25.95433594 127.75210938 26.60789062 128.57421875 27.28125 C148.53273052 44.26919257 161.55101172 70.3096982 164.15625 96.30078125 C164.17884537 98.20300338 164.1844604 100.10547079 164.17700195 102.0078125 C164.17400589 102.99885986 164.17100983 103.98990723 164.16792297 105.01098633 C164.16407089 105.76661865 164.16021881 106.52225098 164.15625 107.30078125 C145.49243405 107.39448768 126.82866625 107.46488878 108.16466331 107.50802994 C99.49739055 107.52859925 90.8302645 107.55661126 82.16308594 107.60253906 C74.60314536 107.64258024 67.04331111 107.66825492 59.48326743 107.67713523 C55.48533747 107.68232094 51.48771151 107.6943896 47.48987961 107.72370148 C43.71579712 107.75114485 39.94213965 107.75916892 36.16796684 107.75321198 C34.14526274 107.75481231 32.12260339 107.77618199 30.10002136 107.79846191 C12.73365195 107.72140882 -1.79529765 101.97903841 -14.3359375 89.9921875 C-21.92294226 81.84974781 -25.40329155 72.73726487 -28.84375 62.30078125 C-30.41962287 57.55079488 -30.41962287 57.55079488 -33.65625 53.86328125 C-37.74385213 52.81218356 -40.72120752 52.79053467 -44.59375 54.55078125 C-47.85886114 57.09031214 -48.67713307 59.21136285 -49.30078125 63.2890625 C-49.41808594 64.38605469 -49.53539062 65.48304688 -49.65625 66.61328125 C-50.75716503 74.22581 -52.88891587 78.00927723 -58.90625 82.67578125 C-62.86328524 84.86477947 -65.94041147 85.42691422 -70.42871094 85.41430664 C-71.32934265 85.41423111 -72.22997437 85.41415558 -73.15789795 85.41407776 C-74.12157288 85.40891647 -75.0852478 85.40375519 -76.078125 85.3984375 C-77.07128723 85.39702255 -78.06444946 85.3956076 -79.08770752 85.39414978 C-82.25641912 85.38855713 -85.42505979 85.37600595 -88.59375 85.36328125 C-90.74348856 85.3582653 -92.89322823 85.35370256 -95.04296875 85.34960938 C-100.30991999 85.33859011 -105.57682993 85.32185925 -110.84375 85.30078125 C-108.33791078 67.12909418 -100.36240688 52.36148654 -88.84375 38.30078125 C-88.15796875 37.45 -87.4721875 36.59921875 -86.765625 35.72265625 C-64.58298529 9.59643615 -33.19970018 -0.02997815 0 0 Z " fill="#4BD68C" transform="translate(230.84375,95.69921875)"/>
<path d="M0 0 C0 31.68 0 63.36 0 96 C-29.26597938 96 -29.26597938 96 -36.2421875 90.10546875 C-36.78101563 89.47253906 -37.31984375 88.83960938 -37.875 88.1875 C-38.42929687 87.56230469 -38.98359375 86.93710937 -39.5546875 86.29296875 C-43.89942116 79.40010751 -43.32161329 71.6332623 -43.3359375 63.76171875 C-43.3425943 62.48577347 -43.3492511 61.20982819 -43.35610962 59.8952179 C-43.3662144 57.20124306 -43.37179515 54.50767212 -43.37060547 51.8137207 C-43.37040261 48.38765832 -43.39768896 44.96242849 -43.43214989 41.53656292 C-43.45994043 38.23664755 -43.4585726 34.93673508 -43.4609375 31.63671875 C-43.47530853 30.41973801 -43.48967957 29.20275726 -43.50448608 27.94889832 C-43.46233089 20.01644311 -42.81927932 12.16155314 -37.22055054 6.06108093 C-25.97499088 -4.14218156 -18.33388502 0 0 0 Z " fill="#4BD68B" transform="translate(96,203)"/>
<path d="M0 0 C28 0 28 0 36 5 C42.49365726 11.49365726 43.34506762 18.93206541 43.4168396 27.69665527 C43.41076691 28.92082153 43.40469421 30.14498779 43.3984375 31.40625 C43.40130768 32.68552368 43.40417786 33.96479736 43.40713501 35.28283691 C43.41153535 37.97919699 43.40520214 40.67525708 43.39111328 43.37158203 C43.37402222 46.80780168 43.38387585 50.2433181 43.40183067 53.67951202 C43.41534905 56.98431264 43.40585219 60.28892949 43.3984375 63.59375 C43.40754654 65.42999939 43.40754654 65.42999939 43.4168396 67.30334473 C43.34814733 75.69184845 42.5425654 82.70034037 36.875 89.3125 C36.35679687 89.94800781 35.83859375 90.58351563 35.3046875 91.23828125 C25.17052884 98.98490084 11.77697814 96 0 96 C0 64.32 0 32.64 0 0 Z " fill="#4BD68B" transform="translate(416,203)"/>
<path d="M0 0 C0.94132782 -0.0127597 1.88265564 -0.02551941 2.85250854 -0.03866577 C3.86298248 -0.04089142 4.87345642 -0.04311707 5.91455078 -0.04541016 C7.48283127 -0.05539536 7.48283127 -0.05539536 9.08279419 -0.06558228 C11.29345949 -0.07570243 13.50415531 -0.08039949 15.71484375 -0.08007812 C19.09052084 -0.08444762 22.46488653 -0.12076505 25.84033203 -0.15869141 C27.99006715 -0.16456046 30.13980847 -0.16852926 32.28955078 -0.17041016 C33.29597626 -0.18478119 34.30240173 -0.19915222 35.33932495 -0.21395874 C41.28889842 -0.17532638 44.72135461 0.29888465 49.23486328 4.29052734 C51.69627575 7.98264604 51.92136535 11.00407539 51.23486328 15.29052734 C49.0593207 18.86463301 47.06710908 20.71771646 43.23486328 22.29052734 C40.97195435 22.55795288 40.97195435 22.55795288 38.46972656 22.58105469 C37.05773483 22.60019424 37.05773483 22.60019424 35.61721802 22.61972046 C34.60674408 22.62194611 33.59627014 22.62417175 32.55517578 22.62646484 C31.50965546 22.63312164 30.46413513 22.63977844 29.38693237 22.64663696 C27.17626707 22.65675711 24.96557126 22.66145418 22.75488281 22.66113281 C19.37920572 22.66550231 16.00484003 22.70181974 12.62939453 22.73974609 C10.47965941 22.74561514 8.32991809 22.74958395 6.18017578 22.75146484 C4.67053757 22.77302139 4.67053757 22.77302139 3.13040161 22.79501343 C-2.8240367 22.75634948 -6.21773478 22.23703251 -10.76513672 18.29052734 C-13.35050217 14.88254562 -13.20295618 11.44981224 -12.76513672 7.29052734 C-9.48730581 2.02258482 -6.12945924 0.0565902 0 0 Z " fill="#4BD389" transform="translate(236.76513671875,372.70947265625)"/>
</svg>
