<?xml version="1.0" encoding="UTF-8"?>
<svg version="1.1" xmlns="http://www.w3.org/2000/svg" width="512" height="512">
<path d="M0 0 C0.9724968 -0.00525911 0.9724968 -0.00525911 1.96463999 -0.01062447 C4.14014838 -0.01993872 6.31538909 -0.01501518 8.49090862 -0.01015663 C10.06519832 -0.01389288 11.63948616 -0.01849431 13.21377105 -0.02388728 C17.54245183 -0.0361358 21.87105543 -0.03585463 26.19974959 -0.03349853 C30.86721881 -0.03309083 35.53466313 -0.04412501 40.20212078 -0.05361366 C49.34757338 -0.07023477 58.4930002 -0.07572371 67.63846663 -0.07683842 C75.0715403 -0.07778836 82.50460545 -0.08189598 89.93767643 -0.08823967 C111.00655055 -0.10585508 132.07540429 -0.11507807 153.14428584 -0.11357872 C154.8484411 -0.11345885 154.8484411 -0.11345885 156.58702374 -0.11333656 C158.29325701 -0.11321392 158.29325701 -0.11321392 160.03395965 -0.1130888 C178.47080581 -0.11227581 196.90757028 -0.13141606 215.34439281 -0.1596133 C234.27004325 -0.18833002 253.19565384 -0.20215426 272.12132663 -0.20042574 C282.74872453 -0.19976143 293.37603681 -0.20527207 304.00341511 -0.22678185 C313.05154376 -0.24497768 322.09954798 -0.24935411 331.147687 -0.235763 C335.76438243 -0.22922529 340.38083903 -0.22914507 344.99751186 -0.2464695 C349.2248602 -0.26216984 353.45177972 -0.25936783 357.6791174 -0.24190123 C359.20736587 -0.23882462 360.73564609 -0.24248863 362.2638571 -0.25362138 C371.44138888 -0.31604346 378.47066426 -0.09850738 385.68345928 6.22211266 C386.22228741 6.87308922 386.76111553 7.52406578 387.31627178 8.19476891 C387.87056866 8.84316734 388.42486553 9.49156578 388.99595928 10.15961266 C392.93307676 15.87375343 392.66601045 21.04017253 392.51114178 27.74872398 C392.49506164 28.81852249 392.4789815 29.888321 392.46241409 30.99053764 C392.42604167 33.33865478 392.38496999 35.68670258 392.33985233 38.03466797 C392.22775949 43.88690206 392.14412392 49.73956278 392.0566922 55.59220541 C392.02474732 57.6998695 391.99147345 59.80750935 391.95794046 61.91514874 C391.7948935 72.28023277 391.68353111 82.64515077 391.60138226 93.01117516 C391.59533441 93.76670827 391.58928657 94.52224138 391.58305546 95.30066943 C391.52716964 102.33090422 391.47474444 109.36116289 391.42493474 116.39144325 C391.39059663 121.21864048 391.3544524 126.04582127 391.31651592 130.87299156 C391.30710791 132.07475843 391.30710791 132.07475843 391.29750983 133.30080342 C391.20727282 144.4758504 391.04690906 155.64796794 390.83065249 166.82125533 C390.45729461 186.13331076 390.23447182 205.44135573 390.26549053 224.75726891 C390.2663271 225.51319155 390.26716366 226.2691142 390.26802558 227.04794359 C390.35025086 279.02219925 398.47457007 323.33931885 418.75162494 371.64865685 C424.68101974 385.89999842 429.18110763 402.5001987 423.53466511 417.6973629 C421.71112769 421.48440732 419.74275691 424.45128716 416.50377178 427.13226891 C415.85537334 427.68656578 415.20697491 428.24086266 414.53892803 428.81195641 C410.14190669 431.84156142 406.38324798 432.50553334 401.0904417 432.48431969 C399.19904713 432.48409309 399.19904713 432.48409309 397.26944256 432.48386192 C395.90354026 432.47365027 394.53763959 432.4632183 393.17174053 432.45258141 C391.7664132 432.44884831 390.36108325 432.44600274 388.95575237 432.44400597 C385.2682751 432.43639279 381.58095696 432.41676443 377.89354229 432.39459801 C374.12627089 432.3740895 370.35897362 432.36499357 366.59166241 432.35492516 C359.20812655 432.33351616 351.82472152 432.29940845 344.44127178 432.25726891 C344.45323589 432.87464424 344.4652 433.49201958 344.47752666 434.12810326 C344.48683208 434.93828407 344.4961375 435.74846489 344.50572491 436.58319664 C344.51768902 437.38619698 344.52965313 438.18919731 344.54197979 439.01653099 C344.24151708 445.70178081 338.68244824 451.2098696 334.12877178 455.63226891 C333.45201397 456.23812828 332.77525616 456.84398766 332.07799053 457.46820641 C328.24706698 461.65570757 329.19415516 467.79125831 329.01549053 473.16351891 C328.33235892 476.84406475 327.43011524 478.05663372 324.44127178 480.25726891 C322.44127178 480.78851891 322.44127178 480.78851891 320.44127178 480.75726891 C319.45127178 480.77273766 319.45127178 480.77273766 318.44127178 480.78851891 C315.30071093 479.95430743 314.2971681 478.9560177 312.44127178 476.25726891 C311.79045079 472.8764007 311.7757283 469.56743452 311.81627178 466.13226891 C311.82465069 465.18392174 311.83302959 464.23557457 311.84166241 463.25848961 C312.17142027 453.08072365 315.66709164 447.91787388 322.75377178 440.88226891 C323.43052959 440.27640953 324.10728741 439.67055016 324.80455303 439.04633141 C328.21215505 435.32155402 327.58448962 430.5637481 327.57066631 425.76654625 C327.57241863 425.0181498 327.57417095 424.26975334 327.57597637 423.49867821 C327.58037024 421.03016388 327.57746617 418.56172144 327.57408428 416.09320641 C327.57475789 414.37735544 327.57572839 412.66150456 327.57698345 410.94565392 C327.57845696 407.35290174 327.57631645 403.76017444 327.57164288 400.16742516 C327.5659372 395.55591102 327.56923208 390.94445498 327.57521534 386.33294296 C327.57882297 382.79171877 327.57768158 379.25050843 327.57508755 375.70928383 C327.57441928 374.00837383 327.57524321 372.30746258 327.5775671 370.60655403 C327.58009784 368.23406942 327.57624744 365.86167999 327.57066631 363.4892025 C327.57370266 362.4294043 327.57370266 362.4294043 327.57680035 361.34819603 C327.60799313 357.67930242 327.60799313 357.67930242 326.44127178 354.25726891 C325.12127178 354.25726891 323.80127178 354.25726891 322.44127178 354.25726891 C320.94995702 357.23989843 321.29402292 359.9878305 321.26549053 363.31195641 C321.24229175 364.74556483 321.21817438 366.17915863 321.19322491 367.61273766 C321.15811405 369.87309104 321.128768 372.1329065 321.11534405 374.39349937 C321.09985159 376.57531422 321.05963957 378.75555769 321.01549053 380.93695641 C321.00090801 382.24390465 320.98632549 383.55085289 320.97130108 384.89740562 C320.36347941 388.75039587 319.51348807 389.94009187 316.44127178 392.25726891 C314.44127178 392.78851891 314.44127178 392.78851891 312.44127178 392.75726891 C311.45127178 392.77273766 311.45127178 392.77273766 310.44127178 392.78851891 C307.30532577 391.95553325 306.36457264 390.91750337 304.44127178 388.25726891 C303.81836602 384.6586895 303.86025354 381.08187796 303.86705303 377.43695641 C303.85288845 376.38194939 303.83872387 375.32694237 303.82413006 374.23996544 C303.78219452 370.87062954 303.76698103 367.50182921 303.75377178 364.13226891 C303.72474302 360.75581654 303.69023316 357.37950099 303.6512785 354.00314903 C303.62874411 351.90203591 303.61295343 349.80083789 303.60443401 347.6996212 C303.59739956 346.75168694 303.5903651 345.80375267 303.58311749 344.82709312 C303.57963802 343.99088432 303.57615856 343.15467552 303.57257366 342.29312706 C303.56934507 340.18948193 303.56934507 340.18948193 302.44127178 338.25726891 C301.12127178 338.25726891 299.80127178 338.25726891 298.44127178 338.25726891 C297.24337356 340.65306534 297.31055512 342.15248369 297.29942608 344.82709312 C297.29239162 345.77502739 297.28535717 346.72296165 297.27810955 347.6996212 C297.27186314 349.24022713 297.27186314 349.24022713 297.26549053 350.81195641 C297.24229487 352.97472658 297.21817764 355.13748704 297.19322491 357.30023766 C297.15807452 360.71941211 297.12874842 364.13822853 297.11534405 367.55756187 C297.09989576 370.85113684 297.05970653 374.14365863 297.01549053 377.43695641 C297.01739895 378.45997856 297.01930737 379.48300072 297.02127361 380.53702354 C296.89879036 387.62444713 296.89879036 387.62444713 294.53038311 390.90033531 C292.27686852 392.36405322 291.10755269 392.79892954 288.44127178 392.75726891 C287.45127178 392.77273766 287.45127178 392.77273766 286.44127178 392.78851891 C283.52115922 392.01286401 282.34787688 390.56990675 280.44127178 388.25726891 C279.92901897 385.66373253 279.92901897 385.66373253 279.91124249 382.69428062 C279.89475155 381.57987602 279.87826061 380.46547142 279.86126995 379.31729698 C279.86413258 377.5202784 279.86413258 377.5202784 279.86705303 375.68695641 C279.84580616 373.83809334 279.84580616 373.83809334 279.82413006 371.9518795 C279.78928884 368.68105171 279.77092368 365.41069777 279.76134014 362.13971519 C279.74393603 357.52341434 279.69685553 352.90733101 279.6512785 348.29123497 C279.62872715 345.8339931 279.6129469 343.37667836 279.60443401 340.91934776 C279.59739956 339.81124748 279.5903651 338.7031472 279.58311749 337.56146812 C279.57963802 336.58314018 279.57615856 335.60481224 279.57257366 334.596838 C279.59504471 332.23448763 279.59504471 332.23448763 278.44127178 330.25726891 C277.12127178 330.25726891 275.80127178 330.25726891 274.44127178 330.25726891 C273.15489686 332.83001874 273.30967128 334.68080127 273.29942608 337.56146812 C273.29239162 338.66956841 273.28535717 339.77766869 273.27810955 340.91934776 C273.27186314 342.72243904 273.27186314 342.72243904 273.26549053 344.56195641 C273.24229575 347.08930852 273.21817856 349.6166523 273.19322491 352.14398766 C273.15806324 356.14258247 273.12705978 360.14086702 273.11534405 364.13959312 C273.09990804 367.98909475 273.05972573 371.83769232 273.01549053 375.68695641 C273.01739895 376.8849688 273.01930737 378.08298119 273.02127361 379.31729698 C273.00478268 380.43170158 272.98829174 381.54610619 272.97130108 382.69428062 C272.96543484 383.67419975 272.9595686 384.65411888 272.95352459 385.66373253 C272.29992206 388.97292268 271.03334 390.16872288 268.44127178 392.25726891 C266.44127178 392.78851891 266.44127178 392.78851891 264.44127178 392.75726891 C263.45127178 392.77273766 263.45127178 392.77273766 262.44127178 392.78851891 C259.30532577 391.95553325 258.36457264 390.91750337 256.44127178 388.25726891 C255.81836602 384.6586895 255.86025354 381.08187796 255.86705303 377.43695641 C255.85288845 376.38194939 255.83872387 375.32694237 255.82413006 374.23996544 C255.78219452 370.87062954 255.76698103 367.50182921 255.75377178 364.13226891 C255.72474302 360.75581654 255.69023316 357.37950099 255.6512785 354.00314903 C255.62874411 351.90203591 255.61295343 349.80083789 255.60443401 347.6996212 C255.59739956 346.75168694 255.5903651 345.80375267 255.58311749 344.82709312 C255.57963802 343.99088432 255.57615856 343.15467552 255.57257366 342.29312706 C255.56934507 340.18948193 255.56934507 340.18948193 254.44127178 338.25726891 C253.12127178 338.25726891 251.80127178 338.25726891 250.44127178 338.25726891 C248.97917283 341.18146681 249.30842515 343.76479266 249.29942608 347.03021812 C249.29595165 347.72634209 249.29247723 348.42246605 249.28889751 349.13968468 C249.28153923 350.65330645 249.27619423 352.16693901 249.27260685 353.68057442 C249.26544774 356.07627455 249.24978575 358.4717691 249.23126507 360.86740685 C249.17876748 367.67946118 249.1308096 374.49140332 249.11534405 381.30365562 C249.10526718 385.46885465 249.07595099 389.63353737 249.03402424 393.79853249 C249.02170497 395.3861062 249.01659468 396.97375281 249.01882267 398.56137276 C249.0211736 400.78331988 248.99902854 403.00378386 248.97130108 405.22553062 C248.96543484 406.48968803 248.9595686 407.75384544 248.95352459 409.05631065 C248.3534196 412.80623842 247.42316659 413.98547541 244.44127178 416.25726891 C242.44127178 416.78851891 242.44127178 416.78851891 240.44127178 416.75726891 C239.45127178 416.77273766 239.45127178 416.77273766 238.44127178 416.78851891 C235.48514074 416.0032966 234.34142617 414.63221766 232.44127178 412.25726891 C231.98717022 409.23285484 231.98717022 409.23285484 232.05064678 405.74164391 C232.06998272 403.86605797 232.06998272 403.86605797 232.08970928 401.95258141 C232.13998272 399.99965172 232.13998272 399.99965172 232.19127178 398.00726891 C232.20931866 396.68984703 232.22736553 395.37242516 232.24595928 394.01508141 C232.29310907 390.76174583 232.35891134 387.50987266 232.44127178 384.25726891 C230.42081736 384.85910639 228.42016139 385.53032987 226.44127178 386.25726891 C225.27876865 388.58227516 225.30866134 389.94696959 225.29600811 392.53583336 C225.28962826 393.42047768 225.28324841 394.30512199 225.27667522 395.21657372 C225.2755624 396.17488594 225.27444958 397.13319817 225.27330303 398.12055016 C225.26997463 399.10468391 225.26664623 400.08881767 225.26321697 401.10277367 C225.25814746 403.18836562 225.25580865 405.27396571 225.25596905 407.35956383 C225.25378784 410.54630551 225.23564688 413.73269814 225.21666241 416.91937828 C225.21372742 418.94476772 225.21174333 420.97015881 225.21080303 422.99555016 C225.20361752 423.94778969 225.196432 424.90002922 225.18902874 425.8811245 C225.20819194 431.45014987 225.26167137 435.89002078 229.21080303 440.17914391 C230.56326868 441.38938085 231.91741399 442.5977436 233.27330303 443.80414391 C239.40128967 450.73815402 241.2442157 456.91340441 241.00377178 466.06976891 C241.01472881 466.99724937 241.02568584 467.92472984 241.03697491 468.88031578 C240.96546939 475.49219275 240.96546939 475.49219275 238.65611553 478.86273766 C236.33484595 480.32427776 235.15698337 480.7997019 232.44127178 480.75726891 C231.45127178 480.77273766 231.45127178 480.77273766 230.44127178 480.78851891 C227.4582714 479.99615943 226.28861975 478.70560999 224.44127178 476.25726891 C223.90220928 473.19867516 223.90220928 473.19867516 223.81627178 469.81976891 C223.65512148 464.47081861 223.41085183 460.39641545 219.67174053 456.33539391 C218.660471 455.43047203 218.660471 455.43047203 217.62877178 454.50726891 C213.63003457 450.62507048 210.14594145 446.64173031 208.44127178 441.25726891 C208.44127178 438.28726891 208.44127178 435.31726891 208.44127178 432.25726891 C192.60127178 432.25726891 176.76127178 432.25726891 160.44127178 432.25726891 C160.44127178 435.22726891 160.44127178 438.19726891 160.44127178 441.25726891 C158.00201096 447.84512106 153.23822308 452.84856965 148.07799053 457.46820641 C144.24706698 461.65570757 145.19415516 467.79125831 145.01549053 473.16351891 C144.33235892 476.84406475 143.43011524 478.05663372 140.44127178 480.25726891 C138.44127178 480.78851891 138.44127178 480.78851891 136.44127178 480.75726891 C135.45127178 480.77273766 135.45127178 480.77273766 134.44127178 480.78851891 C131.30071093 479.95430743 130.2971681 478.9560177 128.44127178 476.25726891 C127.79045079 472.8764007 127.7757283 469.56743452 127.81627178 466.13226891 C127.82465069 465.18392174 127.83302959 464.23557457 127.84166241 463.25848961 C128.17142027 453.08072365 131.66709164 447.91787388 138.75377178 440.88226891 C139.43052959 440.27640953 140.10728741 439.67055016 140.80455303 439.04633141 C143.57800051 436.01473488 143.56763823 432.69904872 143.60240459 428.71991539 C143.61201214 427.82896675 143.62161968 426.93801811 143.63151836 426.02007103 C143.63576824 425.06580727 143.64001812 424.1115435 143.64439678 423.12836266 C143.65009686 422.14231544 143.65579693 421.15626823 143.66166973 420.14034081 C143.67110497 418.05831535 143.67764784 415.97627506 143.68150616 413.8942318 C143.69124625 410.70313353 143.72229753 407.51267015 143.75377178 404.32172203 C143.76029873 402.2989394 143.76555041 400.27615216 143.76939678 398.25336266 C143.78791698 396.81893066 143.78791698 396.81893066 143.80681133 395.35552025 C143.80230968 394.02382553 143.80230968 394.02382553 143.79771709 392.66522789 C143.80136272 391.88453438 143.80500835 391.10384087 143.80876446 390.29948997 C143.34483822 387.72137075 142.47724551 386.85567877 140.44127178 385.25726891 C138.33794287 384.54279248 138.33794287 384.54279248 136.44127178 384.25726891 C136.46221905 385.08452477 136.48316631 385.91178062 136.50474834 386.76410484 C136.58788797 390.51170261 136.63992709 394.2591064 136.69127178 398.00726891 C136.72478741 399.30922203 136.75830303 400.61117516 136.79283428 401.95258141 C136.80572491 403.20297203 136.81861553 404.45336266 136.83189678 405.74164391 C136.85284405 406.89374352 136.87379131 408.04584312 136.89537334 409.23285484 C136.34646029 412.88873384 135.32485378 414.02520752 132.44127178 416.25726891 C130.44127178 416.78851891 130.44127178 416.78851891 128.44127178 416.75726891 C127.45127178 416.77273766 127.45127178 416.77273766 126.44127178 416.78851891 C123.4680975 415.99876949 122.34506353 414.65808259 120.44127178 412.25726891 C119.92901897 409.05631065 119.92901897 409.05631065 119.91124249 405.22553062 C119.9025111 404.52590202 119.89377972 403.82627342 119.88478374 403.10544395 C119.86043791 400.79901936 119.86381615 398.493493 119.86705303 396.18695641 C119.85460813 394.58319128 119.84027396 392.97943979 119.82413006 391.37570763 C119.78610255 387.15801746 119.77091571 382.94056215 119.76134014 378.72272301 C119.74159504 371.96448373 119.68482345 365.20642353 119.63257694 358.44837379 C119.61720402 356.08516691 119.61003501 353.72204901 119.60443401 351.35880089 C119.59741972 349.91593952 119.59031895 348.47307857 119.58311749 347.03021812 C119.57963802 345.7676519 119.57615856 344.50508568 119.57257366 343.20425987 C119.64455738 340.32470756 119.64455738 340.32470756 118.44127178 338.25726891 C117.12127178 338.25726891 115.80127178 338.25726891 114.44127178 338.25726891 C113.24337356 340.65306534 113.31055512 342.15248369 113.29942608 344.82709312 C113.29239162 345.77502739 113.28535717 346.72296165 113.27810955 347.6996212 C113.27186314 349.24022713 113.27186314 349.24022713 113.26549053 350.81195641 C113.24229487 352.97472658 113.21817764 355.13748704 113.19322491 357.30023766 C113.15807452 360.71941211 113.12874842 364.13822853 113.11534405 367.55756187 C113.09989576 370.85113684 113.05970653 374.14365863 113.01549053 377.43695641 C113.01739895 378.45997856 113.01930737 379.48300072 113.02127361 380.53702354 C112.89879036 387.62444713 112.89879036 387.62444713 110.53038311 390.90033531 C108.27686852 392.36405322 107.10755269 392.79892954 104.44127178 392.75726891 C103.45127178 392.77273766 103.45127178 392.77273766 102.44127178 392.78851891 C99.52115922 392.01286401 98.34787688 390.56990675 96.44127178 388.25726891 C95.92901897 385.66373253 95.92901897 385.66373253 95.91124249 382.69428062 C95.89475155 381.57987602 95.87826061 380.46547142 95.86126995 379.31729698 C95.86413258 377.5202784 95.86413258 377.5202784 95.86705303 375.68695641 C95.85288845 374.45438103 95.83872387 373.22180565 95.82413006 371.9518795 C95.78928884 368.68105171 95.77092368 365.41069777 95.76134014 362.13971519 C95.74393603 357.52341434 95.69685553 352.90733101 95.6512785 348.29123497 C95.62872715 345.8339931 95.6129469 343.37667836 95.60443401 340.91934776 C95.59388233 339.25719734 95.59388233 339.25719734 95.58311749 337.56146812 C95.57963802 336.58314018 95.57615856 335.60481224 95.57257366 334.596838 C95.59504471 332.23448763 95.59504471 332.23448763 94.44127178 330.25726891 C93.12127178 330.25726891 91.80127178 330.25726891 90.44127178 330.25726891 C89.15489686 332.83001874 89.30967128 334.68080127 89.29942608 337.56146812 C89.29239162 338.66956841 89.28535717 339.77766869 89.27810955 340.91934776 C89.27186314 342.72243904 89.27186314 342.72243904 89.26549053 344.56195641 C89.24229575 347.08930852 89.21817856 349.6166523 89.19322491 352.14398766 C89.15806324 356.14258247 89.12705978 360.14086702 89.11534405 364.13959312 C89.09990804 367.98909475 89.05972573 371.83769232 89.01549053 375.68695641 C89.01739895 376.8849688 89.01930737 378.08298119 89.02127361 379.31729698 C89.00478268 380.43170158 88.98829174 381.54610619 88.97130108 382.69428062 C88.96543484 383.67419975 88.9595686 384.65411888 88.95352459 385.66373253 C88.29992206 388.97292268 87.03334 390.16872288 84.44127178 392.25726891 C82.44127178 392.78851891 82.44127178 392.78851891 80.44127178 392.75726891 C79.45127178 392.77273766 79.45127178 392.77273766 78.44127178 392.78851891 C75.30532577 391.95553325 74.36457264 390.91750337 72.44127178 388.25726891 C71.81836602 384.6586895 71.86025354 381.08187796 71.86705303 377.43695641 C71.84580616 375.85444588 71.84580616 375.85444588 71.82413006 374.23996544 C71.78219452 370.87062954 71.76698103 367.50182921 71.75377178 364.13226891 C71.72474302 360.75581654 71.69023316 357.37950099 71.6512785 354.00314903 C71.62874411 351.90203591 71.61295343 349.80083789 71.60443401 347.6996212 C71.59388233 346.2777198 71.59388233 346.2777198 71.58311749 344.82709312 C71.57963802 343.99088432 71.57615856 343.15467552 71.57257366 342.29312706 C71.56934507 340.18948193 71.56934507 340.18948193 70.44127178 338.25726891 C69.12127178 338.25726891 67.80127178 338.25726891 66.44127178 338.25726891 C65.24337356 340.65306534 65.31055512 342.15248369 65.29942608 344.82709312 C65.29239162 345.77502739 65.28535717 346.72296165 65.27810955 347.6996212 C65.27186314 349.24022713 65.27186314 349.24022713 65.26549053 350.81195641 C65.24229487 352.97472658 65.21817764 355.13748704 65.19322491 357.30023766 C65.15807452 360.71941211 65.12874842 364.13822853 65.11534405 367.55756187 C65.09989576 370.85113684 65.05970653 374.14365863 65.01549053 377.43695641 C65.01739895 378.45997856 65.01930737 379.48300072 65.02127361 380.53702354 C64.89879036 387.62444713 64.89879036 387.62444713 62.53038311 390.90033531 C60.27686852 392.36405322 59.10755269 392.79892954 56.44127178 392.75726891 C55.45127178 392.77273766 55.45127178 392.77273766 54.44127178 392.78851891 C51.45770625 391.99600931 50.34644592 390.67433537 48.44127178 388.25726891 C47.91124249 384.89740562 47.91124249 384.89740562 47.86705303 380.93695641 C47.85288845 380.23708611 47.83872387 379.53721581 47.82413006 378.81613731 C47.78231155 376.58802361 47.76700486 374.36071938 47.75377178 372.13226891 C47.7247087 369.89705347 47.69017674 367.66204237 47.6512785 365.42697716 C47.61854632 363.40423638 47.60048116 361.38127421 47.58311749 359.35834312 C47.65562508 356.34774436 47.65562508 356.34774436 46.44127178 354.25726891 C45.12127178 354.25726891 43.80127178 354.25726891 42.44127178 354.25726891 C40.96084046 357.21813154 41.29392122 360.22703433 41.29600811 363.47333336 C41.2926495 364.21661888 41.28929089 364.9599044 41.2858305 365.72571373 C41.27630745 368.19067607 41.27437654 370.65557055 41.27330303 373.12055016 C41.27009079 374.83207286 41.26672674 376.54359529 41.26321697 378.25511742 C41.2572219 381.84723103 41.2553774 385.43932057 41.25596905 389.03143883 C41.25607055 393.63154847 41.24243189 398.23150335 41.22519684 402.83157635 C41.21406929 406.36863982 41.21205009 409.90566602 41.21257877 413.44274521 C41.21139928 415.13838991 41.20697918 416.8340356 41.19924641 418.52966309 C41.18943369 420.9042252 41.19232982 423.2784532 41.19835186 425.65302086 C41.19273235 426.35190926 41.18711285 427.05079765 41.18132305 427.77086449 C41.2132576 432.73386848 41.79426689 436.46846889 45.21080303 440.17914391 C46.56326868 441.38938085 47.91741399 442.5977436 49.27330303 443.80414391 C55.40128967 450.73815402 57.2442157 456.91340441 57.00377178 466.06976891 C57.01472881 466.99724937 57.02568584 467.92472984 57.03697491 468.88031578 C56.96546939 475.49219275 56.96546939 475.49219275 54.65611553 478.86273766 C52.33484595 480.32427776 51.15698337 480.7997019 48.44127178 480.75726891 C47.45127178 480.77273766 47.45127178 480.77273766 46.44127178 480.78851891 C43.4582714 479.99615943 42.28861975 478.70560999 40.44127178 476.25726891 C39.90220928 473.19867516 39.90220928 473.19867516 39.81627178 469.81976891 C39.65512148 464.47081861 39.41085183 460.39641545 35.67174053 456.33539391 C34.660471 455.43047203 34.660471 455.43047203 33.62877178 454.50726891 C29.26122798 450.26701236 24.59061086 445.43442653 24.36192608 439.0378933 C24.37135235 438.23235512 24.38077862 437.42681694 24.39049053 436.59686852 C24.39782207 435.78471382 24.40515362 434.97255913 24.41270733 434.13579369 C24.42684673 433.20592392 24.42684673 433.20592392 24.44127178 432.25726891 C23.66976788 432.26615135 22.89826397 432.2750338 22.10338116 432.28418541 C14.806701 432.36457666 7.51023779 432.42535702 0.21322918 432.46451759 C-3.53761011 432.48532788 -7.28808123 432.51352357 -11.03870869 432.55902672 C-14.66325683 432.60272141 -18.28745249 432.62645526 -21.91224384 432.63677788 C-23.29006716 432.64412722 -24.66787277 432.65847837 -26.04554462 432.68018913 C-35.1741122 432.81822977 -41.70346687 432.51196657 -48.80091572 426.29242516 C-49.33974384 425.64144859 -49.87857197 424.99047203 -50.43372822 424.31976891 C-50.98802509 423.67137047 -51.54232197 423.02297203 -52.11341572 422.35492516 C-58.3631048 413.28443046 -57.36869088 399.86094603 -55.96220922 389.41062689 C-54.64588193 382.38545388 -51.61474484 375.78880572 -48.85438251 369.23505211 C-28.76270778 320.89072636 -21.46200036 276.71765682 -21.45325947 224.86273766 C-21.45270736 224.10878725 -21.45215526 223.35483685 -21.45158643 222.57803947 C-21.44255453 203.26135875 -21.71910153 183.95258762 -22.10668838 164.64025509 C-22.3289632 153.46029839 -22.48131152 142.28098422 -22.58485126 131.09930992 C-22.59597983 129.90164802 -22.59597983 129.90164802 -22.60733322 128.67979094 C-22.68017635 120.73181784 -22.74486498 112.78377923 -22.80947185 104.83573579 C-22.84090532 100.98757901 -22.87316786 97.13942943 -22.90557575 93.29128075 C-22.91177786 92.54014135 -22.91797996 91.78900195 -22.92437001 91.01510075 C-23.01060415 80.71444402 -23.15062345 70.41589605 -23.3330508 60.11651628 C-23.41428811 55.3891657 -23.48132351 50.66158568 -23.55046558 45.93404579 C-23.59144859 43.41999313 -23.63968518 40.90604662 -23.69571972 38.39228439 C-23.77181604 34.96470824 -23.82316556 31.53758036 -23.86910725 28.10948753 C-23.89801338 27.11843472 -23.9269195 26.12738191 -23.95670158 25.10629719 C-24.01727964 17.81270647 -22.44054828 12.54586674 -17.59388447 7.01508141 C-16.94290791 6.47625328 -16.29193134 5.93742516 -15.62122822 5.38226891 C-14.97282978 4.82797203 -14.32443134 4.27367516 -13.65638447 3.70258141 C-9.194158 0.6280492 -5.36931509 0.006554 0 0 Z M-5.55872822 19.25726891 C-8.58865762 23.76554541 -7.8293481 29.64818108 -7.79923725 34.88100243 C-7.80094929 35.96072319 -7.80266132 37.04044395 -7.80442524 38.15288353 C-7.8077401 41.78841276 -7.79668117 45.42375842 -7.785779 49.05927086 C-7.78516646 51.70313323 -7.78534425 54.34698461 -7.78650951 56.99084568 C-7.78757271 63.36098492 -7.77833929 69.73106776 -7.76550686 76.10119252 C-7.75110745 83.46974784 -7.74951739 90.83828344 -7.7479372 98.20685387 C-7.73743631 117.66116782 -7.70951409 137.11546921 -7.68372822 156.56976891 C-7.64247822 200.02664391 -7.60122822 243.48351891 -7.55872822 288.25726891 C119.16127178 288.25726891 245.88127178 288.25726891 376.44127178 288.25726891 C376.50314678 244.82101891 376.56502178 201.38476891 376.62877178 156.63226891 C376.65608379 142.90423668 376.68339581 129.17620445 376.71153545 115.03217125 C376.72156717 102.75380629 376.72156717 102.75380629 376.72760296 90.47543907 C376.73040412 84.99566322 376.74142359 79.51597603 376.75799847 74.03623009 C376.77708112 67.71806858 376.78578275 61.39999498 376.78160663 55.08180443 C376.77979764 51.84905082 376.78435389 48.61653378 376.79891717 45.38380694 C376.81378778 41.92279555 376.81026065 38.46227915 376.80203533 35.00125694 C376.81077332 33.99181337 376.81951132 32.9823698 376.8285141 31.94233704 C376.79494397 26.7046961 376.6430172 22.64592489 373.44127178 18.25726891 C369.59589291 16.28284184 366.38239577 16.00613253 362.09560013 16.00279331 C360.80745551 15.99696112 359.51931089 15.99112893 358.19213158 15.98512 C356.76464418 15.98875311 355.33715726 15.99257748 353.90967083 15.99657249 C352.39170326 15.99355214 350.87373721 15.98966324 349.35577387 15.98497993 C345.18284896 15.97467628 341.01000975 15.97688775 336.83707774 15.98116052 C332.33734017 15.98362344 327.83762346 15.97461901 323.33789349 15.96712303 C314.52197582 15.9543621 305.70608859 15.95258406 296.89016325 15.95492329 C289.72595144 15.95670499 282.56174889 15.95496001 275.39753819 15.95069885 C274.37861504 15.95010366 273.35969189 15.94950847 272.30989228 15.94889525 C270.24007833 15.94768352 268.17026439 15.94646939 266.10045045 15.94525287 C246.68211176 15.93437205 227.26379042 15.93654245 207.84545075 15.94263772 C190.07331891 15.94780787 172.30124187 15.9365498 154.52912087 15.9175395 C136.28826824 15.89817711 118.04744155 15.88990226 99.80657858 15.89366275 C89.56267585 15.89557716 79.31881978 15.89306388 69.07492542 15.87894821 C60.35466912 15.86705383 51.63448819 15.86560768 42.91423089 15.87773838 C38.46389324 15.88364063 34.01369357 15.88468942 29.56336498 15.87273598 C25.49038102 15.86192305 21.41765102 15.86492549 17.34467917 15.87899766 C15.87030377 15.88165729 14.39590876 15.87923853 12.92155255 15.8712618 C10.91865175 15.8611766 8.91567954 15.87135621 6.91278458 15.8825388 C5.79987661 15.88248378 4.68696864 15.88242876 3.54033619 15.88237208 C-0.05338324 16.3171078 -2.46424067 17.40665783 -5.55872822 19.25726891 Z M-9.55872822 304.25726891 C-26.99218686 343.53781761 -26.99218686 343.53781761 -35.55872822 384.25726891 C-15.75872822 384.25726891 4.04127178 384.25726891 24.44127178 384.25726891 C24.57199857 373.09926498 24.57199857 373.09926498 24.64903545 361.94086266 C24.86227838 346.77463793 24.86227838 346.77463793 30.44127178 341.25726891 C34.91297753 337.76933842 37.44968465 337.17001479 43.06627178 337.13226891 C45.91114458 337.09492494 45.91114458 337.09492494 48.44127178 336.25726891 C50.1806977 333.87607006 51.12888696 331.50698583 52.23814678 328.78070641 C53.87108889 325.35576939 55.6407778 323.81741825 58.92564678 321.99945641 C63.31909732 320.70325205 67.76082406 321.22306862 72.29674053 321.40180016 C75.65638932 321.54858097 75.65638932 321.54858097 78.44127178 318.94476891 C79.10127178 318.05789391 79.76127178 317.17101891 80.44127178 316.25726891 C85.94828731 312.3620628 91.94702467 312.48170921 98.44127178 313.25726891 C102.50235564 314.53867886 105.49403432 316.1460865 108.26939678 319.40180016 C110.3416449 321.54327024 110.3416449 321.54327024 113.39439678 321.47211266 C114.48236553 321.38058922 115.57033428 321.28906578 116.69127178 321.19476891 C122.06438685 321.03797767 125.28816329 321.52347554 129.75767803 324.47992516 C134.75032998 329.7505902 136.03884213 334.58858696 136.05064678 341.59711266 C136.06718304 342.3640696 136.08371929 343.13102654 136.10075665 343.92122459 C136.14893721 346.34582322 136.17053934 348.76979618 136.19127178 351.19476891 C136.21945675 352.84909676 136.24938769 354.50339584 136.28111553 356.15765953 C136.35468711 360.19081105 136.40444352 364.22362133 136.44127178 368.25726891 C137.33910381 368.38424156 138.23693584 368.51121422 139.16197491 368.64203453 C140.92444561 368.9001693 140.92444561 368.9001693 142.72252178 369.16351891 C143.88847881 369.33174156 145.05443584 369.49996422 146.25572491 369.67328453 C150.33095053 370.42036758 152.4939661 371.30996323 155.44127178 374.25726891 C157.09127178 377.55726891 158.74127178 380.85726891 160.44127178 384.25726891 C176.28127178 384.25726891 192.12127178 384.25726891 208.44127178 384.25726891 C210.91627178 379.30726891 210.91627178 379.30726891 213.44127178 374.25726891 C217.2945992 370.40394149 220.93258525 369.91772617 226.16002178 369.16351891 C227.33500225 368.99142906 228.50998272 368.81933922 229.72056866 368.64203453 C230.61840069 368.51506187 231.51623272 368.38808922 232.44127178 368.25726891 C232.44538067 367.23890953 232.44948956 366.22055016 232.45372295 365.17133141 C232.47563891 361.36142219 232.53005474 357.55252756 232.59385967 353.74310875 C232.61693186 352.10030468 232.63140992 350.45735496 232.63682842 348.81439781 C232.70701233 331.03087503 232.70701233 331.03087503 238.44127178 325.25726891 C243.23166711 321.18033672 246.32149763 321.1174826 252.56627178 321.31976891 C257.94969622 321.63979873 257.94969622 321.63979873 262.44127178 318.94476891 C263.10127178 318.05789391 263.76127178 317.17101891 264.44127178 316.25726891 C269.94828731 312.3620628 275.94702467 312.48170921 282.44127178 313.25726891 C286.50235564 314.53867886 289.49403432 316.1460865 292.26939678 319.40180016 C294.3416449 321.54327024 294.3416449 321.54327024 297.39439678 321.47211266 C299.02634991 321.3348275 299.02634991 321.3348275 300.69127178 321.19476891 C306.02445422 321.05725411 309.46050976 321.35515988 313.82799053 324.48383141 C315.80494672 326.65704716 316.65283135 328.79187519 317.75377178 331.50726891 C318.7986675 334.16689898 318.7986675 334.16689898 320.44127178 336.25726891 C323.26071822 337.04689236 325.73030046 337.06967401 328.65220928 337.08148766 C333.05418047 337.35892281 336.33498986 339.17174165 339.44127178 342.25726891 C342.99541551 347.55476517 344.04074275 351.27586422 344.05064678 357.59711266 C344.06627666 358.2781002 344.08190655 358.95908775 344.09801006 359.66071129 C344.15007483 362.17171652 344.16878363 364.68332464 344.19127178 367.19476891 C344.27377178 372.82539391 344.35627178 378.45601891 344.44127178 384.25726891 C364.24127178 384.25726891 384.04127178 384.25726891 404.44127178 384.25726891 C397.06355064 357.20562472 387.30818907 330.85802077 378.44127178 304.25726891 C250.40127178 304.25726891 122.36127178 304.25726891 -9.55872822 304.25726891 Z M-39.55872822 400.25726891 C-39.81186067 408.06444801 -39.81186067 408.06444801 -36.55872822 414.25726891 C-32.90735576 416.11792987 -29.91695856 416.50267852 -25.85047626 416.48431969 C-24.72969181 416.48416862 -23.60890736 416.48401756 -22.45415974 416.48386192 C-20.65547192 416.46837807 -20.65547192 416.46837807 -18.82044697 416.45258141 C-17.58454319 416.44975151 -16.34863941 416.44692162 -15.075284 416.44400597 C-11.80207825 416.43472108 -8.52907178 416.41677523 -5.25593281 416.39459801 C-1.91091974 416.37407708 1.43410204 416.36516158 4.77916241 416.35492516 C11.33328658 416.33288682 17.88724053 416.29836794 24.44127178 416.25726891 C24.44127178 410.97726891 24.44127178 405.69726891 24.44127178 400.25726891 C3.32127178 400.25726891 -17.79872822 400.25726891 -39.55872822 400.25726891 Z M160.44127178 400.25726891 C160.44127178 405.53726891 160.44127178 410.81726891 160.44127178 416.25726891 C176.28127178 416.25726891 192.12127178 416.25726891 208.44127178 416.25726891 C208.44127178 410.97726891 208.44127178 405.69726891 208.44127178 400.25726891 C192.60127178 400.25726891 176.76127178 400.25726891 160.44127178 400.25726891 Z M344.44127178 400.25726891 C344.44127178 405.53726891 344.44127178 410.81726891 344.44127178 416.25726891 C352.30664797 416.33148493 360.1718198 416.38590327 368.03746319 416.42206383 C370.71276899 416.43544441 373.38759327 416.45760276 376.06285381 416.48358727 C379.9104093 416.52001974 383.75763764 416.53700719 387.60533428 416.55023766 C388.79929821 416.56572151 389.99326214 416.58120537 391.22340679 416.59715843 C399.26990849 416.65556754 399.26990849 416.65556754 406.44127178 413.25726891 C409.2218736 408.8335842 408.44127178 405.89602259 408.44127178 400.25726891 C387.32127178 400.25726891 366.20127178 400.25726891 344.44127178 400.25726891 Z " fill="#009EF0" transform="translate(71.55872821807861,15.742731094360352)"/>
<path d="M0 0 C1.20378548 -0.01043099 2.40757095 -0.02086198 3.64783478 -0.03160906 C4.98531837 -0.02296064 6.32279955 -0.01393401 7.66027832 -0.00457001 C9.07981761 -0.00917763 10.49935214 -0.01552962 11.91887665 -0.02347898 C15.82438754 -0.04021479 19.7295087 -0.03190688 23.63502121 -0.01953411 C27.84504622 -0.01050322 32.05500307 -0.02444357 36.26501465 -0.0354538 C44.51427726 -0.05326464 52.76339452 -0.04938765 61.01266289 -0.03780323 C67.71544465 -0.02877925 74.41818559 -0.02754042 81.12097168 -0.0318985 C82.07399909 -0.03251143 83.02702651 -0.03312436 84.00893354 -0.03375587 C85.9448325 -0.03503474 87.88073144 -0.03633159 89.81663036 -0.03764623 C107.98070128 -0.04905954 126.14469152 -0.03592656 144.3087492 -0.01444477 C159.90317953 0.00342689 175.49749077 0.000323 191.09191895 -0.01811981 C209.18983167 -0.03951327 227.28767363 -0.04796084 245.38559723 -0.03567076 C247.31447855 -0.03439653 249.24335987 -0.03313904 251.17224121 -0.0318985 C252.59590791 -0.03097285 252.59590791 -0.03097285 254.04833555 -0.03002849 C260.74509088 -0.02657101 267.44180142 -0.03241249 274.1385498 -0.04181671 C282.29677774 -0.05302116 290.45485168 -0.05002948 298.6130619 -0.02869374 C302.77761946 -0.01816229 306.94192003 -0.01409691 311.10647583 -0.02729034 C314.91610992 -0.03917707 318.72524792 -0.03271391 322.53483677 -0.01138014 C323.91566253 -0.00689817 325.29652987 -0.00921599 326.67732906 -0.01888329 C328.54926179 -0.03098755 330.42131131 -0.01622032 332.29321289 0 C333.33451607 0.00064941 334.37581924 0.00129882 335.44867706 0.00196791 C338.88790177 0.64113058 340.06824922 1.72695053 342.14660645 4.50336456 C342.6480031 6.48314667 342.6480031 6.48314667 342.64997101 8.60761261 C342.660402 9.42125778 342.67083299 10.23490295 342.68158007 11.07320404 C342.67265718 11.9615242 342.66373429 12.84984436 342.65454102 13.76508331 C342.66390096 15.18705269 342.66390096 15.18705269 342.67344999 16.63774872 C342.68943727 19.82237176 342.67675308 23.00623549 342.66418457 26.19086456 C342.66960312 28.47065427 342.67672428 30.75044048 342.6854248 33.03022003 C342.70369263 39.22848816 342.69657621 45.42649059 342.68390846 51.62476349 C342.67379877 58.10383585 342.68316849 64.58288508 342.68945312 71.06195831 C342.69720223 82.64100187 342.68475234 94.21992388 342.66441578 105.79894829 C342.64654449 116.29943873 342.64964852 126.79975231 342.66809082 137.30023956 C342.6894927 149.49154435 342.69746723 161.68272316 342.68564177 173.87404633 C342.67939767 180.32849119 342.67859644 186.78281419 342.69178772 193.23725128 C342.70332119 199.30461538 342.69536598 205.37164464 342.67221069 211.43897247 C342.66691025 213.66906935 342.66846006 215.89919428 342.67726135 218.12928009 C342.68814743 221.16711901 342.67453677 224.20387633 342.65454102 227.24164581 C342.66792535 228.57412605 342.66792535 228.57412605 342.68158007 229.93352509 C342.66593358 231.15399284 342.66593358 231.15399284 342.64997101 232.39911652 C342.6493216 233.10019028 342.64867219 233.80126404 342.6480031 234.52358246 C341.89695358 237.48912755 340.55899579 238.6691029 338.14660645 240.50336456 C335.44867706 241.00476122 335.44867706 241.00476122 332.29321289 241.00672913 C331.08942741 241.01716012 329.88564194 241.0275911 328.64537811 241.03833818 C327.30789452 241.02968977 325.97041334 241.02066313 324.63293457 241.01129913 C323.21339528 241.01590676 321.79386075 241.02225874 320.37433624 241.03020811 C316.46882535 241.04694392 312.56370419 241.03863601 308.65819168 241.02626324 C304.44816667 241.01723234 300.23820982 241.0311727 296.02819824 241.04218292 C287.77893563 241.05999376 279.52981837 241.05611678 271.28055 241.04453236 C264.57776824 241.03550838 257.8750273 241.03426954 251.17224121 241.03862762 C250.2192138 241.03924056 249.26618638 241.03985349 248.28427935 241.04048499 C246.34838039 241.04176386 244.41248145 241.04306071 242.47658253 241.04437536 C224.31251161 241.05578867 206.14852138 241.04265569 187.98446369 241.02117389 C172.39003336 241.00330223 156.79572212 241.00640613 141.20129395 241.02484894 C123.10338122 241.0462424 105.00553926 241.05468996 86.90761566 241.04239988 C84.97873435 241.04112565 83.04985302 241.03986817 81.12097168 241.03862762 C79.69730498 241.03770197 79.69730498 241.03770197 78.24487734 241.03675762 C71.54812202 241.03330014 64.85141147 241.03914162 58.15466309 241.04854584 C49.99643515 241.05975028 41.83836122 241.05675861 33.68015099 241.03542286 C29.51559343 241.02489141 25.35129286 241.02082604 21.18673706 241.03401947 C17.37710297 241.0459062 13.56796497 241.03944304 9.75837612 241.01810926 C8.37755037 241.0136273 6.99668302 241.01594512 5.61588383 241.02561241 C3.7439511 241.03771668 1.87190158 241.02294945 0 241.00672913 C-1.56195477 241.00575501 -1.56195477 241.00575501 -3.15546417 241.00476122 C-6.59468888 240.36559854 -7.77503633 239.27977859 -9.85339355 236.50336456 C-10.35479021 234.52358246 -10.35479021 234.52358246 -10.35675812 232.39911652 C-10.36718911 231.58547134 -10.3776201 230.77182617 -10.38836718 229.93352509 C-10.37944429 229.04520493 -10.3705214 228.15688477 -10.36132812 227.24164581 C-10.36756809 226.29366623 -10.37380805 225.34568665 -10.3802371 224.36898041 C-10.39622438 221.18435736 -10.38354019 218.00049363 -10.37097168 214.81586456 C-10.37639023 212.53607485 -10.38351139 210.25628864 -10.39221191 207.97650909 C-10.41047974 201.77824097 -10.40336332 195.58023853 -10.39069557 189.38196564 C-10.38058588 182.90289328 -10.3899556 176.42384404 -10.39624023 169.94477081 C-10.40398934 158.36572726 -10.39153945 146.78680524 -10.37120289 135.20778084 C-10.3533316 124.70729039 -10.35643563 114.20697682 -10.37487793 103.70648956 C-10.3962798 91.51518477 -10.40425434 79.32400596 -10.39242887 67.1326828 C-10.38618478 60.67823793 -10.38538354 54.22391494 -10.39857483 47.76947784 C-10.4101083 41.70211375 -10.40215309 35.63508448 -10.3789978 29.56775665 C-10.37369736 27.33765978 -10.37524717 25.10753484 -10.38404846 22.87744904 C-10.39493454 19.83961012 -10.38132388 16.80285279 -10.36132812 13.76508331 C-10.37025101 12.87676315 -10.3791739 11.98844299 -10.38836718 11.07320404 C-10.37793619 10.25955887 -10.3675052 9.4459137 -10.35675812 8.60761261 C-10.35610871 7.90653885 -10.3554593 7.20546509 -10.35479021 6.48314667 C-8.96866716 1.00999169 -5.1086991 0.00318604 0 0 Z M6.14660645 16.50336456 C6.14660645 85.14336456 6.14660645 153.78336456 6.14660645 224.50336456 C111.74660645 224.50336456 217.34660645 224.50336456 326.14660645 224.50336456 C326.14660645 155.86336456 326.14660645 87.22336456 326.14660645 16.50336456 C220.54660645 16.50336456 114.94660645 16.50336456 6.14660645 16.50336456 Z " fill="#00C1F0" transform="translate(89.8533935546875,47.49663543701172)"/>
<path d="M0 0 C1.0094165 -0.0112793 2.01883301 -0.02255859 3.05883789 -0.03417969 C4.16026123 -0.02608276 5.26168457 -0.01798584 6.39648438 -0.00964355 C7.56107178 -0.01665283 8.72565918 -0.02366211 9.92553711 -0.03088379 C13.78067771 -0.04850975 17.63508612 -0.03682384 21.49023438 -0.02331543 C24.1653739 -0.026009 26.84049107 -0.02988396 29.515625 -0.03491211 C35.12442987 -0.0421874 40.733024 -0.03260414 46.34179688 -0.0135498 C52.82441344 0.008219 59.30652679 0.00116752 65.78913116 -0.02085543 C71.35700027 -0.03901302 76.92471797 -0.04156609 82.49260712 -0.03110075 C85.81719107 -0.02486765 89.14148689 -0.02559741 92.46606445 -0.0372467 C96.17238595 -0.04738291 99.87773545 -0.03195028 103.58398438 -0.00964355 C104.68540771 -0.01774048 105.78683105 -0.0258374 106.92163086 -0.03417969 C108.43575562 -0.01726074 108.43575562 -0.01726074 109.98046875 0 C110.85650757 0.0015081 111.73254639 0.0030162 112.63513184 0.00457001 C115.76922829 0.67443175 116.98468568 2.06729702 118.99023438 4.50793457 C119.52148438 6.50793457 119.52148438 6.50793457 119.49023438 8.50793457 C119.50570312 9.49793457 119.50570312 9.49793457 119.52148438 10.50793457 C118.75060311 13.41007581 117.27232168 14.5993654 114.99023438 16.50793457 C112.63513184 17.01129913 112.63513184 17.01129913 109.98046875 17.01586914 C108.97105225 17.02714844 107.96163574 17.03842773 106.92163086 17.05004883 C105.82020752 17.0419519 104.71878418 17.03385498 103.58398438 17.0255127 C102.41939697 17.03252197 101.25480957 17.03953125 100.05493164 17.04675293 C96.19979104 17.06437889 92.34538263 17.05269298 88.49023438 17.03918457 C85.81509485 17.04187814 83.13997768 17.0457531 80.46484375 17.05078125 C74.85603888 17.05805654 69.24744475 17.04847328 63.63867188 17.02941895 C57.15605531 17.00765014 50.67394196 17.01470162 44.19133759 17.03672457 C38.62346848 17.05488216 33.05575078 17.05743523 27.48786163 17.04696989 C24.16327768 17.04073679 20.83898186 17.04146655 17.5144043 17.05311584 C13.8080828 17.06325205 10.1027333 17.04781942 6.39648438 17.0255127 C5.29506104 17.03360962 4.1936377 17.04170654 3.05883789 17.05004883 C1.54471313 17.03312988 1.54471313 17.03312988 0 17.01586914 C-0.87603882 17.01436104 -1.75207764 17.01285294 -2.65466309 17.01129913 C-5.78875954 16.34143739 -7.00421693 14.94857212 -9.00976562 12.50793457 C-9.54101562 10.50793457 -9.54101562 10.50793457 -9.50976562 8.50793457 C-9.52523437 7.51793457 -9.52523437 7.51793457 -9.54101562 6.50793457 C-8.23625145 1.59588121 -4.74608273 0.00817039 0 0 Z " fill="#00AEF0" transform="translate(225.009765625,231.4920654296875)"/>
<path d="M0 0 C1.0094165 -0.0112793 2.01883301 -0.02255859 3.05883789 -0.03417969 C4.16026123 -0.02608276 5.26168457 -0.01798584 6.39648438 -0.00964355 C7.56107178 -0.01665283 8.72565918 -0.02366211 9.92553711 -0.03088379 C13.78067771 -0.04850975 17.63508612 -0.03682384 21.49023438 -0.02331543 C24.1653739 -0.026009 26.84049107 -0.02988396 29.515625 -0.03491211 C35.12442987 -0.0421874 40.733024 -0.03260414 46.34179688 -0.0135498 C52.82441344 0.008219 59.30652679 0.00116752 65.78913116 -0.02085543 C71.35700027 -0.03901302 76.92471797 -0.04156609 82.49260712 -0.03110075 C85.81719107 -0.02486765 89.14148689 -0.02559741 92.46606445 -0.0372467 C96.17238595 -0.04738291 99.87773545 -0.03195028 103.58398438 -0.00964355 C104.68540771 -0.01774048 105.78683105 -0.0258374 106.92163086 -0.03417969 C108.43575562 -0.01726074 108.43575562 -0.01726074 109.98046875 0 C110.85650757 0.0015081 111.73254639 0.0030162 112.63513184 0.00457001 C115.76922829 0.67443175 116.98468568 2.06729702 118.99023438 4.50793457 C119.52148438 6.50793457 119.52148438 6.50793457 119.49023438 8.50793457 C119.50570312 9.49793457 119.50570312 9.49793457 119.52148438 10.50793457 C118.75060311 13.41007581 117.27232168 14.5993654 114.99023438 16.50793457 C112.63513184 17.01129913 112.63513184 17.01129913 109.98046875 17.01586914 C108.97105225 17.02714844 107.96163574 17.03842773 106.92163086 17.05004883 C105.82020752 17.0419519 104.71878418 17.03385498 103.58398438 17.0255127 C102.41939697 17.03252197 101.25480957 17.03953125 100.05493164 17.04675293 C96.19979104 17.06437889 92.34538263 17.05269298 88.49023438 17.03918457 C85.81509485 17.04187814 83.13997768 17.0457531 80.46484375 17.05078125 C74.85603888 17.05805654 69.24744475 17.04847328 63.63867188 17.02941895 C57.15605531 17.00765014 50.67394196 17.01470162 44.19133759 17.03672457 C38.62346848 17.05488216 33.05575078 17.05743523 27.48786163 17.04696989 C24.16327768 17.04073679 20.83898186 17.04146655 17.5144043 17.05311584 C13.8080828 17.06325205 10.1027333 17.04781942 6.39648438 17.0255127 C5.29506104 17.03360962 4.1936377 17.04170654 3.05883789 17.05004883 C1.54471313 17.03312988 1.54471313 17.03312988 0 17.01586914 C-0.87603882 17.01436104 -1.75207764 17.01285294 -2.65466309 17.01129913 C-5.78875954 16.34143739 -7.00421693 14.94857212 -9.00976562 12.50793457 C-9.54101562 10.50793457 -9.54101562 10.50793457 -9.50976562 8.50793457 C-9.52523437 7.51793457 -9.52523437 7.51793457 -9.54101562 6.50793457 C-8.23625145 1.59588121 -4.74608273 0.00817039 0 0 Z " fill="#00B6F0" transform="translate(177.009765625,199.4920654296875)"/>
<path d="M0 0 C1.0094165 -0.0112793 2.01883301 -0.02255859 3.05883789 -0.03417969 C4.16026123 -0.02608276 5.26168457 -0.01798584 6.39648438 -0.00964355 C7.56107178 -0.01665283 8.72565918 -0.02366211 9.92553711 -0.03088379 C13.78067771 -0.04850975 17.63508612 -0.03682384 21.49023438 -0.02331543 C24.1653739 -0.026009 26.84049107 -0.02988396 29.515625 -0.03491211 C35.12442987 -0.0421874 40.733024 -0.03260414 46.34179688 -0.0135498 C52.82441344 0.008219 59.30652679 0.00116752 65.78913116 -0.02085543 C71.35700027 -0.03901302 76.92471797 -0.04156609 82.49260712 -0.03110075 C85.81719107 -0.02486765 89.14148689 -0.02559741 92.46606445 -0.0372467 C96.17238595 -0.04738291 99.87773545 -0.03195028 103.58398438 -0.00964355 C104.68540771 -0.01774048 105.78683105 -0.0258374 106.92163086 -0.03417969 C108.43575562 -0.01726074 108.43575562 -0.01726074 109.98046875 0 C110.85650757 0.0015081 111.73254639 0.0030162 112.63513184 0.00457001 C115.76922829 0.67443175 116.98468568 2.06729702 118.99023438 4.50793457 C119.52148438 6.50793457 119.52148438 6.50793457 119.49023438 8.50793457 C119.50570312 9.49793457 119.50570312 9.49793457 119.52148438 10.50793457 C118.75060311 13.41007581 117.27232168 14.5993654 114.99023438 16.50793457 C112.63513184 17.01129913 112.63513184 17.01129913 109.98046875 17.01586914 C108.97105225 17.02714844 107.96163574 17.03842773 106.92163086 17.05004883 C105.82020752 17.0419519 104.71878418 17.03385498 103.58398438 17.0255127 C102.41939697 17.03252197 101.25480957 17.03953125 100.05493164 17.04675293 C96.19979104 17.06437889 92.34538263 17.05269298 88.49023438 17.03918457 C85.81509485 17.04187814 83.13997768 17.0457531 80.46484375 17.05078125 C74.85603888 17.05805654 69.24744475 17.04847328 63.63867188 17.02941895 C57.15605531 17.00765014 50.67394196 17.01470162 44.19133759 17.03672457 C38.62346848 17.05488216 33.05575078 17.05743523 27.48786163 17.04696989 C24.16327768 17.04073679 20.83898186 17.04146655 17.5144043 17.05311584 C13.8080828 17.06325205 10.1027333 17.04781942 6.39648438 17.0255127 C5.29506104 17.03360962 4.1936377 17.04170654 3.05883789 17.05004883 C1.54471313 17.03312988 1.54471313 17.03312988 0 17.01586914 C-0.87603882 17.01436104 -1.75207764 17.01285294 -2.65466309 17.01129913 C-5.78875954 16.34143739 -7.00421693 14.94857212 -9.00976562 12.50793457 C-9.54101562 10.50793457 -9.54101562 10.50793457 -9.50976562 8.50793457 C-9.52523437 7.51793457 -9.52523437 7.51793457 -9.54101562 6.50793457 C-8.23625145 1.59588121 -4.74608273 0.00817039 0 0 Z " fill="#00BFF0" transform="translate(225.009765625,167.4920654296875)"/>
<path d="M0 0 C2.52257083 1.65271882 2.93428131 2.76964927 3.765625 5.68359375 C4.05684392 9.80434152 2.84574704 12.35261015 0.9375 15.875 C0.40817871 16.89170776 0.40817871 16.89170776 -0.13183594 17.92895508 C-4.60700631 26.38112001 -9.51318857 34.60115242 -14.37890625 42.83203125 C-16.78588433 46.90949988 -19.14693658 51.00796731 -21.46484375 55.13671875 C-22.00850586 56.10327393 -22.55216797 57.0698291 -23.11230469 58.06567383 C-24.14062427 59.89965917 -25.16366038 61.73661984 -26.18066406 63.5769043 C-26.64053711 64.39457275 -27.10041016 65.21224121 -27.57421875 66.0546875 C-27.97213623 66.77124512 -28.37005371 67.48780273 -28.7800293 68.22607422 C-30 70 -30 70 -33 72 C-39.90410959 72.65753425 -39.90410959 72.65753425 -43.5 70.5 C-45.62441812 66.95930314 -45.70786464 63.96984677 -45 60 C-43.3069252 55.96022366 -41.11029576 52.26104377 -38.875 48.5 C-38.24916016 47.4164624 -37.62332031 46.3329248 -36.97851562 45.21655273 C-35.00132678 41.80165527 -33.00102818 38.40097044 -31 35 C-29.71962174 32.79397334 -28.44093889 30.58696168 -27.1640625 28.37890625 C-24.31562079 23.46301104 -21.46404145 18.54934559 -18.5625 13.66455078 C-17.49516039 11.8444032 -16.454513 10.0084069 -15.4375 8.15966797 C-14.9321875 7.26006348 -14.426875 6.36045898 -13.90625 5.43359375 C-13.46603516 4.62849365 -13.02582031 3.82339355 -12.57226562 2.99389648 C-9.15107403 -1.3447482 -5.04055199 -1.42450382 0 0 Z " fill="#00CFF0" transform="translate(221,80)"/>
<path d="M0 0 C3.37084961 1.62060547 3.37084961 1.62060547 6.65234375 3.8671875 C7.23794571 4.26197296 7.82354767 4.65675842 8.42689514 5.06350708 C9.65186052 5.89395632 10.8709517 6.73313175 12.08422852 7.58056641 C13.94583465 8.88082141 15.82314733 10.15516582 17.70507812 11.42578125 C26.81938011 17.63876021 26.81938011 17.63876021 28 20 C28.70063094 27.12308127 28.70063094 27.12308127 26.18359375 30.2734375 C21.7821899 34.32937326 16.66543462 37.52221431 11.6875 40.8125 C10.68009766 41.50537109 9.67269531 42.19824219 8.63476562 42.91210938 C2.83395471 46.74782474 -0.99241389 49.11066644 -8 48 C-10.5 46.5 -10.5 46.5 -12 44 C-12.6751221 39.2741453 -12.90605895 37.22756374 -10.0625 33.375 C0.73684211 25 0.73684211 25 4 25 C4 24.34 4 23.68 4 23 C3.28328125 22.7421875 2.5665625 22.484375 1.828125 22.21875 C-1.16338801 20.9295897 -3.59227605 19.37791273 -6.25 17.5 C-7.55710938 16.58734375 -7.55710938 16.58734375 -8.890625 15.65625 C-11 14 -11 14 -12 12 C-12.56872038 4.9478673 -12.56872038 4.9478673 -10.5 1.5 C-7.05170881 -0.56897471 -3.88707513 -0.53504929 0 0 Z " fill="#00CDF0" transform="translate(244,96)"/>
<path d="M0 0 C2.5 1.5 2.5 1.5 4 4 C4.6751221 8.7258547 4.90605895 10.77243626 2.0625 14.625 C-8.73684211 23 -8.73684211 23 -12 23 C-12 23.66 -12 24.32 -12 25 C-11.28328125 25.2578125 -10.5665625 25.515625 -9.828125 25.78125 C-6.83661199 27.0704103 -4.40772395 28.62208727 -1.75 30.5 C-0.44289063 31.41265625 -0.44289063 31.41265625 0.890625 32.34375 C3 34 3 34 4 36 C4.56872038 43.0521327 4.56872038 43.0521327 2.5 46.5 C-0.94829119 48.56897471 -4.11292487 48.53504929 -8 48 C-11.37084961 46.37939453 -11.37084961 46.37939453 -14.65234375 44.1328125 C-15.23794571 43.73802704 -15.82354767 43.34324158 -16.42689514 42.93649292 C-17.65186052 42.10604368 -18.8709517 41.26686825 -20.08422852 40.41943359 C-21.94583465 39.11917859 -23.82314733 37.84483418 -25.70507812 36.57421875 C-34.81938011 30.36123979 -34.81938011 30.36123979 -36 28 C-36.70063094 20.87691873 -36.70063094 20.87691873 -34.18359375 17.7265625 C-29.7821899 13.67062674 -24.66543462 10.47778569 -19.6875 7.1875 C-18.68009766 6.49462891 -17.67269531 5.80175781 -16.63476562 5.08789062 C-10.83395471 1.25217526 -7.00758611 -1.11066644 0 0 Z " fill="#00CDF0" transform="translate(164,96)"/>
<path d="M0 0 C1.051875 -0.00515625 2.10375 -0.0103125 3.1875 -0.015625 C4.280625 -0.00015625 5.37375 0.0153125 6.5 0.03125 C8.1396875 0.00804687 8.1396875 0.00804687 9.8125 -0.015625 C10.864375 -0.01046875 11.91625 -0.0053125 13 0 C14.43859375 0.00676758 14.43859375 0.00676758 15.90625 0.01367188 C19.21298564 0.673525 20.40908706 1.94238555 22.5 4.53125 C23.03125 6.53125 23.03125 6.53125 23 8.53125 C23.0103125 9.19125 23.020625 9.85125 23.03125 10.53125 C22.2561666 13.44921104 20.80895833 14.6243588 18.5 16.53125 C15.90625 17.04882812 15.90625 17.04882812 13 17.0625 C11.948125 17.06765625 10.89625 17.0728125 9.8125 17.078125 C8.719375 17.06265625 7.62625 17.0471875 6.5 17.03125 C4.8603125 17.05445313 4.8603125 17.05445313 3.1875 17.078125 C2.135625 17.07296875 1.08375 17.0678125 0 17.0625 C-0.9590625 17.05798828 -1.918125 17.05347656 -2.90625 17.04882812 C-6.21298564 16.388975 -7.40908706 15.12011445 -9.5 12.53125 C-10.03125 10.53125 -10.03125 10.53125 -10 8.53125 C-10.01546875 7.54125 -10.01546875 7.54125 -10.03125 6.53125 C-8.65240655 1.34030994 -4.94094259 0.02324368 0 0 Z " fill="#00AEF0" transform="translate(177.5,231.46875)"/>
<path d="M0 0 C1.051875 -0.00515625 2.10375 -0.0103125 3.1875 -0.015625 C4.280625 -0.00015625 5.37375 0.0153125 6.5 0.03125 C8.1396875 0.00804687 8.1396875 0.00804687 9.8125 -0.015625 C10.864375 -0.01046875 11.91625 -0.0053125 13 0 C14.43859375 0.00676758 14.43859375 0.00676758 15.90625 0.01367188 C19.21298564 0.673525 20.40908706 1.94238555 22.5 4.53125 C23.03125 6.53125 23.03125 6.53125 23 8.53125 C23.0103125 9.19125 23.020625 9.85125 23.03125 10.53125 C22.2561666 13.44921104 20.80895833 14.6243588 18.5 16.53125 C15.90625 17.04882812 15.90625 17.04882812 13 17.0625 C11.948125 17.06765625 10.89625 17.0728125 9.8125 17.078125 C8.719375 17.06265625 7.62625 17.0471875 6.5 17.03125 C4.8603125 17.05445313 4.8603125 17.05445313 3.1875 17.078125 C2.135625 17.07296875 1.08375 17.0678125 0 17.0625 C-0.9590625 17.05798828 -1.918125 17.05347656 -2.90625 17.04882812 C-6.21298564 16.388975 -7.40908706 15.12011445 -9.5 12.53125 C-10.03125 10.53125 -10.03125 10.53125 -10 8.53125 C-10.01546875 7.54125 -10.01546875 7.54125 -10.03125 6.53125 C-8.65240655 1.34030994 -4.94094259 0.02324368 0 0 Z " fill="#00B6F0" transform="translate(321.5,199.46875)"/>
<path d="M0 0 C1.051875 -0.00515625 2.10375 -0.0103125 3.1875 -0.015625 C4.280625 -0.00015625 5.37375 0.0153125 6.5 0.03125 C8.1396875 0.00804687 8.1396875 0.00804687 9.8125 -0.015625 C10.864375 -0.01046875 11.91625 -0.0053125 13 0 C14.43859375 0.00676758 14.43859375 0.00676758 15.90625 0.01367188 C19.21298564 0.673525 20.40908706 1.94238555 22.5 4.53125 C23.03125 6.53125 23.03125 6.53125 23 8.53125 C23.0103125 9.19125 23.020625 9.85125 23.03125 10.53125 C22.2561666 13.44921104 20.80895833 14.6243588 18.5 16.53125 C15.90625 17.04882812 15.90625 17.04882812 13 17.0625 C11.948125 17.06765625 10.89625 17.0728125 9.8125 17.078125 C8.719375 17.06265625 7.62625 17.0471875 6.5 17.03125 C4.8603125 17.05445313 4.8603125 17.05445313 3.1875 17.078125 C2.135625 17.07296875 1.08375 17.0678125 0 17.0625 C-0.9590625 17.05798828 -1.918125 17.05347656 -2.90625 17.04882812 C-6.21298564 16.388975 -7.40908706 15.12011445 -9.5 12.53125 C-10.03125 10.53125 -10.03125 10.53125 -10 8.53125 C-10.01546875 7.54125 -10.01546875 7.54125 -10.03125 6.53125 C-8.65240655 1.34030994 -4.94094259 0.02324368 0 0 Z " fill="#00BFF0" transform="translate(177.5,167.46875)"/>
<path d="M0 0 C0.7115625 -0.01546875 1.423125 -0.0309375 2.15625 -0.046875 C5.60314984 -0.02115187 7.64752229 0.24568064 10.46875 2.28125 C12.08267327 4.61979188 12.54379543 5.69709278 12.5 8.5 C12.5103125 9.16 12.520625 9.82 12.53125 10.5 C11.72167176 13.54782397 10.55457707 14.65682414 8 16.5 C5.16934716 16.90100915 2.81653341 17.06122899 0 17 C-0.7115625 17.01546875 -1.423125 17.0309375 -2.15625 17.046875 C-5.60314984 17.02115187 -7.64752229 16.75431936 -10.46875 14.71875 C-12.08267327 12.38020812 -12.54379543 11.30290722 -12.5 8.5 C-12.51546875 7.51 -12.51546875 7.51 -12.53125 6.5 C-10.82633794 0.08150756 -5.75061521 -0.12501337 0 0 Z " fill="#008BF0" transform="translate(436,367.5)"/>
<path d="M0 0 C0.7115625 -0.01546875 1.423125 -0.0309375 2.15625 -0.046875 C5.60314984 -0.02115187 7.64752229 0.24568064 10.46875 2.28125 C12.08267327 4.61979188 12.54379543 5.69709278 12.5 8.5 C12.5103125 9.16 12.520625 9.82 12.53125 10.5 C11.72167176 13.54782397 10.55457707 14.65682414 8 16.5 C5.16934716 16.90100915 2.81653341 17.06122899 0 17 C-0.7115625 17.01546875 -1.423125 17.0309375 -2.15625 17.046875 C-5.60314984 17.02115187 -7.64752229 16.75431936 -10.46875 14.71875 C-12.08267327 12.38020812 -12.54379543 11.30290722 -12.5 8.5 C-12.51546875 7.51 -12.51546875 7.51 -12.53125 6.5 C-10.82633794 0.08150756 -5.75061521 -0.12501337 0 0 Z " fill="#008BF0" transform="translate(276,367.5)"/>
<path d="M0 0 C0.7115625 -0.01546875 1.423125 -0.0309375 2.15625 -0.046875 C5.60314984 -0.02115187 7.64752229 0.24568064 10.46875 2.28125 C12.08267327 4.61979188 12.54379543 5.69709278 12.5 8.5 C12.5103125 9.16 12.520625 9.82 12.53125 10.5 C11.72167176 13.54782397 10.55457707 14.65682414 8 16.5 C5.16934716 16.90100915 2.81653341 17.06122899 0 17 C-0.7115625 17.01546875 -1.423125 17.0309375 -2.15625 17.046875 C-5.60314984 17.02115187 -7.64752229 16.75431936 -10.46875 14.71875 C-12.08267327 12.38020812 -12.54379543 11.30290722 -12.5 8.5 C-12.51546875 7.51 -12.51546875 7.51 -12.53125 6.5 C-10.82633794 0.08150756 -5.75061521 -0.12501337 0 0 Z " fill="#008BF0" transform="translate(236,367.5)"/>
<path d="M0 0 C0.7115625 -0.01546875 1.423125 -0.0309375 2.15625 -0.046875 C5.60314984 -0.02115187 7.64752229 0.24568064 10.46875 2.28125 C12.08267327 4.61979188 12.54379543 5.69709278 12.5 8.5 C12.5103125 9.16 12.520625 9.82 12.53125 10.5 C11.72167176 13.54782397 10.55457707 14.65682414 8 16.5 C5.16934716 16.90100915 2.81653341 17.06122899 0 17 C-0.7115625 17.01546875 -1.423125 17.0309375 -2.15625 17.046875 C-5.60314984 17.02115187 -7.64752229 16.75431936 -10.46875 14.71875 C-12.08267327 12.38020812 -12.54379543 11.30290722 -12.5 8.5 C-12.51546875 7.51 -12.51546875 7.51 -12.53125 6.5 C-10.82633794 0.08150756 -5.75061521 -0.12501337 0 0 Z " fill="#008BF0" transform="translate(76,367.5)"/>
<path d="M0 0 C0.7115625 -0.01546875 1.423125 -0.0309375 2.15625 -0.046875 C5.60314984 -0.02115187 7.64752229 0.24568064 10.46875 2.28125 C12.08267327 4.61979188 12.54379543 5.69709278 12.5 8.5 C12.5103125 9.16 12.520625 9.82 12.53125 10.5 C11.72167176 13.54782397 10.55457707 14.65682414 8 16.5 C5.16934716 16.90100915 2.81653341 17.06122899 0 17 C-0.7115625 17.01546875 -1.423125 17.0309375 -2.15625 17.046875 C-5.60314984 17.02115187 -7.64752229 16.75431936 -10.46875 14.71875 C-12.08267327 12.38020812 -12.54379543 11.30290722 -12.5 8.5 C-12.51546875 7.51 -12.51546875 7.51 -12.53125 6.5 C-10.82633794 0.08150756 -5.75061521 -0.12501337 0 0 Z " fill="#0094F0" transform="translate(428,335.5)"/>
<path d="M0 0 C0.7115625 -0.01546875 1.423125 -0.0309375 2.15625 -0.046875 C5.60314984 -0.02115187 7.64752229 0.24568064 10.46875 2.28125 C12.08267327 4.61979188 12.54379543 5.69709278 12.5 8.5 C12.5103125 9.16 12.520625 9.82 12.53125 10.5 C11.72167176 13.54782397 10.55457707 14.65682414 8 16.5 C5.16934716 16.90100915 2.81653341 17.06122899 0 17 C-0.7115625 17.01546875 -1.423125 17.0309375 -2.15625 17.046875 C-5.60314984 17.02115187 -7.64752229 16.75431936 -10.46875 14.71875 C-12.08267327 12.38020812 -12.54379543 11.30290722 -12.5 8.5 C-12.51546875 7.51 -12.51546875 7.51 -12.53125 6.5 C-10.82633794 0.08150756 -5.75061521 -0.12501337 0 0 Z " fill="#0094F0" transform="translate(276,335.5)"/>
<path d="M0 0 C0.7115625 -0.01546875 1.423125 -0.0309375 2.15625 -0.046875 C5.60314984 -0.02115187 7.64752229 0.24568064 10.46875 2.28125 C12.08267327 4.61979188 12.54379543 5.69709278 12.5 8.5 C12.5103125 9.16 12.520625 9.82 12.53125 10.5 C11.72167176 13.54782397 10.55457707 14.65682414 8 16.5 C5.16934716 16.90100915 2.81653341 17.06122899 0 17 C-0.7115625 17.01546875 -1.423125 17.0309375 -2.15625 17.046875 C-5.60314984 17.02115187 -7.64752229 16.75431936 -10.46875 14.71875 C-12.08267327 12.38020812 -12.54379543 11.30290722 -12.5 8.5 C-12.51546875 7.51 -12.51546875 7.51 -12.53125 6.5 C-10.82633794 0.08150756 -5.75061521 -0.12501337 0 0 Z " fill="#0094F0" transform="translate(236,335.5)"/>
<path d="M0 0 C0.7115625 -0.01546875 1.423125 -0.0309375 2.15625 -0.046875 C5.60314984 -0.02115187 7.64752229 0.24568064 10.46875 2.28125 C12.08267327 4.61979188 12.54379543 5.69709278 12.5 8.5 C12.5103125 9.16 12.520625 9.82 12.53125 10.5 C11.72167176 13.54782397 10.55457707 14.65682414 8 16.5 C5.16934716 16.90100915 2.81653341 17.06122899 0 17 C-0.7115625 17.01546875 -1.423125 17.0309375 -2.15625 17.046875 C-5.60314984 17.02115187 -7.64752229 16.75431936 -10.46875 14.71875 C-12.08267327 12.38020812 -12.54379543 11.30290722 -12.5 8.5 C-12.51546875 7.51 -12.51546875 7.51 -12.53125 6.5 C-10.82633794 0.08150756 -5.75061521 -0.12501337 0 0 Z " fill="#0094F0" transform="translate(84,335.5)"/>
</svg>
