<?xml version="1.0" encoding="UTF-8"?>
<svg version="1.1" xmlns="http://www.w3.org/2000/svg" width="512" height="512">
<path d="M0 0 C1.91199906 1.50045915 3.80867902 3.02069917 5.6875 4.5625 C6.53828125 5.25988281 7.3890625 5.95726563 8.265625 6.67578125 C31.51366381 26.67055677 45.49421766 55.15979104 48.6875 85.5625 C48.82053948 89.25128932 48.82731271 92.93416755 48.8125 96.625 C48.81636719 97.59244141 48.82023437 98.55988281 48.82421875 99.55664062 C48.81767437 104.33730935 48.68606331 108.86291235 47.6875 113.5625 C49.1415625 113.69205078 49.1415625 113.69205078 50.625 113.82421875 C60.82946598 114.84852094 70.04225617 117.11200482 79.6875 120.5625 C81.22664062 121.10003906 81.22664062 121.10003906 82.796875 121.6484375 C109.10857703 131.67532935 129.77340349 153.14930378 141.53442383 178.41772461 C152.42787768 202.78148338 154.90621303 231.9994253 146.6875 257.5625 C146.36604004 258.58706299 146.36604004 258.58706299 146.03808594 259.63232422 C141.45547427 273.85709769 134.49968908 286.25226679 124.6875 297.5625 C124.01203125 298.38234375 123.3365625 299.2021875 122.640625 300.046875 C112.70508966 311.72294208 98.36749743 322.6189795 83.6875 327.5625 C80.53533097 327.36951006 78.2381027 326.81547962 75.375 325.5 C73.25007402 323.06027017 72.6932616 320.81878162 72.48828125 317.609375 C72.7572883 314.84545941 73.79096169 313.03902004 75.7109375 311.0546875 C79.32347949 308.32743248 83.38990363 306.40619814 87.40625 304.34375 C91.94568226 301.87948677 95.76400078 298.89638246 99.6875 295.5625 C100.41324219 294.99273437 101.13898438 294.42296875 101.88671875 293.8359375 C118.15342074 280.49326745 129.07391167 258.25340765 131.6875 237.5625 C133.24554952 209.46900389 127.72063232 185.05497597 109.0546875 163.15234375 C90.91963661 143.31152074 67.89120607 133.87042215 41.33959961 132.47167969 C35.94796403 132.10904129 32.5427296 131.7343809 28.6875 127.5625 C26.38982647 122.96715295 27.83224334 117.53395441 28.6875 112.6875 C32.84012679 86.54686374 26.62774365 59.61326557 11.21875 38.03125 C1.9453137 25.54001442 -8.64274069 16.14011994 -22.3125 8.5625 C-23.25480469 8.01851562 -24.19710938 7.47453125 -25.16796875 6.9140625 C-47.6292544 -5.29248446 -76.10606287 -6.98332512 -100.4375 -0.046875 C-126.8371186 8.28654891 -148.76826003 26.30417632 -161.5949707 50.85668945 C-164.4769279 56.61233748 -166.78452328 62.57031169 -168.98828125 68.61328125 C-170.3125 71.5625 -170.3125 71.5625 -173.3125 73.5625 C-178.09456722 74.13714758 -180.96900377 74.18558292 -184.91796875 71.33203125 C-186.12313269 70.36002299 -187.31683731 69.37367223 -188.5 68.375 C-200.31034275 59.09396499 -215.1371712 53.90399412 -230.3125 55.5625 C-240.1969566 57.35227815 -248.82047906 60.01697405 -257.3125 65.5625 C-258.02792969 66.02527344 -258.74335938 66.48804687 -259.48046875 66.96484375 C-271.48480224 75.3469799 -279.57096937 88.17446697 -282.3125 102.5625 C-283.95621359 114.476238 -283.65470202 126.10333049 -278.73046875 137.30078125 C-277.20619512 140.80703051 -276.73906094 142.79418619 -277.3125 146.5625 C-280.48655219 151.74733917 -284.46833135 153.27516684 -289.875 155.4375 C-309.9776652 163.95622533 -325.7673716 177.62477852 -335.3125 197.5625 C-343.58071959 218.43743193 -346.46848404 242.51145144 -337.40234375 263.68847656 C-327.30932128 285.92281135 -312.8266792 301.09762823 -290.75 311.8125 C-287.82981013 313.29914211 -286.29961565 314.09776902 -284.3125 316.5625 C-283.68224716 321.44695953 -283.56612779 323.44294169 -286.3125 327.5625 C-290.05309653 330.05623102 -292.98183567 330.12587828 -297.3125 329.5625 C-300.06189807 328.70073812 -302.52514757 327.48058478 -305.0625 326.125 C-306.10011475 325.58637329 -306.10011475 325.58637329 -307.15869141 325.03686523 C-313.74317564 321.51657587 -319.56253724 317.33496909 -325.3125 312.5625 C-326.17359375 311.86511719 -327.0346875 311.16773438 -327.921875 310.44921875 C-346.32319209 294.81952861 -358.22161481 271.40107017 -361.3125 247.5625 C-362.34480607 232.06311296 -362.49357591 216.34325783 -357.3125 201.5625 C-357.07644043 200.86801758 -356.84038086 200.17353516 -356.59716797 199.45800781 C-347.31336771 172.86958696 -328.23192084 152.58800431 -303.296875 139.92578125 C-300.3125 138.5625 -300.3125 138.5625 -298.3125 138.5625 C-298.51746094 138.04945313 -298.72242188 137.53640625 -298.93359375 137.0078125 C-305.34198262 118.79449677 -302.63731163 97.54626321 -294.8125 80.24609375 C-284.20222548 59.44307865 -267.27412699 46.26268275 -245.375 39.125 C-240.35183209 37.72074001 -235.52262918 36.77958872 -230.3125 36.5625 C-229.18328125 36.50255859 -229.18328125 36.50255859 -228.03125 36.44140625 C-212.2955891 36.00714288 -196.35512173 39.61168117 -183.3125 48.5625 C-182.6525 48.5625 -181.9925 48.5625 -181.3125 48.5625 C-180.92320312 47.71429688 -180.53390625 46.86609375 -180.1328125 45.9921875 C-167.77140608 20.07310953 -148.73105769 1.57514914 -123.3125 -11.4375 C-122.21679688 -12.0046875 -121.12109375 -12.571875 -119.9921875 -13.15625 C-81.71434186 -31.23446143 -33.74918052 -24.74077857 0 0 Z " fill="#00A7F0" transform="translate(361.3125,23.4375)"/>
<path d="M0 0 C1.09170012 -0.00583219 2.18340024 -0.01166439 3.30818218 -0.01767331 C4.50709608 -0.01389399 5.70600999 -0.01011467 6.94125462 -0.00622082 C8.21521282 -0.01004636 9.48917103 -0.01387191 10.80173403 -0.01781338 C14.34036545 -0.02812018 17.87889586 -0.02590478 21.41753566 -0.02163279 C25.23287709 -0.01917043 29.04819388 -0.02817361 32.86352634 -0.03567028 C40.33904539 -0.04843285 47.81452854 -0.05020904 55.29005664 -0.04787002 C61.3649612 -0.04608848 67.43985485 -0.04783296 73.51475811 -0.05209446 C74.37868524 -0.05268965 75.24261238 -0.05328484 76.13271912 -0.05389806 C77.88766833 -0.05510979 79.64261754 -0.05632392 81.39756674 -0.05754044 C97.86295021 -0.06842192 114.32831321 -0.06625057 130.79369784 -0.06015559 C145.86356469 -0.05498557 160.93336691 -0.06624305 176.00322097 -0.08525381 C191.4698576 -0.10461585 206.93646364 -0.11289111 222.40311247 -0.10913056 C231.08930942 -0.10721607 239.77545136 -0.10973017 248.46163845 -0.1238451 C255.85601366 -0.13573905 263.25029999 -0.13718616 270.64467638 -0.12505493 C274.41845296 -0.1191523 278.19206682 -0.11810482 281.96583271 -0.13005733 C286.05404274 -0.14285549 290.1418629 -0.13248472 294.23007298 -0.11974621 C295.42675616 -0.12712049 296.62343934 -0.13449478 297.85638565 -0.14209253 C298.95069351 -0.13488598 300.04500138 -0.12767944 301.17247009 -0.12025452 C302.11618514 -0.12030953 303.0599002 -0.12036455 304.03221267 -0.12042123 C307.20221297 0.33370523 309.07885954 1.3685863 311.64915562 3.25447559 C313.93671468 7.94222685 313.93469433 12.63184948 313.90794468 17.75081348 C313.91320164 18.99829113 313.91320164 18.99829113 313.9185648 20.27097034 C313.92733193 23.00644365 313.92155127 25.74165613 313.91478062 28.47713184 C313.91612858 30.38472003 313.91807021 32.29230789 313.92057896 34.19989491 C313.92352331 38.19183603 313.91925423 42.18368749 313.9098978 46.17561817 C313.89849596 51.28904089 313.90507176 56.40225382 313.91704273 61.51566887 C313.9242733 65.45248461 313.92196802 69.38925068 313.91678715 73.32606792 C313.91545437 75.21150138 313.91708535 77.09693935 313.92174625 78.98236752 C313.92683197 81.6175438 313.91907284 84.25238116 313.90794468 86.88753223 C313.91199314 87.6642931 313.9160416 88.44105396 313.92021275 89.24135303 C313.88139132 94.21011483 313.38590346 98.04406925 310.27415562 102.00447559 C307.01520982 104.51135697 303.34771492 104.3805689 299.36636734 104.38590336 C298.2898342 104.3897445 297.21330106 104.39358565 296.10414571 104.39754319 C294.92215983 104.39667671 293.74017396 104.39581023 292.52237034 104.39491749 C291.26615747 104.39788861 290.00994461 104.40085973 288.71566468 104.40392089 C285.22652755 104.41198827 281.73741098 104.41378031 278.24826562 104.41451836 C274.48606176 104.41636935 270.72386857 104.42391687 266.96167088 104.43065357 C258.73442886 104.44423515 250.50719172 104.45026122 242.27994037 104.45466423 C237.14334526 104.45742672 232.00675203 104.46166406 226.8701582 104.4661684 C212.64966513 104.47836041 198.42917357 104.48866014 184.20867538 104.4920435 C183.29855254 104.49226306 182.38842969 104.49248263 181.45072736 104.49270885 C180.538424 104.49292712 179.62612063 104.4931454 178.68617171 104.49337029 C176.83748861 104.49381376 174.98880551 104.49426032 173.14012241 104.49470997 C172.22311124 104.4949314 171.30610007 104.49515283 170.36130068 104.49538097 C155.49971697 104.49932968 140.63818227 104.51678624 125.77661749 104.54006949 C110.52015768 104.56377861 95.26372247 104.57624513 80.00724393 104.57741141 C71.4405852 104.57832838 62.87399035 104.58408609 54.30734921 104.60223103 C47.01331491 104.61762601 39.71936423 104.62275601 32.42531677 104.61449292 C28.70394409 104.61058439 24.98273982 104.61152584 21.26138783 104.62555027 C17.22643396 104.6406175 13.19186014 104.63242885 9.15689182 104.62196827 C7.39395126 104.63405288 7.39395126 104.63405288 5.59539574 104.64638162 C-0.47565865 104.60948664 -5.03563492 104.30608841 -10.35084438 101.25447559 C-13.0433807 97.17284589 -12.640273 92.44650176 -12.62550259 87.70393848 C-12.63061352 86.8545319 -12.63572445 86.00512531 -12.64099026 85.12997913 C-12.65486264 82.32895788 -12.65393131 79.52818332 -12.65162563 76.72713184 C-12.65551375 74.77566912 -12.65984866 72.82420725 -12.66461086 70.87274647 C-12.67206793 66.7848737 -12.67178542 62.6970873 -12.66651821 58.60921192 C-12.66072313 53.37584674 -12.67765806 48.14283542 -12.70086288 42.90952873 C-12.71560832 38.88001921 -12.71647083 34.85059476 -12.71335316 30.82106304 C-12.71386592 28.89179184 -12.71909526 26.96251582 -12.72916508 25.03327084 C-12.74152832 22.33341693 -12.73473861 19.63425048 -12.72315884 16.93440723 C-12.73080257 16.14096912 -12.73844631 15.34753101 -12.74632168 14.53004932 C-12.70100876 9.74011891 -12.09246295 6.35485043 -9.35084438 2.25447559 C-6.20897376 0.2251365 -3.69782908 0.00339694 0 0 Z M5.64915562 18.25447559 C5.64915562 40.36447559 5.64915562 62.47447559 5.64915562 85.25447559 C101.34915562 85.25447559 197.04915562 85.25447559 295.64915562 85.25447559 C295.64915562 63.14447559 295.64915562 41.03447559 295.64915562 18.25447559 C199.94915562 18.25447559 104.24915562 18.25447559 5.64915562 18.25447559 Z " fill="#00A7F0" transform="translate(105.35084438323975,187.7455244064331)"/>
<path d="M0 0 C1.09170012 -0.00583219 2.18340024 -0.01166439 3.30818218 -0.01767331 C4.50709608 -0.01389399 5.70600999 -0.01011467 6.94125462 -0.00622082 C8.21521282 -0.01004636 9.48917103 -0.01387191 10.80173403 -0.01781338 C14.34036545 -0.02812018 17.87889586 -0.02590478 21.41753566 -0.02163279 C25.23287709 -0.01917043 29.04819388 -0.02817361 32.86352634 -0.03567028 C40.33904539 -0.04843285 47.81452854 -0.05020904 55.29005664 -0.04787002 C61.3649612 -0.04608848 67.43985485 -0.04783296 73.51475811 -0.05209446 C74.37868524 -0.05268965 75.24261238 -0.05328484 76.13271912 -0.05389806 C77.88766833 -0.05510979 79.64261754 -0.05632392 81.39756674 -0.05754044 C97.86295021 -0.06842192 114.32831321 -0.06625057 130.79369784 -0.06015559 C145.86356469 -0.05498557 160.93336691 -0.06624305 176.00322097 -0.08525381 C191.4698576 -0.10461585 206.93646364 -0.11289111 222.40311247 -0.10913056 C231.08930942 -0.10721607 239.77545136 -0.10973017 248.46163845 -0.1238451 C255.85601366 -0.13573905 263.25029999 -0.13718616 270.64467638 -0.12505493 C274.41845296 -0.1191523 278.19206682 -0.11810482 281.96583271 -0.13005733 C286.05404274 -0.14285549 290.1418629 -0.13248472 294.23007298 -0.11974621 C295.42675616 -0.12712049 296.62343934 -0.13449478 297.85638565 -0.14209253 C298.95069351 -0.13488598 300.04500138 -0.12767944 301.17247009 -0.12025452 C302.11618514 -0.12030953 303.0599002 -0.12036455 304.03221267 -0.12042123 C307.20221297 0.33370523 309.07885954 1.3685863 311.64915562 3.25447559 C313.93671468 7.94222685 313.93469433 12.63184948 313.90794468 17.75081348 C313.91320164 18.99829113 313.91320164 18.99829113 313.9185648 20.27097034 C313.92733193 23.00644365 313.92155127 25.74165613 313.91478062 28.47713184 C313.91612858 30.38472003 313.91807021 32.29230789 313.92057896 34.19989491 C313.92352331 38.19183603 313.91925423 42.18368749 313.9098978 46.17561817 C313.89849596 51.28904089 313.90507176 56.40225382 313.91704273 61.51566887 C313.9242733 65.45248461 313.92196802 69.38925068 313.91678715 73.32606792 C313.91545437 75.21150138 313.91708535 77.09693935 313.92174625 78.98236752 C313.92683197 81.6175438 313.91907284 84.25238116 313.90794468 86.88753223 C313.91199314 87.6642931 313.9160416 88.44105396 313.92021275 89.24135303 C313.88174832 94.16442227 313.45416672 97.91318207 310.40676397 101.86599118 C307.99195482 103.77365444 306.41534781 103.63150121 303.35609627 103.63479233 C302.25183692 103.64323227 301.14757756 103.65167221 300.00985581 103.66036791 C298.79178315 103.65435786 297.57371049 103.64834782 296.31872654 103.64215565 C294.3835112 103.65023395 294.3835112 103.65023395 292.40920061 103.65847546 C288.82073186 103.67298338 285.23249174 103.66866883 281.64401019 103.66130865 C277.77685242 103.65659241 273.90974523 103.66907309 270.04260349 103.67932606 C262.46366254 103.69654988 254.88480436 103.69734666 247.3058489 103.69211315 C241.14747864 103.68807684 234.9891329 103.68950858 228.83076382 103.69486141 C227.95531103 103.69560983 227.07985824 103.69635826 226.17787657 103.69712936 C224.39957209 103.69866079 222.62126762 103.70019913 220.84296315 103.70174433 C204.15441895 103.71548235 187.46592158 103.71002256 170.77737843 103.69855911 C155.49982281 103.6886255 140.22238828 103.70156729 124.94485135 103.7254933 C109.26919241 103.74985842 93.59358993 103.75949855 77.91791242 103.75284058 C69.1126697 103.74934257 60.30752013 103.75161864 51.50229168 103.76909161 C44.00646297 103.7837813 36.510793 103.78449158 29.01496751 103.76702069 C25.18862317 103.75848145 21.36256281 103.75643183 17.53623295 103.77167225 C13.39277894 103.78797181 9.25001609 103.77343394 5.10656834 103.75568104 C3.8907264 103.76528604 2.67488446 103.77489105 1.42219883 103.78478712 C0.31533173 103.77497283 -0.79153537 103.76515854 -1.93194389 103.75504684 C-2.88873179 103.75493951 -3.84551968 103.75483217 -4.83130115 103.75472158 C-8.11343016 103.10306701 -9.28652936 101.83659488 -11.35084438 99.25447559 C-12.61692607 95.45623052 -12.50646507 91.88884787 -12.5119772 87.93098927 C-12.5169421 87.08187473 -12.52190701 86.2327602 -12.52702236 85.35791492 C-12.54163892 82.54608318 -12.54844532 79.73430786 -12.55396938 76.92244434 C-12.55972147 74.96812406 -12.5654792 73.01380378 -12.57124233 71.05948353 C-12.58175103 66.95968329 -12.58759449 62.85990265 -12.59107876 58.76009083 C-12.59656169 53.5109979 -12.62058603 48.26216461 -12.64905071 43.01315308 C-12.66769037 38.97507442 -12.67288341 34.93705813 -12.67441463 30.89894009 C-12.67743894 28.96407941 -12.68545996 27.02921978 -12.69859982 25.09440136 C-12.71568719 22.38478287 -12.71377345 19.67579628 -12.7072897 16.96614552 C-12.71650448 16.16956532 -12.72571926 15.37298512 -12.73521328 14.55226612 C-12.6992942 9.75141785 -12.10196221 6.3635369 -9.35084438 2.25447559 C-6.20881307 0.22532327 -3.69790887 0.00339702 0 0 Z M5.64915562 18.25447559 C5.64915562 40.36447559 5.64915562 62.47447559 5.64915562 85.25447559 C101.34915562 85.25447559 197.04915562 85.25447559 295.64915562 85.25447559 C295.64915562 63.14447559 295.64915562 41.03447559 295.64915562 18.25447559 C199.94915562 18.25447559 104.24915562 18.25447559 5.64915562 18.25447559 Z " fill="#00A7F0" transform="translate(105.35084438323975,298.7455244064331)"/>
<path d="M0 0 C1.09170012 -0.00583219 2.18340024 -0.01166439 3.30818218 -0.01767331 C4.50709608 -0.01389399 5.70600999 -0.01011467 6.94125462 -0.00622082 C8.21521282 -0.01004636 9.48917103 -0.01387191 10.80173403 -0.01781338 C14.34036545 -0.02812018 17.87889586 -0.02590478 21.41753566 -0.02163279 C25.23287709 -0.01917043 29.04819388 -0.02817361 32.86352634 -0.03567028 C40.33904539 -0.04843285 47.81452854 -0.05020904 55.29005664 -0.04787002 C61.3649612 -0.04608848 67.43985485 -0.04783296 73.51475811 -0.05209446 C74.37868524 -0.05268965 75.24261238 -0.05328484 76.13271912 -0.05389806 C77.88766833 -0.05510979 79.64261754 -0.05632392 81.39756674 -0.05754044 C97.86295021 -0.06842192 114.32831321 -0.06625057 130.79369784 -0.06015559 C145.86356469 -0.05498557 160.93336691 -0.06624305 176.00322097 -0.08525381 C191.4698576 -0.10461585 206.93646364 -0.11289111 222.40311247 -0.10913056 C231.08930942 -0.10721607 239.77545136 -0.10973017 248.46163845 -0.1238451 C255.85601366 -0.13573905 263.25029999 -0.13718616 270.64467638 -0.12505493 C274.41845296 -0.1191523 278.19206682 -0.11810482 281.96583271 -0.13005733 C286.05404274 -0.14285549 290.1418629 -0.13248472 294.23007298 -0.11974621 C295.42675616 -0.12712049 296.62343934 -0.13449478 297.85638565 -0.14209253 C298.95069351 -0.13488598 300.04500138 -0.12767944 301.17247009 -0.12025452 C302.11618514 -0.12030953 303.0599002 -0.12036455 304.03221267 -0.12042123 C307.19004295 0.33196179 309.07384224 1.40075569 311.64915562 3.25447559 C314.17758514 7.46324706 313.93246996 11.957363 313.90794468 16.72908497 C313.91320164 17.99097393 313.91320164 17.99097393 313.9185648 19.2783556 C313.92734795 22.0517302 313.92154502 24.82484851 313.91478062 27.59822559 C313.91612825 29.52966326 313.9180696 31.46110061 313.92057896 33.39253712 C313.92352559 37.43753258 313.91924735 41.48243963 313.9098978 45.52742481 C313.89850357 50.70925656 313.9050655 55.89088112 313.91704273 61.07270527 C313.92427374 65.06013516 313.92196769 69.04751602 313.91678715 73.0349474 C313.91545409 74.94550062 313.91708633 76.85605832 313.92174625 78.76660633 C313.92683183 81.43781271 313.91907267 84.1086847 313.90794468 86.77986622 C313.91199314 87.56754887 313.9160416 88.35523151 313.92021275 89.16678333 C313.87914592 94.49472772 313.49595063 98.40768058 309.64915562 102.25447559 C307.36518532 102.50632459 307.36518532 102.50632459 304.44511604 102.50895119 C303.33526425 102.51478338 302.22541246 102.52061557 301.08192879 102.5266245 C299.85247927 102.52284518 298.62302976 102.51906585 297.3563242 102.515172 C295.40908149 102.52091033 295.40908149 102.52091033 293.42250055 102.52676457 C289.80708053 102.53709799 286.19175908 102.53484926 282.57633078 102.53058398 C278.68191894 102.52812639 274.78753144 102.53711883 270.8931284 102.54462147 C263.25892029 102.55739754 255.62474731 102.55915855 247.99053032 102.5568212 C241.78779573 102.55504112 235.58507183 102.55678101 229.38233852 102.56104565 C228.5009108 102.56164084 227.61948307 102.56223602 226.71134542 102.56284925 C224.92095967 102.56406095 223.13057394 102.56527508 221.3401882 102.56649163 C204.5343727 102.57737837 187.72857724 102.57519931 170.9227606 102.56910678 C155.53455621 102.5639366 140.14641511 102.57519371 124.75822324 102.594205 C108.97299621 102.61355792 93.18779916 102.62184388 77.40256017 102.61808175 C68.53419185 102.61616583 59.66587741 102.61869516 50.79751873 102.63279629 C43.24786377 102.64467869 35.69829584 102.64615046 28.14863975 102.63400612 C24.29411541 102.62809522 20.4397505 102.62707854 16.58523655 102.63900852 C12.41302004 102.65177212 8.24118703 102.64145557 4.06897068 102.6286974 C2.84175189 102.63607168 1.61453309 102.64344597 0.35012585 102.65104371 C-0.76233369 102.64383717 -1.87479323 102.63663063 -3.02096367 102.6292057 C-3.98474888 102.62926072 -4.9485341 102.62931574 -5.94152492 102.62937242 C-8.79744786 102.18498285 -9.65200922 101.55400129 -11.35084438 99.25447559 C-12.61692607 95.45623052 -12.50646507 91.88884787 -12.5119772 87.93098927 C-12.5169421 87.08187473 -12.52190701 86.2327602 -12.52702236 85.35791492 C-12.54163892 82.54608318 -12.54844532 79.73430786 -12.55396938 76.92244434 C-12.55972147 74.96812406 -12.5654792 73.01380378 -12.57124233 71.05948353 C-12.58175103 66.95968329 -12.58759449 62.85990265 -12.59107876 58.76009083 C-12.59656169 53.5109979 -12.62058603 48.26216461 -12.64905071 43.01315308 C-12.66769037 38.97507442 -12.67288341 34.93705813 -12.67441463 30.89894009 C-12.67743894 28.96407941 -12.68545996 27.02921978 -12.69859982 25.09440136 C-12.71568719 22.38478287 -12.71377345 19.67579628 -12.7072897 16.96614552 C-12.71650448 16.16956532 -12.72571926 15.37298512 -12.73521328 14.55226612 C-12.6992942 9.75141785 -12.10196221 6.3635369 -9.35084438 2.25447559 C-6.20881307 0.22532327 -3.69790887 0.00339702 0 0 Z M5.64915562 18.25447559 C5.64915562 40.36447559 5.64915562 62.47447559 5.64915562 85.25447559 C101.34915562 85.25447559 197.04915562 85.25447559 295.64915562 85.25447559 C295.64915562 63.14447559 295.64915562 41.03447559 295.64915562 18.25447559 C199.94915562 18.25447559 104.24915562 18.25447559 5.64915562 18.25447559 Z " fill="#00A7F0" transform="translate(105.35084438323975,409.7455244064331)"/>
<path d="M0 0 C5.85371842 4.27218748 10.18859971 9.44536217 11.625 16.61328125 C13.00283585 25.47735856 11.15644782 32.34402479 5.9296875 39.61328125 C1.12228342 45.29175167 -4.47836554 48.08879018 -11.93359375 48.84375 C-20.09401461 49.17968499 -26.57941739 46.53839095 -32.9453125 41.48828125 C-37.54901896 36.79604197 -40.41219621 30.25548995 -40.8359375 23.6875 C-40.54253435 14.0051962 -37.29367993 7.91343512 -30.3359375 1.3125 C-20.85892881 -4.92845694 -10.05680128 -5.76546262 0 0 Z M-20.2109375 16.1875 C-22.37739778 19.56717804 -22.33631752 21.68483987 -21.7734375 25.625 C-19.84361333 28.34104883 -18.43142975 29.37192606 -15.3359375 30.5625 C-11.98241607 30.64429321 -10.42415879 29.61304097 -7.7734375 27.625 C-6.22756874 24.53326248 -6.47984229 22.03070448 -6.7734375 18.625 C-8.19010417 16.04166667 -8.19010417 16.04166667 -10.7734375 14.625 C-14.71359763 14.06211998 -16.83125946 14.02103972 -20.2109375 16.1875 Z " fill="#008FF0" transform="translate(167.7734375,328.375)"/>
<path d="M0 0 C5.85371842 4.27218748 10.18859971 9.44536217 11.625 16.61328125 C13.00283585 25.47735856 11.15644782 32.34402479 5.9296875 39.61328125 C1.12228342 45.29175167 -4.47836554 48.08879018 -11.93359375 48.84375 C-20.09401461 49.17968499 -26.57941739 46.53839095 -32.9453125 41.48828125 C-37.54901896 36.79604197 -40.41219621 30.25548995 -40.8359375 23.6875 C-40.54253435 14.0051962 -37.29367993 7.91343512 -30.3359375 1.3125 C-20.85892881 -4.92845694 -10.05680128 -5.76546262 0 0 Z M-21.7734375 18.625 C-22.41749276 22.63245494 -22.46080569 24.65759292 -20.0859375 28 C-17.46147333 29.84421807 -15.98413803 30.54669023 -12.7734375 30.625 C-9.06082523 28.87386475 -9.06082523 28.87386475 -6.7734375 25.625 C-6.27312544 22.20928147 -6.27312544 22.20928147 -6.7734375 18.625 C-9.1669892 15.95789953 -10.75780733 14.82812603 -14.2734375 14.125 C-17.78906767 14.82812603 -19.3798858 15.95789953 -21.7734375 18.625 Z " fill="#008FF0" transform="translate(167.7734375,217.375)"/>
<path d="M0 0 C5.85371842 4.27218748 10.18859971 9.44536217 11.625 16.61328125 C12.97529167 25.30015764 11.24689437 32.37365602 6.13671875 39.54296875 C0.62748016 45.54792614 -6.04576697 48.26133304 -14.0234375 48.875 C-22.03728865 48.34074326 -29.14715811 45.4719178 -34.7734375 39.625 C-39.73996773 32.26763388 -41.48607816 25.33846115 -40.2109375 16.625 C-38.55528259 9.35354262 -33.96247507 3.70070767 -27.7734375 -0.375 C-19.09526962 -5.43726459 -8.63886329 -4.95257309 0 0 Z M-20.2109375 16.1875 C-22.37739778 19.56717804 -22.33631752 21.68483987 -21.7734375 25.625 C-19.9969571 28.03593768 -18.5575983 29.2329196 -15.8984375 30.5625 C-12.63312048 30.65853874 -10.52430921 29.27552303 -7.7734375 27.625 C-6.22756874 24.53326248 -6.47984229 22.03070448 -6.7734375 18.625 C-8.19010417 16.04166667 -8.19010417 16.04166667 -10.7734375 14.625 C-14.71359763 14.06211998 -16.83125946 14.02103972 -20.2109375 16.1875 Z " fill="#008FF0" transform="translate(167.7734375,439.375)"/>
<path d="M0 0 C5.94 0 11.88 0 18 0 C18 5.94 18 11.88 18 18 C12.06 18 6.12 18 0 18 C0 12.06 0 6.12 0 0 Z " fill="#00C4EF" transform="translate(366,470)"/>
<path d="M0 0 C5.94 0 11.88 0 18 0 C18 5.94 18 11.88 18 18 C12.06 18 6.12 18 0 18 C0 12.06 0 6.12 0 0 Z " fill="#00BCF0" transform="translate(332,470)"/>
<path d="M0 0 C5.94 0 11.88 0 18 0 C18 5.94 18 11.88 18 18 C12.06 18 6.12 18 0 18 C0 12.06 0 6.12 0 0 Z " fill="#00B4EF" transform="translate(298,470)"/>
<path d="M0 0 C5.94 0 11.88 0 18 0 C18 5.94 18 11.88 18 18 C12.06 18 6.12 18 0 18 C0 12.06 0 6.12 0 0 Z " fill="#00ACEF" transform="translate(264,470)"/>
<path d="M0 0 C5.94 0 11.88 0 18 0 C18 5.94 18 11.88 18 18 C12.06 18 6.12 18 0 18 C0 12.06 0 6.12 0 0 Z " fill="#00A3EF" transform="translate(230,470)"/>
<path d="M0 0 C5.94 0 11.88 0 18 0 C18 5.94 18 11.88 18 18 C12.06 18 6.12 18 0 18 C0 12.06 0 6.12 0 0 Z " fill="#009BEF" transform="translate(196,470)"/>
<path d="M0 0 C5.94 0 11.88 0 18 0 C18 5.94 18 11.88 18 18 C12.06 18 6.12 18 0 18 C0 12.06 0 6.12 0 0 Z " fill="#00C4F0" transform="translate(366,436)"/>
<path d="M0 0 C5.94 0 11.88 0 18 0 C18 5.94 18 11.88 18 18 C12.06 18 6.12 18 0 18 C0 12.06 0 6.12 0 0 Z " fill="#00BCF0" transform="translate(332,436)"/>
<path d="M0 0 C5.94 0 11.88 0 18 0 C18 5.94 18 11.88 18 18 C12.06 18 6.12 18 0 18 C0 12.06 0 6.12 0 0 Z " fill="#00B4F0" transform="translate(298,436)"/>
<path d="M0 0 C5.94 0 11.88 0 18 0 C18 5.94 18 11.88 18 18 C12.06 18 6.12 18 0 18 C0 12.06 0 6.12 0 0 Z " fill="#00ACF0" transform="translate(264,436)"/>
<path d="M0 0 C5.94 0 11.88 0 18 0 C18 5.94 18 11.88 18 18 C12.06 18 6.12 18 0 18 C0 12.06 0 6.12 0 0 Z " fill="#00A3F0" transform="translate(230,436)"/>
<path d="M0 0 C5.94 0 11.88 0 18 0 C18 5.94 18 11.88 18 18 C12.06 18 6.12 18 0 18 C0 12.06 0 6.12 0 0 Z " fill="#009BF0" transform="translate(196,436)"/>
<path d="M0 0 C5.94 0 11.88 0 18 0 C18 5.94 18 11.88 18 18 C12.06 18 6.12 18 0 18 C0 12.06 0 6.12 0 0 Z " fill="#00C4EF" transform="translate(366,359)"/>
<path d="M0 0 C5.94 0 11.88 0 18 0 C18 5.94 18 11.88 18 18 C12.06 18 6.12 18 0 18 C0 12.06 0 6.12 0 0 Z " fill="#00BCF0" transform="translate(332,359)"/>
<path d="M0 0 C5.94 0 11.88 0 18 0 C18 5.94 18 11.88 18 18 C12.06 18 6.12 18 0 18 C0 12.06 0 6.12 0 0 Z " fill="#00B4F0" transform="translate(298,359)"/>
<path d="M0 0 C5.94 0 11.88 0 18 0 C18 5.94 18 11.88 18 18 C12.06 18 6.12 18 0 18 C0 12.06 0 6.12 0 0 Z " fill="#00ACF0" transform="translate(264,359)"/>
<path d="M0 0 C5.94 0 11.88 0 18 0 C18 5.94 18 11.88 18 18 C12.06 18 6.12 18 0 18 C0 12.06 0 6.12 0 0 Z " fill="#00A3F0" transform="translate(230,359)"/>
<path d="M0 0 C5.94 0 11.88 0 18 0 C18 5.94 18 11.88 18 18 C12.06 18 6.12 18 0 18 C0 12.06 0 6.12 0 0 Z " fill="#009BEF" transform="translate(196,359)"/>
<path d="M0 0 C5.94 0 11.88 0 18 0 C18 5.94 18 11.88 18 18 C12.06 18 6.12 18 0 18 C0 12.06 0 6.12 0 0 Z " fill="#00C4EF" transform="translate(366,325)"/>
<path d="M0 0 C5.94 0 11.88 0 18 0 C18 5.94 18 11.88 18 18 C12.06 18 6.12 18 0 18 C0 12.06 0 6.12 0 0 Z " fill="#00BCF0" transform="translate(332,325)"/>
<path d="M0 0 C5.94 0 11.88 0 18 0 C18 5.94 18 11.88 18 18 C12.06 18 6.12 18 0 18 C0 12.06 0 6.12 0 0 Z " fill="#00B4EF" transform="translate(298,325)"/>
<path d="M0 0 C5.94 0 11.88 0 18 0 C18 5.94 18 11.88 18 18 C12.06 18 6.12 18 0 18 C0 12.06 0 6.12 0 0 Z " fill="#00ACEF" transform="translate(264,325)"/>
<path d="M0 0 C5.94 0 11.88 0 18 0 C18 5.94 18 11.88 18 18 C12.06 18 6.12 18 0 18 C0 12.06 0 6.12 0 0 Z " fill="#00A3EF" transform="translate(230,325)"/>
<path d="M0 0 C5.94 0 11.88 0 18 0 C18 5.94 18 11.88 18 18 C12.06 18 6.12 18 0 18 C0 12.06 0 6.12 0 0 Z " fill="#009BEF" transform="translate(196,325)"/>
<path d="M0 0 C5.94 0 11.88 0 18 0 C18 5.94 18 11.88 18 18 C12.06 18 6.12 18 0 18 C0 12.06 0 6.12 0 0 Z " fill="#00C4F0" transform="translate(366,248)"/>
<path d="M0 0 C5.94 0 11.88 0 18 0 C18 5.94 18 11.88 18 18 C12.06 18 6.12 18 0 18 C0 12.06 0 6.12 0 0 Z " fill="#00BCF0" transform="translate(332,248)"/>
<path d="M0 0 C5.94 0 11.88 0 18 0 C18 5.94 18 11.88 18 18 C12.06 18 6.12 18 0 18 C0 12.06 0 6.12 0 0 Z " fill="#00B4F0" transform="translate(298,248)"/>
<path d="M0 0 C5.94 0 11.88 0 18 0 C18 5.94 18 11.88 18 18 C12.06 18 6.12 18 0 18 C0 12.06 0 6.12 0 0 Z " fill="#00ACF0" transform="translate(264,248)"/>
<path d="M0 0 C5.94 0 11.88 0 18 0 C18 5.94 18 11.88 18 18 C12.06 18 6.12 18 0 18 C0 12.06 0 6.12 0 0 Z " fill="#00A3F0" transform="translate(230,248)"/>
<path d="M0 0 C5.94 0 11.88 0 18 0 C18 5.94 18 11.88 18 18 C12.06 18 6.12 18 0 18 C0 12.06 0 6.12 0 0 Z " fill="#009BF0" transform="translate(196,248)"/>
<path d="M0 0 C5.94 0 11.88 0 18 0 C18 5.94 18 11.88 18 18 C12.06 18 6.12 18 0 18 C0 12.06 0 6.12 0 0 Z " fill="#00C4EF" transform="translate(366,214)"/>
<path d="M0 0 C5.94 0 11.88 0 18 0 C18 5.94 18 11.88 18 18 C12.06 18 6.12 18 0 18 C0 12.06 0 6.12 0 0 Z " fill="#00BCF0" transform="translate(332,214)"/>
<path d="M0 0 C5.94 0 11.88 0 18 0 C18 5.94 18 11.88 18 18 C12.06 18 6.12 18 0 18 C0 12.06 0 6.12 0 0 Z " fill="#00B4EF" transform="translate(298,214)"/>
<path d="M0 0 C5.94 0 11.88 0 18 0 C18 5.94 18 11.88 18 18 C12.06 18 6.12 18 0 18 C0 12.06 0 6.12 0 0 Z " fill="#00ACEF" transform="translate(264,214)"/>
<path d="M0 0 C5.94 0 11.88 0 18 0 C18 5.94 18 11.88 18 18 C12.06 18 6.12 18 0 18 C0 12.06 0 6.12 0 0 Z " fill="#00A3EF" transform="translate(230,214)"/>
<path d="M0 0 C5.94 0 11.88 0 18 0 C18 5.94 18 11.88 18 18 C12.06 18 6.12 18 0 18 C0 12.06 0 6.12 0 0 Z " fill="#009BEF" transform="translate(196,214)"/>
</svg>
