<?xml version="1.0" encoding="UTF-8"?>
<svg version="1.1" xmlns="http://www.w3.org/2000/svg" width="512" height="512">
<path d="M0 0 C1.05058594 0.56332031 2.10117187 1.12664062 3.18359375 1.70703125 C14.94744848 8.23910663 25.24767354 16.77566574 35 26 C35.87140625 26.80695313 36.7428125 27.61390625 37.640625 28.4453125 C60.48673684 50.31230526 74.99933183 79.38564394 82 110 C82.16371094 110.69754395 82.32742188 111.39508789 82.49609375 112.11376953 C90.97246707 149.93345586 83.66584201 191.41662909 65 225 C64.43667969 226.05058594 63.87335938 227.10117187 63.29296875 228.18359375 C56.76089337 239.94744848 48.22433426 250.24767354 39 260 C37.78957031 261.30710937 37.78957031 261.30710937 36.5546875 262.640625 C8.6526107 291.79204852 -32.05404858 309.02450827 -72.22265625 310.28125 C-118.9704263 311.13411696 -160.91745181 296.29727185 -195 264 C-195.89460938 263.15824219 -196.78921875 262.31648438 -197.7109375 261.44921875 C-226.28127706 233.79921226 -244.14902034 193.23956926 -245.3359375 153.4765625 C-245.70247655 121.93826729 -240.47703579 92.84610699 -225 65 C-224.43667969 63.94941406 -223.87335938 62.89882812 -223.29296875 61.81640625 C-216.763376 50.05702258 -208.23050716 39.74073619 -199 30 C-198.15824219 29.10539062 -197.31648438 28.21078125 -196.44921875 27.2890625 C-146.15754044 -24.67657905 -62.56160024 -34.77211828 0 0 Z M-81 -7 C-84.71815192 -2.1701709 -87.15848301 2.14345875 -89 7.9375 C-89.24782227 8.6996582 -89.49564453 9.46181641 -89.75097656 10.24707031 C-94.72629353 26.20239713 -99 44.22802571 -99 61 C-86.46 61 -73.92 61 -61 61 C-61.72171511 52.33941865 -62.65639614 44.28187098 -64.25 35.8125 C-64.47107422 34.63502197 -64.69214844 33.45754395 -64.91992188 32.24438477 C-68.39395662 12.65804044 -68.39395662 12.65804044 -77 -5 C-79.05434176 -6.26563221 -79.05434176 -6.26563221 -81 -7 Z M-123 11 C-123.62519531 11.54140625 -124.25039062 12.0828125 -124.89453125 12.640625 C-139.65402383 26.32858534 -150.87767769 48.0518799 -157 67 C-157 67.99 -157 68.98 -157 70 C-149.11729839 68.71164447 -141.24538055 67.36129486 -133.375 66 C-131.92758423 65.7510498 -131.92758423 65.7510498 -130.45092773 65.49707031 C-124.27999933 64.42642607 -118.13503011 63.26018646 -112 62 C-110.72706367 55.90470528 -109.62287006 49.80330164 -108.65600586 43.65234375 C-107.21401843 34.52702049 -105.57014929 25.49077064 -103.4375 16.5 C-103.23987061 15.65912842 -103.04224121 14.81825684 -102.83862305 13.9519043 C-101.88589198 10.05972113 -100.79852367 6.33111639 -99.34765625 2.59375 C-97.82443828 -0.82847681 -97.82443828 -0.82847681 -98 -4 C-107.33238005 -4 -116.41245207 5.16738299 -123 11 Z M-62 -4 C-61.81751709 -3.33935547 -61.63503418 -2.67871094 -61.44702148 -1.99804688 C-56.12015697 17.39466998 -51.97657627 36.6191043 -49.38549805 56.57763672 C-49.04644384 59.13266748 -49.04644384 59.13266748 -48 62 C-40.50687809 63.37434821 -33.00691438 64.70325905 -25.5 66 C-17.99308562 67.29674095 -10.49312191 68.62565179 -3 70 C-4.32144984 62.68697643 -6.75106296 56.54078789 -10 49.875 C-10.48984375 48.86526123 -10.9796875 47.85552246 -11.484375 46.81518555 C-18.21590475 33.21875328 -26.28947946 21.72677323 -37 11 C-37.65355469 10.33484375 -38.30710937 9.6696875 -38.98046875 8.984375 C-44.43749899 3.81823124 -54.28061344 -4 -62 -4 Z M-187 36 C-187.78632813 36.73605469 -188.57265625 37.47210938 -189.3828125 38.23046875 C-206.23498443 54.34866107 -222.25818905 78.853533 -227 102 C-226.67 102.99 -226.34 103.98 -226 105 C-224.7625 103.96552734 -224.7625 103.96552734 -223.5 102.91015625 C-211.28419197 92.89226143 -198.24382796 85.64731776 -183.71875 79.5078125 C-183.11514648 79.2495166 -182.51154297 78.9912207 -181.88964844 78.72509766 C-180 78 -180 78 -177.86816406 77.44287109 C-173.74650672 76.30604019 -173.74650672 76.30604019 -170.90625 73.29248047 C-170.03296549 71.01134574 -169.37631439 68.73591702 -168.75 66.375 C-162.06366605 44.67152143 -151.50277666 25.68879298 -136.9453125 8.33984375 C-135.22538389 6.27109428 -133.59208694 4.16784165 -132 2 C-151.13661518 2 -173.97568614 23.26554476 -187 36 Z M-28 2 C-27.63430908 2.41902588 -27.26861816 2.83805176 -26.8918457 3.26977539 C-14.35634047 17.74737296 -4.27332537 32.93092088 3.25 50.5625 C3.59434082 51.36067139 3.93868164 52.15884277 4.29345703 52.98120117 C5.84753436 56.71167272 7.14032319 60.23465605 7.8359375 64.22265625 C8.71015254 68.54612568 9.48433475 71.35404459 12 75 C17.85469321 78.81634264 24.68820734 80.79769093 31.26367188 83.01904297 C35.05893505 84.37962179 38.58640894 86.07762184 42.125 88 C42.71708252 88.32121826 43.30916504 88.64243652 43.91918945 88.97338867 C49.0594595 91.86609709 53.68993758 95.273199 58.31640625 98.921875 C61.13382279 101.10362987 64.01629485 103.05467682 67 105 C63.73582593 79.70265093 46.28120181 55.90552269 29 38 C28.21109375 37.14792969 27.4221875 36.29585937 26.609375 35.41796875 C12.61601284 20.70640423 -6.09925119 9.31364332 -25 2 C-25.99 2 -26.98 2 -28 2 Z M-101 74 C-102.06379881 85.75908031 -103.06816639 97.51706886 -103.625 109.3125 C-103.66488037 110.1080127 -103.70476074 110.90352539 -103.74584961 111.72314453 C-104.13821379 120.82635598 -104 129.86553025 -104 139 C-88.16 139 -72.32 139 -56 139 C-56.48708863 117.24337445 -57.16616547 95.68302455 -59 74 C-62.84759237 72.75497252 -66.6896564 72.85579779 -70.6875 72.8671875 C-71.42701904 72.86623077 -72.16653809 72.86527405 -72.9284668 72.86428833 C-74.48844488 72.86360933 -76.04842582 72.86544408 -77.60839844 72.86962891 C-79.99160122 72.87498114 -82.37461555 72.86967447 -84.7578125 72.86328125 C-86.27604208 72.86394208 -87.79427155 72.86522335 -89.3125 72.8671875 C-90.37827271 72.86415115 -90.37827271 72.86415115 -91.46557617 72.86105347 C-94.78677062 72.87673744 -97.82423135 72.97236535 -101 74 Z M-47 75 C-46.01 96.12 -45.02 117.24 -44 139 C-26.51 139 -9.02 139 9 139 C9 130.10746846 8.90637174 121.9001503 7.75 113.1875 C7.55410278 111.65706055 7.55410278 111.65706055 7.35424805 110.09570312 C6.15834514 101.2392196 4.30921075 92.62730514 2 84 C-9.46105987 80.96735853 -20.90089856 77.95538463 -32.625 76.125 C-33.38659424 76.00535889 -34.14818848 75.88571777 -34.93286133 75.76245117 C-39.05099204 75.16023888 -42.80072476 75 -47 75 Z M-130.1875 76.6875 C-131.7643457 76.94998535 -131.7643457 76.94998535 -133.37304688 77.21777344 C-143.0845396 78.89894725 -152.53437187 81.27639945 -162 84 C-164.58330093 93.65131716 -166.48096453 103.27320929 -167.75 113.1875 C-167.87737549 114.14720703 -168.00475098 115.10691406 -168.13598633 116.09570312 C-169.0761609 123.88063845 -169 131.01199217 -169 139 C-151.51 139 -134.02 139 -116 139 C-115.38525148 124.29803978 -115.38525148 124.29803978 -114.77368164 109.59594727 C-114.28979124 98.05638729 -113.7323002 86.52658259 -113 75 C-118.89417648 74.90377952 -124.38938278 75.71381238 -130.1875 76.6875 Z M-219.625 115.421875 C-225.1529097 121.42256645 -232 130.48036263 -232 139 C-215.5 139 -199 139 -182 139 C-181.30384671 135.51923355 -180.8141529 132.4588983 -180.5703125 128.96484375 C-180.4986084 127.99933594 -180.4269043 127.03382813 -180.35302734 126.0390625 C-180.24015381 124.50378906 -180.24015381 124.50378906 -180.125 122.9375 C-179.26578093 111.86086126 -177.81798 100.95635945 -176 90 C-190.56125318 90 -209.58380359 105.91859983 -219.625 115.421875 Z M16 90 C16.11593506 90.79470703 16.23187012 91.58941406 16.35131836 92.40820312 C20.36348823 120.11042146 20.36348823 120.11042146 20.82421875 132.12890625 C20.92571948 135.22080235 20.92571948 135.22080235 22 139 C38.5 139 55 139 72 139 C69.53418683 124.20512096 59.19140376 113.75105719 47.3828125 105.234375 C32.62372721 94.82169631 32.62372721 94.82169631 16 90 Z M-232 151 C-229.53418683 165.79487904 -219.19140376 176.24894281 -207.3828125 184.765625 C-192.62372721 195.17830369 -192.62372721 195.17830369 -176 200 C-176.17390259 198.80008423 -176.17390259 198.80008423 -176.35131836 197.57592773 C-180.36271062 169.72070764 -180.36271062 169.72070764 -180.82421875 158.75 C-180.9641413 155.60224428 -180.9641413 155.60224428 -182 151 C-198.5 151 -215 151 -232 151 Z M-169 151 C-169 159.89253154 -168.90637174 168.0998497 -167.75 176.8125 C-167.61940186 177.83279297 -167.48880371 178.85308594 -167.35424805 179.90429688 C-166.15834514 188.7607804 -164.30921075 197.37269486 -162 206 C-150.53894013 209.03264147 -139.09910144 212.04461537 -127.375 213.875 C-126.61340576 213.99464111 -125.85181152 214.11428223 -125.06713867 214.23754883 C-120.94900796 214.83976112 -117.19927524 215 -113 215 C-113.99 193.88 -114.98 172.76 -116 151 C-133.49 151 -150.98 151 -169 151 Z M-104 151 C-104.0240379 163.3232689 -104.0240379 163.3232689 -103.59765625 175.609375 C-103.55563583 176.42770813 -103.51361542 177.24604126 -103.47032166 178.08917236 C-103.38220117 179.78952508 -103.29224731 181.4897838 -103.20043945 183.18994141 C-103.06193309 185.76052153 -102.92994011 188.3313769 -102.79882812 190.90234375 C-102.36306767 199.28566029 -101.875933 207.64857421 -101 216 C-97.15240763 217.24502748 -93.3103436 217.14420221 -89.3125 217.1328125 C-88.57298096 217.13376923 -87.83346191 217.13472595 -87.0715332 217.13571167 C-85.51155512 217.13639067 -83.95157418 217.13455592 -82.39160156 217.13037109 C-80.00839878 217.12501886 -77.62538445 217.13032553 -75.2421875 217.13671875 C-73.72395792 217.13605792 -72.20572845 217.13477665 -70.6875 217.1328125 C-69.97698486 217.13483673 -69.26646973 217.13686096 -68.53442383 217.13894653 C-65.21322938 217.12326256 -62.17576865 217.02763465 -59 216 C-57.93620119 204.24091969 -56.93183361 192.48293114 -56.375 180.6875 C-56.31517944 179.49423096 -56.31517944 179.49423096 -56.25415039 178.27685547 C-55.86178621 169.17364402 -56 160.13446975 -56 151 C-71.84 151 -87.68 151 -104 151 Z M-44 151 C-44.61441464 165.32782722 -44.61441464 165.32782722 -45.22631836 179.65576172 C-45.73290266 191.44260139 -46.30846675 203.22252791 -47 215 C-38.25723973 214.70075307 -29.94228183 213.342505 -21.375 211.625 C-20.32707275 211.41593018 -19.27914551 211.20686035 -18.19946289 210.99145508 C-11.38554455 209.59105674 -4.68760412 207.91334723 2 206 C4.58330093 196.34868284 6.48096453 186.72679071 7.75 176.8125 C7.87737549 175.85279297 8.00475098 174.89308594 8.13598633 173.90429688 C9.0761609 166.11936155 9 158.98800783 9 151 C-8.49 151 -25.98 151 -44 151 Z M22 151 C21.19406567 154.22373732 20.78695838 156.88014158 20.5703125 160.15625 C20.4986084 161.17017822 20.4269043 162.18410645 20.35302734 163.22875977 C20.24015381 164.84802368 20.24015381 164.84802368 20.125 166.5 C19.29132014 177.77276582 17.86773576 188.8558433 16 200 C20.56407456 199.36926417 24.37305693 197.56390209 28.4375 195.5 C29.13834717 195.14470215 29.83919434 194.7894043 30.5612793 194.42333984 C48.40021933 185.2071911 65.00514752 173.7501717 72 154 C72 153.01 72 152.02 72 151 C55.5 151 39 151 22 151 Z M-227 185 C-223.76929292 210.03797988 -206.53884339 233.8728714 -189.37695312 251.57177734 C-188.15503033 252.83919726 -186.95836774 254.13086299 -185.765625 255.42578125 C-172.48204582 269.48340358 -153.28430478 281.61852792 -135 288 C-134.01 287.67 -133.02 287.34 -132 287 C-132.61746094 286.35675781 -133.23492187 285.71351563 -133.87109375 285.05078125 C-146.40985511 271.67228549 -156.01784692 256.40773697 -163.1875 239.5625 C-163.53546631 238.75683594 -163.88343262 237.95117188 -164.24194336 237.12109375 C-165.81562689 233.35488371 -167.13778086 229.79805765 -167.83984375 225.76953125 C-168.71104262 221.44821147 -169.48575348 218.64389924 -172 215 C-177.85469321 211.18365736 -184.68820734 209.20230907 -191.26367188 206.98095703 C-195.05893505 205.62037821 -198.58640894 203.92237816 -202.125 202 C-202.71708252 201.67878174 -203.30916504 201.35756348 -203.91918945 201.02661133 C-209.0594595 198.13390291 -213.68993758 194.726801 -218.31640625 191.078125 C-221.13382279 188.89637013 -224.01629485 186.94532318 -227 185 Z M66 185 C64.7625 186.03447266 64.7625 186.03447266 63.5 187.08984375 C51.28419197 197.10773857 38.24382796 204.35268224 23.71875 210.4921875 C23.11514648 210.7504834 22.51154297 211.0087793 21.88964844 211.27490234 C20 212 20 212 17.86816406 212.55712891 C13.74650672 213.69395981 13.74650672 213.69395981 10.90625 216.70751953 C10.03298655 218.98859923 9.3767129 221.26425183 8.75 223.625 C1.37420804 247.45296063 -10.57371968 269.08965634 -28 287 C-24.43273286 288.18908905 -23.9240691 287.80190872 -20.640625 286.26171875 C-19.77937012 285.85880615 -18.91811523 285.45589355 -18.03076172 285.04077148 C-17.11311035 284.59419189 -16.19545898 284.1476123 -15.25 283.6875 C-14.30785645 283.2325415 -13.36571289 282.77758301 -12.39501953 282.30883789 C-4.08833397 278.20634372 3.56972072 273.5213323 11 268 C11.93585938 267.30648437 12.87171875 266.61296875 13.8359375 265.8984375 C38.71854354 246.41557588 58.65906607 218.75719385 67 188 C66.505 186.515 66.505 186.515 66 185 Z M-157 220 C-155.67855016 227.31302357 -153.24893704 233.45921211 -150 240.125 C-149.51015625 241.13473877 -149.0203125 242.14447754 -148.515625 243.18481445 C-141.78409525 256.78124672 -133.71052054 268.27322677 -123 279 C-122.34644531 279.66515625 -121.69289062 280.3303125 -121.01953125 281.015625 C-115.56250101 286.18176876 -105.71938656 294 -98 294 C-98.18248291 293.33935547 -98.36496582 292.67871094 -98.55297852 291.99804688 C-103.87984303 272.60533002 -108.02342373 253.3808957 -110.61450195 233.42236328 C-110.95355616 230.86733252 -110.95355616 230.86733252 -112 228 C-119.49312191 226.62565179 -126.99308562 225.29674095 -134.5 224 C-142.00691438 222.70325905 -149.50687809 221.37434821 -157 220 Z M-11.234375 221.0234375 C-12.27706543 221.23887207 -13.31975586 221.45430664 -14.39404297 221.67626953 C-15.50150879 221.90685059 -16.60897461 222.13743164 -17.75 222.375 C-26.25536702 224.12922433 -34.65765192 225.63773059 -43.3046875 226.4453125 C-46.38312183 227.07884536 -47.11131961 227.55444346 -49 230 C-49.69891697 232.52940209 -49.69891697 232.52940209 -49.9921875 235.42578125 C-50.13720703 236.52204834 -50.28222656 237.61831543 -50.43164062 238.74780273 C-50.57794922 239.92415283 -50.72425781 241.10050293 -50.875 242.3125 C-53.02636596 258.10711175 -55.74483231 273.85660265 -61.30078125 288.85546875 C-62.15499329 291.09943012 -62.15499329 291.09943012 -62 294 C-47.60809704 291.8360001 -34.45232137 278.06150459 -26.0234375 266.9296875 C-17.49981363 254.58853325 -10.6893579 241.86757456 -5 228 C-4.59910156 227.06800781 -4.19820312 226.13601563 -3.78515625 225.17578125 C-2.83028152 222.91520453 -2.83028152 222.91520453 -3 220 C-5.94692353 220 -8.35690076 220.41872217 -11.234375 221.0234375 Z M-99 229 C-98.32597701 237.76229887 -97.49513948 246.00384078 -95.8125 254.5625 C-95.59400391 255.67931152 -95.37550781 256.79612305 -95.15039062 257.94677734 C-93.70444673 265.08790729 -92.0435334 272.13087866 -90 279.125 C-89.77546143 279.91076416 -89.55092285 280.69652832 -89.31958008 281.50610352 C-87.74325192 286.6162879 -85.75719455 292.08182084 -82 296 C-80.68 296 -79.36 296 -78 296 C-73.54472311 291.38907679 -71.6395275 284.77671375 -69.9375 278.75 C-69.68709961 277.88810059 -69.43669922 277.02620117 -69.17871094 276.13818359 C-64.93731743 261.12452173 -61 244.65064886 -61 229 C-73.54 229 -86.08 229 -99 229 Z " fill="#7E6DEE" transform="translate(336,111)"/>
<path d="M0 0 C6.15702231 5.21160622 9.80879344 12.02206017 12.03515625 19.72265625 C12.03515625 21.04265625 12.03515625 22.36265625 12.03515625 23.72265625 C12.79054688 23.79742187 13.5459375 23.8721875 14.32421875 23.94921875 C48.26702435 28.0032775 81.46798101 42.86532514 109.03515625 62.72265625 C109.710625 62.37332031 110.38609375 62.02398437 111.08203125 61.6640625 C111.9740625 61.20902344 112.86609375 60.75398438 113.78515625 60.28515625 C114.666875 59.83269531 115.54859375 59.38023438 116.45703125 58.9140625 C124.00549678 55.42575646 134.02315184 55.5327094 142.0625 57.44140625 C144.51681088 58.3792631 146.74800617 59.43268663 149.03515625 60.72265625 C149.67839844 61.07328125 150.32164062 61.42390625 150.984375 61.78515625 C156.12768224 64.99832867 159.10522636 69.50205389 162.03515625 74.72265625 C162.54949219 75.61210937 162.54949219 75.61210937 163.07421875 76.51953125 C166.53768484 83.83488954 166.25460207 94.15402826 164.203125 101.83984375 C162.97809644 104.93223795 161.61950367 107.79914132 159.84057617 110.6105957 C158.78448186 112.68015447 158.78448186 112.68015447 159.73510742 114.58764648 C160.17830322 115.22903564 160.62149902 115.8704248 161.078125 116.53125 C161.56949951 117.26690186 162.06087402 118.00255371 162.56713867 118.76049805 C163.38661987 119.94832886 163.38661987 119.94832886 164.22265625 121.16015625 C181.57022421 147.54053713 195.16772234 177.95279188 198.03515625 209.72265625 C199.19015625 209.80515625 200.34515625 209.88765625 201.53515625 209.97265625 C209.23845075 210.96443843 215.83487473 215.02305028 221.03515625 220.72265625 C227.44062278 229.49888166 230.07098867 237.88752032 229.03515625 248.72265625 C227.40899874 257.61869437 223.38132568 265.31521362 216.28515625 271.03515625 C210.7606971 274.84915785 204.79447911 277.72265625 198.03515625 277.72265625 C197.88820313 278.70621094 197.74125 279.68976563 197.58984375 280.703125 C192.86792804 310.59639927 181.81920281 344.52400278 162.58349609 368.53466797 C160.93084882 370.53517492 160.93084882 370.53517492 159.03515625 373.72265625 C159.4523204 376.42204181 159.4523204 376.42204181 161.03515625 378.72265625 C165.54224935 388.83894185 166.89855904 398.70289046 163.59765625 409.47265625 C159.75719196 418.60891866 153.165463 424.88358292 144.19921875 428.8828125 C136.04360771 432.04789621 125.51670616 432.16710402 117.34765625 428.84765625 C115.04895668 427.74526036 112.79298835 426.59360126 110.54296875 425.39453125 C108.02972048 424.41509484 108.02972048 424.41509484 105.9140625 425.85546875 C105.14964844 426.51289063 104.38523437 427.1703125 103.59765625 427.84765625 C89.51448574 438.80333937 72.65698014 446.44641057 56.03515625 452.72265625 C54.94654297 453.13572021 54.94654297 453.13572021 53.8359375 453.55712891 C40.99529988 458.3377882 25.81541437 463.72265625 12.03515625 463.72265625 C11.97328125 464.67140625 11.91140625 465.62015625 11.84765625 466.59765625 C10.705898 474.62258566 5.88233091 482.69944341 -0.4453125 487.671875 C-9.69783109 493.61324697 -18.44613825 496.32411905 -29.4375 494.2578125 C-39.84550568 491.5391835 -47.27354641 485.82256257 -52.96484375 476.72265625 C-55.08932931 472.50392692 -56.41302083 468.50321181 -55.96484375 463.72265625 C-57.21523437 463.61179687 -58.465625 463.5009375 -59.75390625 463.38671875 C-89.14925498 460.09251138 -119.94933922 447.2111324 -143.83984375 430.16015625 C-149.64420451 425.85384888 -149.64420451 425.85384888 -156.5390625 424.984375 C-159.40677995 426.29265394 -161.54522955 427.72446214 -163.96484375 429.72265625 C-172.25087591 432.48466697 -183.04759446 431.6786534 -190.859375 427.91015625 C-191.55417969 427.51828125 -192.24898438 427.12640625 -192.96484375 426.72265625 C-193.60808594 426.37203125 -194.25132812 426.02140625 -194.9140625 425.66015625 C-200.05736974 422.44698383 -203.03491386 417.94325861 -205.96484375 412.72265625 C-206.30773437 412.1296875 -206.650625 411.53671875 -207.00390625 410.92578125 C-210.46737234 403.61042296 -210.18428957 393.29128424 -208.1328125 385.60546875 C-206.90778394 382.51307455 -205.54919117 379.64617118 -203.77026367 376.8347168 C-202.71416936 374.76515803 -202.71416936 374.76515803 -203.66479492 372.85766602 C-204.10799072 372.21627686 -204.55118652 371.5748877 -205.0078125 370.9140625 C-205.49918701 370.17841064 -205.99056152 369.44275879 -206.49682617 368.68481445 C-207.04314697 367.89292725 -207.58946777 367.10104004 -208.15234375 366.28515625 C-225.49991171 339.90477537 -239.09740984 309.49252062 -241.96484375 277.72265625 C-243.11984375 277.64015625 -244.27484375 277.55765625 -245.46484375 277.47265625 C-253.16813825 276.48087407 -259.76456223 272.42226222 -264.96484375 266.72265625 C-271.37031028 257.94643084 -274.00067617 249.55779218 -272.96484375 238.72265625 C-271.33868624 229.82661813 -267.31101318 222.13009888 -260.21484375 216.41015625 C-254.6903846 212.59615465 -248.72416661 209.72265625 -241.96484375 209.72265625 C-241.79855469 207.84707031 -241.79855469 207.84707031 -241.62890625 205.93359375 C-238.33205138 176.51462053 -225.29367932 146.63240582 -209.15625 122.09765625 C-208.79571533 121.54118408 -208.43518066 120.98471191 -208.0637207 120.41137695 C-207.29562846 119.23099614 -206.5115141 118.0609562 -205.71557617 116.89916992 C-204.36201901 114.88518287 -204.36201901 114.88518287 -202.96484375 111.72265625 C-203.49846825 109.13862047 -203.49846825 109.13862047 -205.15234375 107.03515625 C-210.08098922 99.71371193 -209.77441598 91.31574875 -208.96484375 82.72265625 C-208.09564272 79.06161928 -206.80922462 75.99279206 -204.96484375 72.72265625 C-204.61421875 72.07941406 -204.26359375 71.43617187 -203.90234375 70.7734375 C-200.68917133 65.63013026 -196.18544611 62.65258614 -190.96484375 59.72265625 C-190.371875 59.37976563 -189.77890625 59.036875 -189.16796875 58.68359375 C-181.85261046 55.22012766 -171.53347174 55.50321043 -163.84765625 57.5546875 C-160.75526205 58.77971606 -157.88835868 60.13830883 -155.0769043 61.91723633 C-153.00734553 62.97333064 -153.00734553 62.97333064 -151.09985352 62.02270508 C-150.45846436 61.57950928 -149.8170752 61.13631348 -149.15625 60.6796875 C-148.42059814 60.18831299 -147.68494629 59.69693848 -146.92700195 59.19067383 C-146.13511475 58.64435303 -145.34322754 58.09803223 -144.52734375 57.53515625 C-118.14696287 40.18758829 -87.73470812 26.59009016 -55.96484375 23.72265625 C-55.88234375 22.56765625 -55.79984375 21.41265625 -55.71484375 20.22265625 C-54.72306157 12.51936175 -50.66444972 5.92293777 -44.96484375 0.72265625 C-30.89775575 -9.54442979 -14.41298919 -10.34583174 0 0 Z M-37.71484375 11.59375 C-42.10888361 17.18136319 -44.53985199 22.0569244 -44.3359375 29.25390625 C-43.35682914 35.76755345 -40.21296978 41.12614886 -35.08984375 45.22265625 C-29.35645643 49.00562022 -24.02000128 50.31182159 -17.23828125 49.328125 C-11.17381664 47.71301844 -6.33975433 43.97251715 -2.96484375 38.72265625 C-0.06714142 33.34120907 1.0520421 28.72619387 0.03515625 22.72265625 C-2.37027369 15.35045894 -6.22265269 10.54511185 -12.96484375 6.72265625 C-21.61286679 3.8399819 -31.33901116 4.77673256 -37.71484375 11.59375 Z M-144.96484375 72.72265625 C-144.74828125 73.35429688 -144.53171875 73.9859375 -144.30859375 74.63671875 C-141.03869855 85.14277093 -140.23582655 95.86906297 -144.58203125 106.1875 C-149.41294817 115.04418102 -156.32149991 120.25399861 -165.8515625 123.33203125 C-175.08977166 125.03964847 -184.17865805 123.73506278 -192.96484375 120.72265625 C-211.61229918 148.4102279 -224.49682139 177.69224473 -229.96484375 210.72265625 C-229.40796875 210.94179687 -228.85109375 211.1609375 -228.27734375 211.38671875 C-218.10398544 215.61416156 -211.75097797 220.61509649 -206.96484375 230.72265625 C-203.37618326 239.86683922 -204.20948157 249.78403752 -207.96484375 258.72265625 C-212.07777395 267.00281276 -218.54532173 272.77341779 -227.27734375 275.9140625 C-228.16421875 276.18089844 -229.05109375 276.44773437 -229.96484375 276.72265625 C-224.78140135 308.51201978 -212.78662719 337.04204807 -194.96484375 363.72265625 C-194.30484375 364.71265625 -193.64484375 365.70265625 -192.96484375 366.72265625 C-192.41699219 366.50609375 -191.86914062 366.28953125 -191.3046875 366.06640625 C-180.99421178 362.445166 -169.63018878 362.01352131 -159.46484375 366.33984375 C-150.64126447 371.22038604 -145.4351691 378.07414891 -142.35546875 387.609375 C-140.64785153 396.84758416 -141.95243722 405.93647055 -144.96484375 414.72265625 C-117.2772721 433.37011168 -87.99525527 446.25463389 -54.96484375 451.72265625 C-54.74570313 451.16578125 -54.5265625 450.60890625 -54.30078125 450.03515625 C-50.07333844 439.86179794 -45.07240351 433.50879047 -34.96484375 428.72265625 C-25.82066078 425.13399576 -15.90346248 425.96729407 -6.96484375 429.72265625 C1.31531276 433.83558645 7.08591779 440.30313423 10.2265625 449.03515625 C10.49339844 449.92203125 10.76023437 450.80890625 11.03515625 451.72265625 C42.82451978 446.53921385 71.35454807 434.54443969 98.03515625 416.72265625 C99.02515625 416.06265625 100.01515625 415.40265625 101.03515625 414.72265625 C100.81859375 414.17480469 100.60203125 413.62695312 100.37890625 413.0625 C96.757666 402.75202428 96.32602131 391.38800128 100.65234375 381.22265625 C105.53787833 372.39005135 112.37065268 367.2451511 121.88671875 364.11328125 C131.11477355 362.4354531 140.32827213 363.45514692 149.03515625 366.72265625 C167.68261168 339.0350846 180.56713389 309.75306777 186.03515625 276.72265625 C185.47828125 276.50351562 184.92140625 276.284375 184.34765625 276.05859375 C174.17429794 271.83115094 167.82129047 266.83021601 163.03515625 256.72265625 C159.44649576 247.57847328 160.27979407 237.66127498 164.03515625 228.72265625 C168.14808645 220.44249974 174.61563423 214.67189471 183.34765625 211.53125 C184.23453125 211.26441406 185.12140625 210.99757812 186.03515625 210.72265625 C180.25926231 178.74713754 169.0803029 150.73765668 151.03515625 123.72265625 C150.37515625 122.73265625 149.71515625 121.74265625 149.03515625 120.72265625 C148.40351563 120.93921875 147.771875 121.15578125 147.12109375 121.37890625 C136.61504157 124.64880145 125.88874953 125.45167345 115.5703125 121.10546875 C106.70448659 116.26956371 101.55597907 109.38207943 98.42578125 99.87109375 C96.7479531 90.64303895 97.76764692 81.42954037 101.03515625 72.72265625 C73.3475846 54.07520082 44.06556777 41.19067861 11.03515625 35.72265625 C10.81601562 36.27953125 10.596875 36.83640625 10.37109375 37.41015625 C6.14365094 47.58351456 1.14271601 53.93652203 -8.96484375 58.72265625 C-18.10902672 62.31131674 -28.02622502 61.47801843 -36.96484375 57.72265625 C-45.47764994 53.49416399 -50.91231379 46.89860136 -54.40234375 38.09765625 C-54.58796875 37.31390625 -54.77359375 36.53015625 -54.96484375 35.72265625 C-84.47823161 35.72265625 -122.2459089 54.84255947 -144.96484375 72.72265625 Z M-193.5546875 78.78515625 C-197.24852139 83.86034077 -197.60061819 88.60076369 -196.96484375 94.72265625 C-195.63997874 101.23858326 -192.23134411 105.74118198 -186.96484375 109.72265625 C-181.2054067 112.97097874 -175.35393583 113.65776032 -168.9296875 112.2890625 C-162.7092325 110.35940305 -158.06554587 106.44730539 -154.86328125 100.76953125 C-152.31286619 94.71527495 -152.08480905 88.92211593 -154.02734375 82.66015625 C-156.51904819 76.74526906 -160.93537142 72.30722627 -166.83984375 69.78515625 C-178.07366972 66.31524861 -186.35151908 69.85913433 -193.5546875 78.78515625 Z M112.4453125 78.71484375 C108.98152683 83.64666047 108.34555588 88.81656272 109.03515625 94.72265625 C110.40521892 101.23668151 113.75646017 105.73196201 119.03515625 109.72265625 C124.7945933 112.97097874 130.64606417 113.65776032 137.0703125 112.2890625 C143.2907675 110.35940305 147.93445413 106.44730539 151.13671875 100.76953125 C153.68713381 94.71527495 153.91519095 88.92211593 151.97265625 82.66015625 C149.49470449 76.75029947 145.16645222 72.96926332 139.72265625 69.78515625 C128.20923867 66.46773085 119.88115087 69.53437816 112.4453125 78.71484375 Z M-256.52734375 230.84765625 C-260.61554267 236.80044447 -260.58150595 242.68913234 -259.96484375 249.72265625 C-258.19838635 256.50720282 -253.77399194 260.16221059 -247.96484375 263.72265625 C-243.51926253 266.23042001 -238.94920292 266.47188745 -233.96484375 265.72265625 C-226.59669795 263.33688615 -221.70030515 259.50375516 -217.96484375 252.72265625 C-215.68118203 247.26172604 -215.46013127 242.39952605 -216.96484375 236.72265625 C-219.89925845 230.1847803 -224.2480696 225.45715085 -230.77734375 222.41015625 C-240.96589446 220.2126257 -249.91960398 222.27972574 -256.52734375 230.84765625 Z M177.66015625 228.91015625 C173.68067422 234.10897818 171.66184815 239.71267123 172.03515625 246.28515625 C173.00844364 252.33646483 176.08028441 256.81922841 180.41015625 261.03515625 C186.46019372 264.92446605 191.88968614 266.93296389 199.03515625 265.72265625 C206.40735356 263.31722631 211.21270065 259.46484731 215.03515625 252.72265625 C217.06030147 246.64722059 217.13562114 239.27030094 214.53515625 233.34765625 C211.50960662 228.17945759 206.70258084 225.2273573 201.59765625 222.34765625 C192.61670433 220.15718017 184.10487498 222.06761538 177.66015625 228.91015625 Z M-192.48828125 382.76953125 C-196.52963247 388.11523392 -197.87891793 394.11814843 -196.96484375 400.72265625 C-195.56714836 407.28301027 -192.19813379 411.61854082 -186.96484375 415.72265625 C-180.99626204 419.14906427 -175.5081533 419.65829143 -168.859375 418.2890625 C-162.68013717 416.36477374 -158.04200323 412.40556314 -154.86328125 406.76953125 C-152.31286619 400.71527495 -152.08480905 394.92211593 -154.02734375 388.66015625 C-156.53182714 382.714934 -160.9571215 378.28963964 -166.90234375 375.78515625 C-176.75749637 372.72797018 -185.52563087 375.20281532 -192.48828125 382.76953125 Z M113.51171875 382.76953125 C109.47036753 388.11523392 108.12108207 394.11814843 109.03515625 400.72265625 C110.42347899 407.23901796 113.74718525 411.72495018 119.03515625 415.72265625 C124.7945933 418.97097874 130.64606417 419.65776032 137.0703125 418.2890625 C143.2907675 416.35940305 147.93445413 412.44730539 151.13671875 406.76953125 C153.68713381 400.71527495 153.91519095 394.92211593 151.97265625 388.66015625 C149.46817286 382.714934 145.0428785 378.28963964 139.09765625 375.78515625 C129.24250363 372.72797018 120.47436913 375.20281532 113.51171875 382.76953125 Z M-38.45703125 444.9296875 C-42.6692927 449.93856834 -44.76082663 455.85202061 -44.40625 462.39453125 C-42.95521448 470.04778055 -39.17118699 475.3105178 -32.83203125 479.6640625 C-27.19094705 482.86225041 -19.77178561 482.71385007 -13.609375 481.109375 C-7.25128499 478.31771846 -3.90706235 473.16568013 -0.58984375 467.28515625 C1.03122041 460.63879318 0.41434348 454.92531984 -2.64453125 448.796875 C-6.38589878 442.91916447 -11.31731562 440.18743404 -17.8515625 438.16796875 C-25.46984211 436.56263811 -32.94348892 439.73669996 -38.45703125 444.9296875 Z " fill="#7D6DEE" transform="translate(277.96484375,12.27734375)"/>
</svg>
