<?xml version="1.0" encoding="UTF-8"?>
<svg version="1.1" xmlns="http://www.w3.org/2000/svg" width="512" height="512">
<path d="M0 0 C2.43314212 1.89858817 4.73628171 3.86974324 7.015625 5.94921875 C7.6240625 6.46613281 8.2325 6.98304687 8.859375 7.515625 C23.04731068 20.38150304 30.50726707 40.28893445 32.015625 58.94921875 C32.13952266 62.67031472 32.13285562 66.38655985 32.11328125 70.109375 C32.11115883 71.65509438 32.11115883 71.65509438 32.10899353 73.23204041 C32.10343947 76.49196394 32.0908957 79.75181632 32.078125 83.01171875 C32.07310406 85.23502504 32.06854219 87.45833242 32.06445312 89.68164062 C32.05348513 95.10419055 32.0367934 100.52669956 32.015625 105.94921875 C33.16160156 105.9028125 34.30757813 105.85640625 35.48828125 105.80859375 C37.01820291 105.77104966 38.54815301 105.73465234 40.078125 105.69921875 C40.83029297 105.66570312 41.58246094 105.6321875 42.35742188 105.59765625 C48.09336674 105.49833253 51.36210681 106.53315296 56.015625 109.94921875 C58.83160289 113.75116854 59.39503028 116.46943264 59.41676331 121.16000366 C59.42955826 122.41046982 59.44235321 123.66093597 59.45553589 124.94929504 C59.45448745 126.32736235 59.45310291 127.70542943 59.45141602 129.08349609 C59.4603967 130.54084547 59.47060567 131.99818772 59.48194885 133.45552063 C59.5084213 137.40808611 59.51548112 141.36045668 59.51739621 145.31310225 C59.51953037 147.78414016 59.52593829 150.25512869 59.53388786 152.72615433 C59.56163193 161.35132233 59.57389453 169.97635135 59.5715332 178.6015625 C59.56973099 186.63439452 59.60138689 194.66662206 59.64876419 202.69930112 C59.68802355 209.60224315 59.70408355 216.50498786 59.70216697 223.40804064 C59.70140298 227.52815744 59.70990203 231.64773683 59.74170113 235.76774216 C59.77080205 239.64387085 59.77094537 243.51895056 59.74915123 247.39511681 C59.74602064 248.81447194 59.75306193 250.23389303 59.7712326 251.6531353 C59.91534669 263.69277428 59.91534669 263.69277428 56.14625549 268.25970459 C50.92106041 273.34034657 44.98995438 273.23318589 38.1171875 273.14453125 C36.86474747 273.14028641 36.86474747 273.14028641 35.58700562 273.13595581 C32.93806209 273.12482176 30.28946516 273.09973002 27.640625 273.07421875 C25.83724449 273.06418018 24.03385864 273.05505587 22.23046875 273.046875 C17.82538867 273.02490465 13.42056547 272.99042196 9.015625 272.94921875 C8.88607422 274.91375 8.88607422 274.91375 8.75390625 276.91796875 C4.32513283 336.98773452 -22.77498115 393.9157871 -66.984375 434.94921875 C-70.57700062 438.04735377 -74.26348196 441.00737067 -77.984375 443.94921875 C-78.77199219 444.6040625 -79.55960937 445.25890625 -80.37109375 445.93359375 C-99.47629529 461.72301651 -121.67521168 473.68262421 -144.984375 481.94921875 C-145.77408691 482.22991211 -146.56379883 482.51060547 -147.37744141 482.79980469 C-159.34503965 486.97506292 -171.47561448 489.92043805 -183.984375 491.94921875 C-185.57934814 492.21738403 -185.57934814 492.21738403 -187.20654297 492.4909668 C-198.02187658 494.13843755 -208.6889176 494.30606492 -219.609375 494.26171875 C-221.00450821 494.25898453 -221.00450821 494.25898453 -222.42782593 494.25619507 C-235.83054376 494.21192741 -248.84658643 493.81925994 -261.984375 490.94921875 C-262.82548828 490.7776123 -263.66660156 490.60600586 -264.53320312 490.42919922 C-308.60465294 481.35709614 -346.47526691 459.71272673 -378.984375 428.94921875 C-379.91378906 428.07394531 -380.84320313 427.19867188 -381.80078125 426.296875 C-388.94742356 419.37388295 -395.04927674 411.91617199 -400.984375 403.94921875 C-401.63237061 403.08441895 -401.63237061 403.08441895 -402.29345703 402.20214844 C-412.39845012 388.63947866 -420.84817656 374.27935256 -427.984375 358.94921875 C-428.48517578 357.87510742 -428.48517578 357.87510742 -428.99609375 356.77929688 C-437.84727757 337.49999419 -443.71094228 316.90181591 -446.984375 295.94921875 C-447.16097656 294.82620361 -447.33757812 293.70318848 -447.51953125 292.54614258 C-449.12199065 281.23950381 -449.38252437 270.04531517 -449.359375 258.63671875 C-449.35916351 257.6717749 -449.35895203 256.70683105 -449.35873413 255.71264648 C-449.32406068 239.81215566 -448.33163001 224.54173541 -444.984375 208.94921875 C-444.79182129 208.03897949 -444.59926758 207.12874023 -444.40087891 206.19091797 C-432.89820698 153.38625445 -403.42305066 104.59231396 -360.984375 70.94921875 C-360.47068359 70.53736328 -359.95699219 70.12550781 -359.42773438 69.70117188 C-351.63115617 63.4619866 -343.62275459 57.99157564 -334.984375 52.94921875 C-333.80702098 52.23482092 -332.62994469 51.51996519 -331.453125 50.8046875 C-287.18774317 24.38984634 -229.60684731 14.50569481 -178.984375 24.94921875 C-178.00291504 25.14789551 -177.02145508 25.34657227 -176.01025391 25.55126953 C-157.01171106 29.50621335 -138.3971829 35.28447223 -120.984375 43.94921875 C-120.89414062 42.95664062 -120.80390625 41.9640625 -120.7109375 40.94140625 C-120.07793951 36.55453166 -118.38221604 32.98341319 -116.359375 29.07421875 C-115.9989209 28.37022949 -115.6384668 27.66624023 -115.26708984 26.94091797 C-112.37756349 21.43494138 -109.18995466 16.55285739 -104.984375 11.94921875 C-104.23414063 11.1190625 -103.48390625 10.28890625 -102.7109375 9.43359375 C-97.04598782 3.46484551 -91.13815871 -1.01318986 -83.984375 -5.05078125 C-83.20707031 -5.51226562 -82.42976563 -5.97375 -81.62890625 -6.44921875 C-56.03583433 -20.59614293 -23.45532299 -16.11785938 0 0 Z M-85.046875 33.3515625 C-100.56052557 54.15111417 -94.984375 81.65548218 -94.984375 105.94921875 C-62.974375 105.94921875 -30.964375 105.94921875 2.015625 105.94921875 C2.0775 97.74046875 2.139375 89.53171875 2.203125 81.07421875 C2.23043701 78.5027002 2.25774902 75.93118164 2.28588867 73.28173828 C2.2946607 71.21517403 2.30230294 69.14860454 2.30859375 67.08203125 C2.32394165 66.03200928 2.33928955 64.9819873 2.35510254 63.90014648 C2.35984815 50.36248717 -2.26659715 38.64237359 -11.546875 28.69921875 C-22.97235855 17.87689044 -35.48313845 14.26871322 -50.7265625 14.640625 C-64.52181139 15.379109 -76.30680107 23.00393926 -85.046875 33.3515625 Z " fill="#194F82" transform="translate(450.984375,16.05078125)"/>
<path d="M0 0 C50.82 0 101.64 0 154 0 C154 35.97 154 71.94 154 109 C103.18 109 52.36 109 0 109 C0 73.03 0 37.06 0 0 Z " fill="#55ABDF" transform="translate(328,151)"/>
<path d="M0 0 C29.04 0 58.08 0 88 0 C86.08055311 26.87225647 80.1315054 53.7369892 68 78 C43.25 78 18.5 78 -7 78 C-7 69.12307692 -7 69.12307692 -6.125 66 C-2.59847412 51.55834415 -2.30292638 36.27336568 -1.375 21.5 C-0.92125 14.405 -0.4675 7.31 0 0 Z " fill="#FDC00E" transform="translate(343,288)"/>
<path d="M0 0 C28.71 0 57.42 0 87 0 C87.5775 7.404375 88.155 14.80875 88.75 22.4375 C90.06247516 38.72931119 91.50858276 54.84679174 94.69628906 70.89916992 C95 73 95 73 95 78 C70.25 78 45.5 78 20 78 C15.64115276 68.65961307 11.71626796 60.16882002 8.8125 50.4375 C8.47790771 49.32979248 8.14331543 48.22208496 7.79858398 47.08081055 C3.19549567 31.38004989 1.09205476 16.38082142 0 0 Z " fill="#FDC00E" transform="translate(31,288)"/>
<path d="M0 0 C24.75 0 49.5 0 75 0 C74.41249789 5.28751903 73.79979451 10.48653141 72.99755859 15.7331543 C71.51139053 25.52374901 70.37067961 35.33547965 69.375 45.1875 C69.25205566 46.38463623 69.12911133 47.58177246 69.00244141 48.81518555 C68.04563476 58.55283769 67.54416632 68.20500619 67 78 C38.29 78 9.58 78 -20 78 C-20 70.81500319 -19.55992683 64.72303558 -18.375 57.75 C-18.10876831 56.18161377 -18.10876831 56.18161377 -17.8371582 54.58154297 C-14.46482185 35.65239153 -8.60426301 17.20852602 0 0 Z " fill="#FDC00F" transform="translate(51,182)"/>
<path d="M0 0 C23.43 0 46.86 0 71 0 C71 25.74 71 51.48 71 78 C50.54 78 30.08 78 9 78 C3.21376852 47.91159632 3.21376852 47.91159632 1.91381836 33.60791016 C1.68264006 31.07168223 1.43143066 28.53797246 1.17773438 26.00390625 C1.01709389 24.33865079 0.85754591 22.67328949 0.69921875 21.0078125 C0.62740891 20.27636017 0.55559906 19.54490784 0.48161316 18.79129028 C-0.08402014 12.45774741 0 6.44234398 0 0 Z " fill="#FCBF0E" transform="translate(146,288)"/>
<path d="M0 0 C20.46 0 40.92 0 62 0 C62 25.74 62 51.48 62 78 C38.9 78 15.8 78 -8 78 C-8 47.93283582 -8 47.93283582 -6.25 35.0625 C-6.09273437 33.76505859 -5.93546875 32.46761719 -5.7734375 31.13085938 C-4.42002477 20.54821295 -2.21512048 10.5218223 0 0 Z " fill="#FCBF0E" transform="translate(155,182)"/>
<path d="M0 0 C23.1 0 46.2 0 70 0 C70 10.24421401 69.89718959 20.06558099 68.99291992 30.1953125 C68.81626448 32.20712869 68.66082783 34.22077218 68.50585938 36.234375 C67.27026238 50.44707988 64.5418338 63.76573073 62 78 C41.54 78 21.08 78 0 78 C0 52.26 0 26.52 0 0 Z " fill="#FDC00D" transform="translate(245,288)"/>
<path d="M0 0 C18.15 0 36.3 0 55 0 C55 25.74 55 51.48 55 78 C36.85 78 18.7 78 0 78 C0 52.26 0 26.52 0 0 Z " fill="#FBBF0E" transform="translate(245,182)"/>
<path d="M0 0 C21.78 0 43.56 0 66 0 C46.09444931 34.83471371 6.09638167 65.11103421 -32 77 C-32.66 76.67 -33.32 76.34 -34 76 C-33.41734375 75.20722656 -32.8346875 74.41445313 -32.234375 73.59765625 C-16.27059359 51.19217506 -8.28499761 25.93993299 0 0 Z " fill="#FCFDFD" transform="translate(328,394)"/>
<path d="M0 0 C21.45 0 42.9 0 65 0 C66.72313534 4.59502758 68.40964738 9.11875281 69.9453125 13.765625 C77.05469631 34.99555791 84.92628404 57.20355917 99 75 C98.67 75.66 98.34 76.32 98 77 C70.46823976 65.90872008 46.50810151 51.56789646 25 31 C24.07316406 30.12601562 23.14632812 29.25203125 22.19140625 28.3515625 C15.03969894 21.4331733 8.98157302 13.93164665 3 6 C2.1028125 4.86884766 2.1028125 4.86884766 1.1875 3.71484375 C0 2 0 2 0 0 Z " fill="#FDFDFD" transform="translate(68,394)"/>
<path d="M0 0 C-0.556875 0.825 -1.11375 1.65 -1.6875 2.5 C-16.6274127 24.96759669 -25.15904317 49.45945803 -34 75 C-55.45 75 -76.9 75 -99 75 C-97.15727371 71.31454743 -95.0640317 68.23384038 -92.5625 65 C-92.12437988 64.4325708 -91.68625977 63.8651416 -91.23486328 63.28051758 C-86.48132741 57.211977 -81.31759046 51.57463411 -76 46 C-75.31164062 45.27039063 -74.62328125 44.54078125 -73.9140625 43.7890625 C-56.40026023 25.70338098 -33.99239254 11.9404236 -11 2 C-9.71029297 1.44119141 -9.71029297 1.44119141 -8.39453125 0.87109375 C-3.43288177 -1.14429392 -3.43288177 -1.14429392 0 0 Z " fill="#FDFDFD" transform="translate(167,79)"/>
<path d="M0 0 C6.4348629 2.57394516 10.77753021 6.52359732 16 11 C17.28003906 12.07507813 17.28003906 12.07507813 18.5859375 13.171875 C36.20442486 28.40047291 50.6061674 50.57064685 54 74 C54 77.3 54 80.6 54 84 C36.18 84 18.36 84 0 84 C0 56.28 0 28.56 0 0 Z " fill="#FEC00D" transform="translate(245,70)"/>
<path d="M0 0 C0 27.72 0 55.44 0 84 C-17.82 84 -35.64 84 -54 84 C-53.01110674 77.07774718 -51.21917573 71.77707262 -48.625 65.375 C-48.17946777 64.27486572 -47.73393555 63.17473145 -47.27490234 62.04125977 C-21.64673553 0 -21.64673553 0 0 0 Z " fill="#FDC00E" transform="translate(217,70)"/>
<path d="M0 0 C17.82 0 35.64 0 54 0 C54 27.72 54 55.44 54 84 C32.2411052 75.29644208 19.18055313 50.19924798 10 30 C1.7224736 10.33484163 1.7224736 10.33484163 0 0 Z " fill="#FCC00E" transform="translate(163,394)"/>
<path d="M0 0 C17.82 0 35.64 0 54 0 C47.675413 23.19015234 38.70252671 46.44503589 23 65 C22.28328125 65.87785156 21.5665625 66.75570312 20.828125 67.66015625 C15.21605493 74.25732372 8.38338168 81.20553944 0 84 C0 56.28 0 28.56 0 0 Z " fill="#FDC00E" transform="translate(245,394)"/>
<path d="M0 0 C9.24 0 18.48 0 28 0 C28.515625 3.63 29.03125 7.26 29.5625 11 C33.25812198 34.87214541 41.23424145 56.46848289 52 78 C41.44 78 30.88 78 20 78 C7.65367899 53.82178802 1.10532884 27.08055661 0 0 Z " fill="#FDFDFC" transform="translate(31,288)"/>
<path d="M0 0 C9.24 0 18.48 0 28 0 C26.59238349 26.74471376 20.01602067 53.96795867 8 78 C-2.56 78 -13.12 78 -24 78 C-22.659375 75.091875 -21.31875 72.18375 -19.9375 69.1875 C-9.68314071 46.56079012 -3.87742557 24.51086878 0 0 Z " fill="#FDFDFC" transform="translate(403,288)"/>
<path d="M0 0 C10.56 0 21.12 0 32 0 C30.7875823 3.03104425 29.61128039 5.9052639 28.1953125 8.8203125 C27.85886719 9.5215625 27.52242187 10.2228125 27.17578125 10.9453125 C26.48590038 12.3763665 25.79327778 13.80610266 25.09765625 15.234375 C20.68838837 24.45527741 17.51572619 33.99640462 14.9375 43.875 C14.68145996 44.85154541 14.42541992 45.82809082 14.16162109 46.83422852 C11.64008619 56.81684234 10.26796104 66.78586942 9 77 C-0.24 77 -9.48 77 -19 77 C-19 69.81500319 -18.55992683 63.72303558 -17.375 56.75 C-17.10876831 55.18161377 -17.10876831 55.18161377 -16.8371582 53.58154297 C-13.82822362 36.6921902 -8.50721301 20.83198217 -2 5 C-1.34 3.35 -0.68 1.7 0 0 Z " fill="#FEFEFD" transform="translate(50,183)"/>
<path d="M0 0 C10.23 0 20.46 0 31 0 C19.28345644 13.66930081 6.35585629 25.47431934 -9 35 C-9.66 35 -10.32 35 -11 35 C-8.7159816 27.25515103 -6.28382319 19.56186076 -3.8125 11.875 C-2.554375 7.95625 -1.29625 4.0375 0 0 Z " fill="#FABF11" transform="translate(328,394)"/>
<path d="M0 0 C9.9 0 19.8 0 30 0 C31.83587227 4.89565939 33.61861178 9.73436596 35.26171875 14.6875 C35.65810547 15.87988281 36.05449219 17.07226562 36.46289062 18.30078125 C37.06907227 20.13189453 37.06907227 20.13189453 37.6875 22 C38.10322266 23.25167969 38.51894531 24.50335938 38.94726562 25.79296875 C39.96621446 28.8615273 40.98375316 31.93054577 42 35 C37.73969038 33.37938688 34.18851688 31.27825248 30.5 28.625 C29.58686035 27.96951172 29.58686035 27.96951172 28.65527344 27.30078125 C21.95274158 22.38212738 15.94462231 16.79605437 10 11 C9.4932373 10.50838379 8.98647461 10.01676758 8.46435547 9.51025391 C2.62838457 3.8301116 2.62838457 3.8301116 0 1 C0 0.67 0 0.34 0 0 Z " fill="#FABF10" transform="translate(103,394)"/>
<path d="M0 0 C0.495 0.99 0.495 0.99 1 2 C0.03053959 4.77891912 -1.00508383 7.46958298 -2.125 10.1875 C-5.41319295 18.37449689 -8.28422559 26.6057882 -11 35 C-20.9 35 -30.8 35 -41 35 C-29.03244215 21.03784918 -16.20957958 8.89115361 0 0 Z " fill="#FDC10F" transform="translate(144,119)"/>
<path d="M0 0 C6.43456253 2.57382501 10.77823473 6.52319721 16 11 C16.86496094 11.72832031 17.72992188 12.45664063 18.62109375 13.20703125 C24.83078474 18.58359677 29.97807644 24.51031617 35 31 C31.89513297 32.55243352 29.13485165 31.13124351 25.9375 30.25 C17.3549166 27.98163271 8.75660678 26.45943446 0 25 C0 16.75 0 8.5 0 0 Z " fill="#FCFCFB" transform="translate(245,70)"/>
<path d="M0 0 C0.02886751 4.14581887 0.04675327 8.29161216 0.0625 12.4375 C0.07087891 13.62150391 0.07925781 14.80550781 0.08789062 16.02539062 C0.09272461 17.71245117 0.09272461 17.71245117 0.09765625 19.43359375 C0.10551147 20.99678345 0.10551147 20.99678345 0.11352539 22.59155273 C0 25 0 25 -1 26 C-4.45990802 26.45046942 -7.918976 26.81793728 -11.390625 27.16210938 C-16.14441572 27.6714441 -20.42458673 28.62337753 -25 30 C-27.9375 30.125 -27.9375 30.125 -30 30 C-26.92797651 20.99523274 -10.90415035 0 0 0 Z " fill="#FAFAF9" transform="translate(217,70)"/>
<path d="M0 0 C6.64722166 2.02280532 12.82035347 4.65181068 19.0625 7.6875 C22.011875 9.110625 24.96125 10.53375 28 12 C28 22.23 28 32.46 28 43 C26.35 42.67 24.7 42.34 23 42 C21.52250772 39.30808861 20.40439716 36.8445486 19.3125 34 C16.55597887 27.32035023 13.5152436 21.02095865 9.8125 14.8125 C9.40878174 14.13123047 9.00506348 13.44996094 8.58911133 12.74804688 C5.92792159 8.34046837 3.03603927 4.15770209 0 0 Z " fill="#FAFBFC" transform="translate(299,79)"/>
<path d="M0 0 C5.4275952 0.6313981 10.76263121 1.45645617 16.125 2.5 C20.74315613 3.38844527 25.35996418 4.2266607 30 5 C30 13.25 30 21.5 30 30 C17.19919813 24.87967925 7.24980779 13.4531538 0 2 C0 1.34 0 0.68 0 0 Z " fill="#FAFAFA" transform="translate(187,448)"/>
<path d="M0 0 C-7.39163452 11.17063737 -16.7052055 24.56840183 -30 29 C-30 20.75 -30 12.5 -30 4 C-21.5 2.625 -21.5 2.625 -18.87304688 2.20556641 C-15.06979988 1.58059948 -11.37314831 0.86170489 -7.65625 -0.1640625 C-4.21778914 -0.95020633 -3.17013644 -0.98826469 0 0 Z " fill="#FDFDFC" transform="translate(275,449)"/>
</svg>
