<svg xmlns="http://www.w3.org/2000/svg" xmlns:xlink="http://www.w3.org/1999/xlink" width="500" zoomAndPan="magnify" viewBox="0 0 375 374.999991" height="500" preserveAspectRatio="xMidYMid meet" version="1.0"><defs><g/><clipPath id="087165b657"><path d="M 157.214844 132 L 178 132 L 178 162 L 157.214844 162 Z M 157.214844 132 " clip-rule="nonzero"/></clipPath><clipPath id="731fd276f4"><path d="M 157.214844 131 L 179 131 L 179 163 L 157.214844 163 Z M 157.214844 131 " clip-rule="nonzero"/></clipPath><clipPath id="075d858aab"><path d="M 197 132 L 217.964844 132 L 217.964844 162 L 197 162 Z M 197 132 " clip-rule="nonzero"/></clipPath><clipPath id="b508e96e74"><path d="M 196 131 L 217.964844 131 L 217.964844 163 L 196 163 Z M 196 131 " clip-rule="nonzero"/></clipPath><clipPath id="4bbc424ef5"><path d="M 176 123.375 L 198 123.375 L 198 170.625 L 176 170.625 Z M 176 123.375 " clip-rule="nonzero"/></clipPath></defs><g clip-path="url(#087165b657)"><path fill="#5e17eb" d="M 176.320312 161.707031 C 175.988281 161.707031 175.65625 161.59375 175.394531 161.386719 L 158.457031 148.058594 C 158.09375 147.773438 157.882812 147.34375 157.882812 146.882812 C 157.882812 146.417969 158.09375 145.988281 158.457031 145.703125 L 175.394531 132.378906 C 175.65625 132.167969 175.988281 132.058594 176.320312 132.058594 C 176.785156 132.058594 177.214844 132.261719 177.5 132.628906 C 177.746094 132.941406 177.859375 133.335938 177.8125 133.734375 C 177.765625 134.132812 177.5625 134.488281 177.25 134.734375 L 161.8125 146.882812 L 177.25 159.027344 C 177.5625 159.277344 177.765625 159.632812 177.8125 160.027344 C 177.859375 160.425781 177.746094 160.816406 177.5 161.136719 C 177.214844 161.496094 176.785156 161.707031 176.320312 161.707031 " fill-opacity="1" fill-rule="nonzero"/></g><g clip-path="url(#731fd276f4)"><path fill="#00bf63" d="M 176.320312 131.417969 C 175.84375 131.417969 175.375 131.578125 175 131.875 L 158.0625 145.199219 C 157.542969 145.613281 157.246094 146.222656 157.246094 146.882812 C 157.246094 147.542969 157.542969 148.15625 158.0625 148.5625 L 175 161.886719 C 175.375 162.183594 175.84375 162.347656 176.320312 162.347656 C 176.984375 162.347656 177.597656 162.046875 178.003906 161.527344 C 178.359375 161.082031 178.511719 160.523438 178.445312 159.953125 C 178.378906 159.386719 178.09375 158.878906 177.644531 158.527344 L 162.84375 146.882812 L 177.644531 135.238281 C 178.09375 134.882812 178.378906 134.375 178.445312 133.808594 C 178.511719 133.242188 178.359375 132.683594 178.003906 132.234375 C 177.597656 131.714844 176.980469 131.417969 176.320312 131.417969 Z M 176.320312 132.695312 C 176.578125 132.695312 176.828125 132.808594 177 133.023438 C 177.292969 133.398438 177.226562 133.941406 176.855469 134.234375 L 160.777344 146.882812 L 176.855469 159.53125 C 177.226562 159.824219 177.292969 160.367188 177 160.738281 C 176.828125 160.957031 176.578125 161.070312 176.320312 161.070312 C 176.132812 161.070312 175.949219 161.007812 175.789062 160.882812 L 158.851562 147.558594 C 158.644531 147.394531 158.523438 147.144531 158.523438 146.882812 C 158.523438 146.617188 158.644531 146.367188 158.851562 146.203125 L 175.789062 132.878906 C 175.945312 132.753906 176.132812 132.695312 176.320312 132.695312 " fill-opacity="1" fill-rule="nonzero"/></g><g clip-path="url(#075d858aab)"><path fill="#5e17eb" d="M 198.667969 161.707031 C 198.207031 161.707031 197.777344 161.496094 197.488281 161.136719 C 196.976562 160.484375 197.089844 159.539062 197.742188 159.027344 L 213.179688 146.882812 L 197.742188 134.734375 C 197.089844 134.222656 196.976562 133.277344 197.488281 132.628906 C 197.777344 132.261719 198.207031 132.058594 198.667969 132.058594 C 199.003906 132.058594 199.332031 132.167969 199.597656 132.378906 L 216.535156 145.703125 C 216.898438 145.988281 217.105469 146.417969 217.105469 146.882812 C 217.105469 147.34375 216.898438 147.773438 216.53125 148.058594 L 199.597656 161.386719 C 199.332031 161.59375 199.003906 161.707031 198.667969 161.707031 " fill-opacity="1" fill-rule="nonzero"/></g><g clip-path="url(#b508e96e74)"><path fill="#00bf63" d="M 198.667969 131.417969 C 198.007812 131.417969 197.394531 131.714844 196.988281 132.234375 C 196.257812 133.160156 196.417969 134.507812 197.34375 135.238281 L 212.144531 146.882812 L 197.34375 158.527344 C 196.417969 159.253906 196.257812 160.601562 196.988281 161.527344 C 197.394531 162.046875 198.007812 162.347656 198.667969 162.347656 C 199.148438 162.347656 199.613281 162.183594 199.988281 161.886719 L 216.929688 148.5625 C 217.445312 148.15625 217.742188 147.542969 217.742188 146.882812 C 217.742188 146.222656 217.445312 145.613281 216.929688 145.199219 L 199.992188 131.875 C 199.617188 131.578125 199.148438 131.417969 198.667969 131.417969 Z M 198.667969 132.695312 C 198.855469 132.695312 199.042969 132.753906 199.199219 132.878906 L 216.140625 146.203125 C 216.347656 146.367188 216.464844 146.617188 216.464844 146.882812 C 216.464844 147.144531 216.347656 147.394531 216.140625 147.558594 L 199.199219 160.882812 C 199.042969 161.007812 198.855469 161.070312 198.667969 161.070312 C 198.414062 161.070312 198.160156 160.957031 197.992188 160.738281 C 197.699219 160.367188 197.761719 159.824219 198.136719 159.53125 L 214.210938 146.882812 L 198.136719 134.234375 C 197.761719 133.941406 197.699219 133.398438 197.992188 133.023438 C 198.160156 132.808594 198.414062 132.695312 198.667969 132.695312 " fill-opacity="1" fill-rule="nonzero"/></g><path fill="#5e17eb" d="M 179.078125 169.75 C 178.890625 169.75 178.710938 169.710938 178.535156 169.644531 C 178.164062 169.5 177.867188 169.21875 177.707031 168.855469 C 177.542969 168.484375 177.535156 168.078125 177.679688 167.707031 L 194.21875 124.972656 C 194.441406 124.402344 195.003906 124.015625 195.617188 124.015625 C 195.804688 124.015625 195.988281 124.050781 196.164062 124.117188 C 196.929688 124.417969 197.316406 125.289062 197.019531 126.058594 L 180.476562 168.789062 C 180.257812 169.363281 179.691406 169.75 179.078125 169.75 " fill-opacity="1" fill-rule="nonzero"/><g clip-path="url(#4bbc424ef5)"><path fill="#00bf63" d="M 195.617188 123.375 C 194.742188 123.375 193.9375 123.929688 193.625 124.742188 L 177.082031 167.472656 C 176.878906 168.007812 176.890625 168.589844 177.121094 169.113281 C 177.351562 169.632812 177.773438 170.035156 178.304688 170.242188 C 178.554688 170.339844 178.8125 170.386719 179.078125 170.386719 C 179.953125 170.386719 180.757812 169.835938 181.074219 169.019531 L 197.613281 126.289062 C 198.039062 125.1875 197.492188 123.945312 196.390625 123.523438 C 196.144531 123.425781 195.882812 123.375 195.617188 123.375 Z M 195.617188 124.652344 C 195.722656 124.652344 195.828125 124.675781 195.929688 124.714844 C 196.375 124.882812 196.59375 125.382812 196.421875 125.828125 L 179.878906 168.558594 C 179.75 168.898438 179.421875 169.109375 179.078125 169.109375 C 178.972656 169.109375 178.867188 169.089844 178.765625 169.050781 C 178.320312 168.878906 178.101562 168.378906 178.277344 167.9375 L 194.816406 125.207031 C 194.949219 124.863281 195.273438 124.652344 195.617188 124.652344 " fill-opacity="1" fill-rule="nonzero"/></g><g fill="#ffffff" fill-opacity="1"><g transform="translate(128.269328, 216.116295)"><g><path d="M 13.921875 0.53125 C 11.515625 0.53125 9.21875 0.265625 7.03125 -0.265625 C 4.851562 -0.804688 3.019531 -1.570312 1.53125 -2.5625 L 4.015625 -7.953125 C 5.253906 -7.117188 6.71875 -6.46875 8.40625 -6 C 10.09375 -5.53125 11.847656 -5.296875 13.671875 -5.296875 C 15.710938 -5.296875 17.347656 -5.648438 18.578125 -6.359375 C 19.804688 -7.066406 20.421875 -8.050781 20.421875 -9.3125 L 20.421875 -9.359375 C 20.421875 -10.109375 20.171875 -10.738281 19.671875 -11.25 C 19.179688 -11.757812 18.359375 -12.253906 17.203125 -12.734375 C 16.054688 -13.222656 14.476562 -13.769531 12.46875 -14.375 C 10.039062 -15.113281 8.097656 -15.925781 6.640625 -16.8125 C 5.191406 -17.695312 4.15625 -18.773438 3.53125 -20.046875 C 2.914062 -21.316406 2.609375 -22.878906 2.609375 -24.734375 L 2.609375 -24.8125 C 2.609375 -26.6875 3.09375 -28.320312 4.0625 -29.71875 C 5.03125 -31.113281 6.425781 -32.203125 8.25 -32.984375 C 10.070312 -33.773438 12.25 -34.171875 14.78125 -34.171875 C 16.96875 -34.171875 19.082031 -33.914062 21.125 -33.40625 C 23.164062 -32.894531 24.90625 -32.171875 26.34375 -31.234375 L 23.859375 -25.8125 C 22.640625 -26.601562 21.234375 -27.226562 19.640625 -27.6875 C 18.054688 -28.144531 16.453125 -28.375 14.828125 -28.375 C 12.890625 -28.375 11.457031 -28.039062 10.53125 -27.375 C 9.613281 -26.71875 9.15625 -25.90625 9.15625 -24.9375 L 9.15625 -24.890625 C 9.15625 -23.734375 9.632812 -22.828125 10.59375 -22.171875 C 11.5625 -21.523438 13.179688 -20.84375 15.453125 -20.125 C 18.296875 -19.25 20.554688 -18.351562 22.234375 -17.4375 C 23.921875 -16.53125 25.132812 -15.453125 25.875 -14.203125 C 26.625 -12.960938 27 -11.390625 27 -9.484375 L 27 -9.40625 C 27 -6.257812 25.828125 -3.816406 23.484375 -2.078125 C 21.140625 -0.335938 17.953125 0.53125 13.921875 0.53125 Z M 13.921875 0.53125 "/></g></g></g><g fill="#ffffff" fill-opacity="1"><g transform="translate(155.56079, 216.116295)"><g><path d="M 8.828125 0 L 2.234375 0 L 2.234375 -23.53125 C 3.585938 -23.78125 4.929688 -23.992188 6.265625 -24.171875 C 7.609375 -24.347656 8.835938 -24.488281 9.953125 -24.59375 C 11.078125 -24.707031 11.984375 -24.765625 12.671875 -24.765625 C 14.191406 -24.765625 15.578125 -24.523438 16.828125 -24.046875 C 18.085938 -23.566406 19.09375 -22.742188 19.84375 -21.578125 C 20.695312 -22.710938 21.800781 -23.523438 23.15625 -24.015625 C 24.507812 -24.515625 26.039062 -24.765625 27.75 -24.765625 C 29.820312 -24.765625 31.597656 -24.46875 33.078125 -23.875 C 34.554688 -23.28125 35.691406 -22.3125 36.484375 -20.96875 C 37.285156 -19.632812 37.6875 -17.820312 37.6875 -15.53125 L 37.6875 0 L 31.109375 0 L 31.109375 -14.78125 C 31.109375 -16.03125 30.851562 -17.023438 30.34375 -17.765625 C 29.832031 -18.515625 28.757812 -18.890625 27.125 -18.890625 C 25.53125 -18.890625 24.46875 -18.515625 23.9375 -17.765625 C 23.414062 -17.023438 23.15625 -16.03125 23.15625 -14.78125 L 23.15625 0 L 16.609375 0 L 16.609375 -14.78125 C 16.609375 -16.300781 16.226562 -17.363281 15.46875 -17.96875 C 14.707031 -18.582031 13.679688 -18.890625 12.390625 -18.890625 C 11.859375 -18.890625 11.296875 -18.851562 10.703125 -18.78125 C 10.109375 -18.71875 9.484375 -18.613281 8.828125 -18.46875 Z M 8.828125 0 "/></g></g></g><g fill="#ffffff" fill-opacity="1"><g transform="translate(193.909796, 216.116295)"><g><path d="M 26.296875 -11.09375 L 26.296875 -10.515625 L 8.484375 -10.515625 C 8.816406 -9.003906 9.554688 -7.726562 10.703125 -6.6875 C 11.847656 -5.65625 13.320312 -5.140625 15.125 -5.140625 C 16.582031 -5.140625 17.925781 -5.363281 19.15625 -5.8125 C 20.382812 -6.269531 21.425781 -6.804688 22.28125 -7.421875 L 25.140625 -2.3125 C 23.953125 -1.570312 22.515625 -0.894531 20.828125 -0.28125 C 19.148438 0.320312 17.148438 0.625 14.828125 0.625 C 12.179688 0.625 9.867188 0.09375 7.890625 -0.96875 C 5.910156 -2.03125 4.375 -3.515625 3.28125 -5.421875 C 2.195312 -7.328125 1.65625 -9.535156 1.65625 -12.046875 L 1.65625 -12.09375 C 1.65625 -14.582031 2.164062 -16.769531 3.1875 -18.65625 C 4.207031 -20.550781 5.640625 -22.035156 7.484375 -23.109375 C 9.335938 -24.191406 11.523438 -24.734375 14.046875 -24.734375 C 16.585938 -24.734375 18.773438 -24.1875 20.609375 -23.09375 C 22.441406 -22 23.847656 -20.4375 24.828125 -18.40625 C 25.804688 -16.382812 26.296875 -13.945312 26.296875 -11.09375 Z M 14 -19.390625 C 12.5625 -19.390625 11.363281 -18.929688 10.40625 -18.015625 C 9.457031 -17.109375 8.832031 -15.960938 8.53125 -14.578125 L 19.59375 -14.578125 C 19.34375 -15.960938 18.75 -17.109375 17.8125 -18.015625 C 16.875 -18.929688 15.601562 -19.390625 14 -19.390625 Z M 14 -19.390625 "/></g></g></g><g fill="#ffffff" fill-opacity="1"><g transform="translate(220.331564, 216.116295)"><g><path d="M 14.875 0.65625 C 12.164062 0.65625 9.820312 0.101562 7.84375 -1 C 5.875 -2.101562 4.359375 -3.609375 3.296875 -5.515625 C 2.234375 -7.421875 1.703125 -9.585938 1.703125 -12.015625 L 1.703125 -12.09375 C 1.703125 -14.519531 2.210938 -16.6875 3.234375 -18.59375 C 4.253906 -20.5 5.726562 -22 7.65625 -23.09375 C 9.59375 -24.1875 11.914062 -24.734375 14.625 -24.734375 C 15.394531 -24.734375 16.160156 -24.671875 16.921875 -24.546875 C 17.679688 -24.421875 18.421875 -24.273438 19.140625 -24.109375 L 19.140625 -33.59375 L 25.6875 -33.59375 L 25.6875 -1.65625 C 24 -0.832031 22.328125 -0.242188 20.671875 0.109375 C 19.015625 0.472656 17.082031 0.65625 14.875 0.65625 Z M 14.875 -5.21875 C 15.675781 -5.21875 16.425781 -5.265625 17.125 -5.359375 C 17.832031 -5.460938 18.503906 -5.59375 19.140625 -5.75 L 19.140625 -18.21875 C 18.503906 -18.363281 17.8125 -18.503906 17.0625 -18.640625 C 16.320312 -18.773438 15.59375 -18.84375 14.875 -18.84375 C 12.71875 -18.84375 11.078125 -18.191406 9.953125 -16.890625 C 8.835938 -15.597656 8.28125 -14 8.28125 -12.09375 L 8.28125 -12.015625 C 8.28125 -10.109375 8.835938 -8.5 9.953125 -7.1875 C 11.078125 -5.875 12.71875 -5.21875 14.875 -5.21875 Z M 14.875 -5.21875 "/></g></g></g><g fill="#03fa6e" fill-opacity="1"><g transform="translate(167.163476, 245.299906)"><g><path d="M 6.359375 0 L 1.03125 0 L 1.03125 -15.59375 L 6.359375 -15.59375 C 8.171875 -15.59375 9.675781 -15.28125 10.875 -14.65625 C 12.070312 -14.039062 12.96875 -13.160156 13.5625 -12.015625 C 14.164062 -10.867188 14.46875 -9.5 14.46875 -7.90625 L 14.46875 -7.859375 C 14.46875 -6.234375 14.164062 -4.832031 13.5625 -3.65625 C 12.96875 -2.488281 12.070312 -1.585938 10.875 -0.953125 C 9.675781 -0.316406 8.171875 0 6.359375 0 Z M 4.078125 -12.765625 L 4.078125 -2.828125 L 6.296875 -2.828125 C 7.929688 -2.828125 9.1875 -3.253906 10.0625 -4.109375 C 10.9375 -4.972656 11.375 -6.222656 11.375 -7.859375 L 11.375 -7.90625 C 11.375 -9.476562 10.9375 -10.679688 10.0625 -11.515625 C 9.195312 -12.347656 7.941406 -12.765625 6.296875 -12.765625 Z M 4.078125 -12.765625 "/></g></g></g><g fill="#03fa6e" fill-opacity="1"><g transform="translate(181.662938, 245.299906)"><g><path d="M 11.546875 0 L 1.0625 0 L 1.0625 -15.59375 L 11.5 -15.59375 L 11.5 -12.765625 L 4.0625 -12.765625 L 4.0625 -9.3125 L 10.828125 -9.3125 L 10.828125 -6.640625 L 4.0625 -6.640625 L 4.0625 -2.828125 L 11.546875 -2.828125 Z M 11.546875 0 "/></g></g></g><g fill="#03fa6e" fill-opacity="1"><g transform="translate(193.239362, 245.299906)"><g><path d="M 7.265625 -2.96875 L 11.15625 -15.59375 L 14.390625 -15.59375 L 9.46875 0 L 5.078125 0 L 0.1875 -15.59375 L 3.4375 -15.59375 Z M 7.265625 -2.96875 "/></g></g></g></svg>